<svg width="1995" height="2000" xmlns="http://www.w3.org/2000/svg"><path fill="#d5a87c" d="M0 0h1995v2000H0z"/><g fill-opacity=".502"><path d="M301.635 1892.984l-413.643 224.204h895.389L575.135 1786.28zM1457.285 1781.25l-272.754 335.938 927.364-39.063z"/><path d="M249.375 492.188L-15.585-125l1207.91 140.625z" fill="#fff8fd"/><path d="M2040.909 1133.664c167.385 167.805 167.385 439.867 0 607.672s-438.768 167.805-606.153 0c-167.385-167.805-167.385-439.867 0-607.672s438.768-167.805 606.153 0" fill="#ffffa1"/><path d="M999.425 2117.188l76.45-353.297 125.684-201.641-497.993-118.164z" fill="#741a0b"/><path d="M627.94 886.438c-192.053-22.875-192.26-61.649-.465-86.594 191.8-24.946 502.965-26.623 695.015-3.742 192.058 22.875 192.26 61.648.468 86.593-191.793 24.946-502.966 26.625-695.018 3.742" fill="#641310"/><path d="M1270.574 545.79c112.982 96.835 85.044 190.626-62.406 209.488-147.451 18.863-358.578-44.346-471.565-141.18-112.986-96.835-85.046-190.625 62.402-209.488 147.451-18.862 358.578 44.346 471.569 141.18" fill="#fef"/><path d="M1216.584 1123.5c133.907 39.656 133.907 103.969 0 143.625-133.907 39.664-351.019 39.664-484.923 0-133.907-39.656-133.907-103.969 0-143.625 133.904-39.664 351.016-39.664 484.923 0" fill="#90130b"/><path d="M903.985 171.875l537.714 179.688-857.226 31.25z" fill="#5c2120"/><path d="M592.266 1007.813l77.93-695.313-187.032 351.563z" fill="#4f2219"/><path d="M-124.688 2007.813l865.02-328.126L413.027 750z" fill="#ffd66b"/><path d="M1695.805 565.478c45.643 222.717 45.643 583.827 0 806.545-45.651 222.72-119.669 222.72-165.32 0-45.644-222.718-45.644-583.828 0-806.545 45.651-222.721 119.669-222.721 165.32 0" fill="#fffca2"/><path d="M672.669 2110.492l-90.763-390.578-86.598 81.14-619.996 316.134z" fill="#120015"/><path d="M-31.172 1117.188l327.305-78.126L-124.687-125z" fill="#a16246"/><path d="M1324.805 312.5l140.273 710.938 46.758-546.875z" fill="#924d2b"/><path d="M799.177 1710.61L580.47 1218.147l85.43-38.132 218.711 492.46z" fill="#873c23"/><path d="M1043.868 891.414c21.299 42.711 21.299 111.961 0 154.672-21.306 42.719-55.844 42.719-77.15 0-21.298-42.711-21.298-111.961 0-154.672 21.306-42.719 55.844-42.719 77.15 0" fill="#fff4ff"/><path d="M1278.047 2046.875l132.48-234.375 685.782 242.188z" fill="#1f0926"/><path d="M1324.906 182.28c-86.042-360.049 140.733-610.507 506.512-559.414 365.77 51.091 732.048 384.386 818.09 744.433 86.043 360.048-140.733 610.506-506.511 559.412-365.771-51.086-732.049-384.384-818.09-744.431" fill="#d5d57d"/><path d="M989.707 1703.125l-155.86-117.188 420.821-78.124z" fill="#6e0e00"/><path d="M1052.051 1789.063l677.988-156.25-374.062-546.876z" fill="#ffae64"/><path d="M1946.59 1764.547l-750.237-740.375 122.514-216.813 477.14 625.235z" fill="#ffd7b2"/><path d="M748.125 1281.25l116.895 289.063 545.508-242.188z" fill="#f7a5ae"/><path d="M1444.037 529.493l-517.874-143.41 176.386-215.826 299.001 166.896z" fill="#a2604c"/><path d="M951.88 250.097l-214.617 11.12L572.34 446.284l33.615 36.056z" fill="#582817"/><path d="M626.203 33.287c9.119 94.433-48.918 211.145-129.63 260.684-80.711 49.538-153.534 13.145-162.654-81.288C324.8 118.25 382.837 1.538 463.55-48.001c80.711-49.538 153.533-13.144 162.654 81.288" fill="#eff9ff"/><path d="M701.61 531.025c67.325-6.498 134.934 41.627 151.019 107.49 16.077 65.862-25.468 124.522-92.795 131.019-67.326 6.497-134.938-41.628-151.016-107.49-16.078-65.863 25.466-124.522 92.792-131.019" fill="#ffc4ca"/><path d="M303.995 1509.945c-106.356 69.125-293.851 107.766-418.783 86.305-124.932-21.46-139.99-94.89-33.635-164.016 106.356-69.132 293.852-107.773 418.783-86.312 124.932 21.46 139.99 94.898 33.635 164.023" fill="#f19a37"/><path d="M691.308 805.055L527.74 1039.68l-23.604-77.961 129.6-145.07z" fill="#710c05"/><path d="M1387.149 812.5l-23.38-359.375-280.546 250z" fill="#ffd1c3"/><path d="M1379.356 281.25L896.192 93.75l623.437 46.875z" fill="#ffe7a9"/><path d="M1182.186 771.222l285.885 369.958 81.047-178.875-48.426-22.883z" fill="#f88054"/><path d="M1059.618 834.992c73.036 9.149 73.036 23.992 0 33.14-73.044 9.157-191.466 9.157-264.51 0-73.036-9.148-73.036-23.991 0-33.14 73.044-9.156 191.466-9.156 264.51 0" fill="#2f0000"/><path d="M1574.18 54.688l475.371 921.875-249.375 140.625z" fill="#c1bc51"/><path d="M1565.288 1180.617L1612 1518.375l393.343-23.547 64.697-308.86z" fill="#fff4bb"/><path d="M529.922 718.75L225.996-125l-350.684 289.063z" fill="#e8b297"/><path d="M740.332 242.188l428.614-109.375V-125z" fill="#f8deb9"/><path d="M1117.489 1124.883l-18.439 166.36 304.963-382.712-930.737 172.297z" fill="#f19ea1"/><path d="M1036.465 2117.188l319.512-710.938v500z" fill="#ffc6ab"/><path d="M1772.589 1895.25c-114.697-118.203-130.532-323.055-35.372-457.563 95.16-134.5 265.272-147.718 379.97-29.515 114.688 118.203 130.524 323.055 35.372 457.562-95.16 134.5-265.28 147.72-379.97 29.516" fill="#fede84"/><path d="M561.094 1015.625l148.066 710.938-833.848-515.626z" fill="#ffc773"/><path d="M1749.85-53.634c23.433-60.035 84.514-77.875 136.446-39.846 51.925 38.028 75.023 117.524 51.59 177.559-23.426 60.035-84.515 77.875-136.44 39.847-51.924-38.028-75.023-117.525-51.597-177.56" fill="#fbd1d1"/><path d="M1363.77 1710.938l155.86 335.937-38.966-250z" fill="#3c242d"/><path d="M709.16 1898.438l-23.379-421.876 475.372 593.75z" fill="#ba817e"/><path d="M-124.688 445.313l685.782 23.437L436.406 1125z" fill="#db9f79"/><path d="M1448.152 730.977c12.18 57.968 12.18 151.953 0 209.921-12.173 57.97-31.904 57.97-44.077 0-12.18-57.968-12.18-151.953 0-209.921 12.173-57.97 31.904-57.97 44.077 0" fill="#983f01"/><path d="M1058.145 1702.172l301.393-438.399-390.887-462.945 406.504 614.399z" fill="#d36939"/><path d="M1433.906 851.563l413.028 531.25-101.309-601.563z" fill="#ffd579"/><path d="M784.23 1265.547l8.105-38.211 106.717 22.742-8.105 38.211z" fill="#0a0000"/><path d="M1196.501-127.583c46.26 55.414 96.703 157.457 112.679 227.919 15.976 70.462-8.58 82.66-54.84 27.247-46.258-55.414-96.702-157.457-112.678-227.919-15.967-70.462 8.58-82.66 54.84-27.247" fill="#837544"/><path d="M818.426 1155.29l-32.676-21.274 157.036-242.43 32.676 21.273z" fill="#9c4f4e"/><path d="M1268.267 654.675c80.556 109.734 41.03 164.7-88.287 122.779-129.308-41.925-299.445-164.869-380-274.602-80.556-109.734-41.031-164.704 88.278-122.78 129.317 41.926 299.453 164.869 380.009 274.603" fill="#ffd0cd"/><path d="M639.024 390.625l-576.68-85.938L132.48 93.75z" fill="#f1ddd0"/><path d="M1028.672 867.188l101.309 242.187-194.825-39.063z" fill="#ffdfdc"/><path d="M865.713 831.18l440.178-47.938-346.85-83.63-8.306 120.904z" fill="#e38076"/><path d="M680.015 1682.156l-87.53 81.617 24.633 133.547 226.806 219.868z" fill="#d4aaae"/><path d="M1032.117 1162.57c11.292 34.383-8.425 67.086-44.03 73.047-35.615 5.961-73.644-17.078-84.936-51.46-11.292-34.384 8.424-67.087 44.038-73.048 35.614-5.96 73.636 17.078 84.928 51.461" fill="#842506"/><path d="M1652.203 1042.96l-59.21-56.179-107.56-465.033 234.655 155.172z" fill="#ffeca7"/><path d="M1059.844 765.625h148.066v132.813h-148.066z" fill="#8c3c22"/><path d="M513.715 1633.602c94.344 42.71 94.344 111.96 0 154.671-94.343 42.72-247.305 42.72-341.649 0-94.343-42.71-94.343-111.96 0-154.671 94.344-42.72 247.306-42.72 341.649 0" fill="#f8d287"/><path d="M-7.041 767.52c89.302-.792 190.557 65.128 226.158 147.238 35.602 82.101-7.93 149.312-97.233 150.101-89.302.79-190.557-65.125-226.159-147.234-35.601-82.11 7.932-149.312 97.234-150.105" fill="#936e4f"/><path d="M576.68 851.563L366.27 1000V812.5z" fill="#e4c4a5"/><path d="M1457.285 1171.875l-163.652 343.75 374.063-7.813z" fill="#ffe38e"/><path d="M-81.18 1876.71c-40.852-38.78-28.647-75.312 27.261-81.608 55.909-6.29 134.349 20.039 175.201 58.82 40.852 38.781 28.647 75.312-27.261 81.61-55.908 6.288-134.348-20.048-175.2-58.821" fill="#aaae3c"/><path d="M649.415 194.912c129.564-86.802 159.41-55.396 66.665 70.145-92.747 125.541-272.965 297.68-402.53 384.481-129.565 86.802-159.413 55.397-66.666-70.145 92.746-125.541 272.966-297.68 402.53-384.481" fill="#edc59d"/><path d="M226.929 125.037c-42.907-19.721-75.235-73.989-72.207-121.211 3.028-47.222 40.265-69.517 83.172-49.796 42.907 19.72 75.235 73.988 72.208 121.21-3.029 47.222-40.267 69.517-83.173 49.797" fill="#d9926f"/><path d="M1355.977 812.5h31.172V875h-31.172z" fill="#090000"/><path d="M2180.91 546.322l-347.006 302.405-71.57-82.549 347.005-302.402z" fill="#e5dfa5"/><path d="M588.646 708.094c15.217 27.46 15.217 71.978 0 99.437-15.217 27.461-39.888 27.461-55.104 0-15.218-27.46-15.218-71.978 0-99.437 15.216-27.459 39.887-27.459 55.104 0" fill="#541e00"/><path d="M1491.138 1023.398l-18.228-59.773 59.624-18.273 18.228 59.773z" fill="#f82500"/><path d="M812.105 2161.055l-394.1-266.493 47.936-71.242 394.099 266.492z" fill="#220810"/><path d="M1520.533 236.977l116.06 190.712 475.302-127.39-316.597.656z" fill="#b39f5b"/><path d="M1040.245 1363c36.525 15.258 36.525 39.992 0 55.25-36.518 15.25-95.73 15.25-132.247 0-36.526-15.258-36.526-39.992 0-55.25 36.518-15.25 95.729-15.25 132.247 0" fill="#be6652"/><path d="M1179.918 1249.875c24.462 1.04 25.405 8 2.104 15.54-23.3 7.546-62.016 12.82-86.486 11.772-24.462-1.039-25.405-8-2.104-15.539 23.3-7.546 62.024-12.812 86.486-11.773" fill="#4a0000"/><path d="M981.914 1710.938l-155.86-117.188 366.27-23.438z" fill="#722300"/><path d="M748.375 278.662l267.197-92.309 209.943 40.356 115.694 87.544z" fill="#936754"/><path d="M965.658 940.133l3.203-47.875-39.129-138.628-142.229 11.06z" fill="#86392c"/><path d="M1942.187 549.291C1919.221 611.446 1852 684.486 1792.04 712.43c-59.951 27.943-89.938.21-66.965-61.946 22.966-62.156 90.188-135.196 150.147-163.139 59.96-27.943 89.939-.21 66.965 61.946" fill="#b5b741"/><path d="M681.265 1416l-47.99-120.937 288.462 334.476-117.417-45.586z" fill="#713d1e"/><path d="M352.127 1386.14l253.002-203.89L761.47 804.578l-92.774 36.563z" fill="#d38a6f"/><path d="M606.91 504.206c-35.75 15-52.882-2.011-38.265-37.994 14.618-35.982 55.448-77.31 91.198-92.31 35.75-14.999 52.882 2.012 38.265 37.994-14.617 35.982-55.448 77.311-91.198 92.31" fill="#61382b"/><path d="M1294.607 882.5l211.618 654.047-141.723-693.149-153.895-52.336z" fill="#fac095"/><path d="M1207.91 1453.125l-381.855 78.125 451.992-296.875z" fill="#fabaaf"/><path d="M1063.436 1953.25l-55.08-177.398 195.136-237.196 247.489-355.601z" fill="#ea844f"/><path d="M2003.682 2033.352l-653.714-203.72 365.686 58.93 54.932 25.368z" fill="#5a4547"/><path d="M1909.052 1551.875c44.7-55.758 99.01-45.875 121.305 22.086 22.288 67.953 4.123 168.242-40.578 224-44.7 55.766-99.01 45.875-121.298-22.078-22.295-67.953-4.13-168.25 40.57-224.008" fill="#ebcd5c"/><path d="M85.914 2014.25l416.454-223.867 163.157-89.696-204.717 197.235z" fill="#513d37"/><path d="M883.03 917.688c65.437-5.633 75.03 20.648 21.43 58.695-53.608 38.047-150.104 73.46-215.541 79.094-65.438 5.632-75.032-20.649-21.43-58.696s150.103-73.46 215.54-79.093" fill="#e2a9af"/><path d="M1600.395 1354.164c-6.35-48.023 26.972-79.601 74.439-70.531 47.46 9.07 91.092 55.351 97.451 103.375 6.36 48.015-26.964 79.594-74.43 70.523-47.468-9.07-91.1-55.351-97.46-103.367" fill="#fff8e7"/><path d="M1441.7 570.313L763.71 351.563l467.578 7.812z" fill="#dd8365"/><path d="M1500.427 685.997c15.212 39.662 15.212 103.972 0 143.628-15.22 39.664-39.892 39.664-55.112 0-15.211-39.656-15.211-103.966 0-143.628 15.22-39.663 39.893-39.663 55.112 0" fill="#bb5d0e"/><path d="M1578.692-112.368l259.319 302.377-194.949-46.218L1581.311-125z" fill="#b6916b"/><path d="M1701.088 1654.04l59.85 37.679 136.627-32.547-99.212-65.188z" fill="#fffad1"/><path d="M746.9 1174.758c-29.93 15.89-35.902 8.25-13.338-17.07 22.564-25.329 65.116-58.743 95.049-74.641 29.933-15.899 35.902-8.258 13.341 17.07-22.568 25.328-65.12 58.742-95.051 74.64" fill="#881d01"/><path d="M-31.172 789.063l-93.516-515.625L264.961 468.75z" fill="#ca7f5f"/><path d="M337.323 1127.992c59.371 12.961 79.224 63.899 44.342 113.774-34.88 49.875-111.286 79.804-170.656 66.843-59.37-12.96-79.223-63.898-44.342-113.773 34.881-49.875 111.286-79.805 170.656-66.844" fill="#ffcd99"/><path d="M1417.02 622.822L802.566 407.506l-82.17 296.965 254.246 45.517z" fill="#ffd2cb"/><path d="M1246.875 2031.25l93.516-296.875 62.344 62.5z" fill="#f7cfd5"/><path d="M623.438 531.25l54.55 375 62.344-523.438z" fill="#eab3a7"/><path d="M506.543 984.375l264.961 273.438 15.586 250z" fill="#c47663"/><path d="M300.635 495.227c-59.15 2.794-126.64-38.898-150.742-93.122-24.103-54.225 4.309-100.447 63.459-103.242 59.15-2.794 126.64 38.898 150.743 93.122 24.102 54.224-4.31 100.447-63.46 103.242" fill="#fcbc84"/><path d="M925.633 303.74c33.479 9.153 33.479 23.992 0 33.145-33.478 9.153-87.748 9.153-121.227 0-33.478-9.153-33.478-23.992 0-33.145 33.479-9.153 87.749-9.153 121.227 0" fill="#5b1d07"/><path d="M592.266 960.938L397.44 468.75l-31.171 312.5z" fill="#c09c75"/><path d="M658 1395.04c57.823 57.968 57.823 151.952 0 209.92-57.824 57.97-151.575 57.97-209.398 0-57.824-57.968-57.824-151.952 0-209.92 57.823-57.97 151.574-57.97 209.397 0" fill="#ffd66d"/><path d="M-70.137 1179.688l225.996 343.75-225.996 46.874z" fill="#db8933"/><path d="M911.777 1031.25l-46.757 187.5-77.93-39.063z" fill="#ce9081"/><path d="M1789.648 1921.273l-280.095-104.062 511.265-83.828-284.7-35.696z" fill="#ccc474"/><path d="M607.852 828.125h38.965v62.5h-38.965z" fill="#1b0405"/><path d="M338.757 1810.648L186.893 1775.5l66.615-289.273 151.865 35.148z" fill="#fdd594"/><path d="M1166.234 1493.594c55.743 3.039 59.405 23.539 8.182 45.789-51.215 22.25-137.928 37.82-193.663 34.789-55.743-3.04-59.406-23.54-8.183-45.79 51.216-22.25 137.928-37.82 193.664-34.788" fill="#c27564"/><path d="M13.35-116.224l101.062 7.084-34.247 490.99-101.062-7.085z" fill="#cd9990"/><path d="M1823.555 1406.25l77.93 101.563 179.238-109.376z" fill="#fff3cf"/><path d="M1044.258 875l272.754 23.438-116.895-62.5z" fill="#75310f"/><path d="M1176.738 1203.125l70.137-39.063-155.86-85.937z" fill="#eeab95"/><path d="M1108.059 1028.055l173.744 156.828-5.213 5.812-173.744-156.828z" fill="#9a2913"/><path d="M2111.895 710.938L1706.66 171.875l405.235-218.75z" fill="#d6b799"/><path d="M1731.621 1185.672c-54.722 32.258-119.707 11.148-145.152-47.149-25.444-58.296-1.714-131.71 53-163.968 54.715-32.258 119.7-11.149 145.145 47.156 25.451 58.297 1.722 131.703-52.993 163.96" fill="#fdcd72"/><path d="M1212.797 1598.664l8.751-162.797-95.612 149.516-171.328 159.242z" fill="#c95c15"/><path d="M1079.989 973.734l487.232 177.703-476.322-273.046-22.046-93.196z" fill="#e8b1a9"/><path d="M1893.692 1546.875l-592.266 195.313v-281.25z" fill="#efc670"/><path d="M1965.356 1311.14c-55.502-12.374-130.104-57.82-166.63-101.507-36.525-43.688-21.134-69.07 34.368-56.696 55.501 12.376 130.103 57.82 166.629 101.508 36.526 43.688 21.134 69.07-34.367 56.696" fill="#fff0ca"/><path d="M1488.457 906.25l-93.515-62.5 31.172 78.125z" fill="#7b2700"/><path d="M1963.828 789.063l-101.308 320.312-77.93-250z" fill="#afa551"/><path d="M1369.373 1117.46l-123.238 238.728-73.137 275.515 209.849-265.281z" fill="#f59450"/><path d="M519.77 1016.82l-28.302-55.687 48.605-24.828 28.303 55.687z" fill="#bd0100"/><path d="M1310.365 1706.906l112.242 50.938-81.788 183.82 588.845 175.523z" fill="#483034"/><path d="M942.864 204.798l-215.64-30.075-232.879 421.57L664.16-125z" fill="#ead4bd"/><path d="M997.5 1125l31.172 54.688 101.309-78.126z" fill="#ce3400"/><path d="M1057.17 734.768c24.346 21.356 24.346 55.982 0 77.341-24.344 21.352-63.823 21.352-88.169 0-24.345-21.359-24.345-55.985 0-77.341 24.346-21.357 63.825-21.357 88.17 0" fill="#f69f8f"/><path d="M287.123 795.125c33.188 100.055-13.316 137.68-103.87 84.047-90.555-53.64-190.867-178.233-224.055-278.29-33.188-100.055 13.317-137.685 103.871-84.048 90.555 53.638 190.866 178.232 224.054 278.291" fill="#d69369"/><path d="M732.54 859.375h124.687v23.438H732.539z" fill="#4c1700"/><path d="M249.375 1507.813l264.961-585.938-23.379 546.875z" fill="#f2b05f"/><path d="M607.174 865.117l68.777 25.555-102.958 200.312-2.941-97.82z" fill="#9f604c"/><path d="M1151.372 1687.156c48.348-59.875 101.675-47.593 119.108 27.43 17.44 75.031-7.621 184.383-55.969 244.258s-101.675 47.594-119.108-27.43c-17.433-75.023 7.622-184.383 55.97-244.258" fill="#ea9e86"/><path d="M1272.008 288.596c18.726 47.246 26.06 126.004 16.388 175.91-9.663 49.905-32.684 52.06-51.402 4.814-18.719-47.247-26.06-126.004-16.389-175.91 9.663-49.905 32.684-52.06 51.403-4.814" fill="#b1602e"/><path d="M1031.462 829.21l63.941 151.024-7.177 3.055-63.941-151.023z" fill="#271b3a"/><path d="M1098.809 1937.5v-210.938l-280.547 390.626z" fill="#b57b6a"/><path d="M1490.912 907.367l-162.92-147.75L1570.33 929.14l-144.614 33.843z" fill="#f6c997"/><path d="M1728.621 809.055c46.454 65.156 101.916 180.398 123.885 257.398 21.96 77 2.112 86.602-44.342 21.445-46.454-65.156-101.917-180.39-123.885-257.39-21.96-77.003-2.112-86.606 44.342-21.453" fill="#f0b158"/><path d="M669.803 1579.86c21.304 33.562 21.304 87.968 0 121.53-21.302 33.563-55.842 33.563-77.145 0-21.304-33.562-21.304-87.968 0-121.53 21.303-33.563 55.843-33.563 77.145 0" fill="#ffe88f"/><path d="M-124.688 1289.063l475.372-281.25L-77.93 1125z" fill="#d2ad55"/><path d="M1486.727-65.113c33.479 100.682 33.479 263.92 0 364.601-33.478 100.682-87.749 100.682-121.227 0-33.479-100.682-33.479-263.92 0-364.601 33.478-100.682 87.749-100.682 121.227 0" fill="#ebcb90"/><path d="M292.017 1822.71l365.19-126-774.46 420.477L5.92 1979.25z" fill="#e3cd6e"/><path d="M1025.056 893.695c15.212 45.766 15.212 119.97 0 165.735-15.22 45.757-39.892 45.757-55.112 0-15.212-45.766-15.212-119.97 0-165.735 15.22-45.758 39.892-45.758 55.112 0" fill="#ffd6da"/><path d="M1402.735 359.375l54.55 171.875-225.996-257.813z" fill="#7d5d51"/><path d="M2111.895 844.906l-183.096 11.446 183.096 319.992-318.546-18.532z" fill="#f0c48d"/><path d="M649.6 1717.672l-86.616 65.297 191.248 334.218H-10.155z" fill="#331e23"/><path d="M1773.353 378.945c34.024-10.598 67.604 9.134 75 44.073 7.395 34.94-14.192 71.855-48.216 82.453-34.024 10.598-67.604-9.134-75-44.074-7.395-34.94 14.192-71.854 48.216-82.452" fill="#f2c493"/><path d="M1407.029 819.367l11.167 29.172-50.927 19.594-11.168-29.172z"/><path d="M-2.643 1013.445l316.91-140.234-40.302 118.68-98.043 73.523z" fill="#977654"/><path d="M1059.182 828.54c31.468-5.142 32.722-.352 2.805 10.687-29.925 11.039-79.699 24.156-111.175 29.296-31.468 5.141-32.722.36-2.797-10.687 29.925-11.04 79.69-24.156 111.167-29.297" fill="#1d0000"/><path d="M859.027 357.32l479.22 179.167 55.323 287.825-263.987-280.618z" fill="#ffc1aa"/><path d="M557.165 1200.406l51.962-45.351-83.945-135.344-54.455 61.812z" fill="#fbaa98"/><path d="M1220.371 365.07l-141.606 53.143L830.201 204.12l193 37.384z" fill="#a67763"/><path d="M1371.563 1140.625l-148.067-62.5 163.653-125z" fill="#ffcbb6"/><path d="M2018.38 2054.688l-397.442-375 381.855 117.187z" fill="#ecd199"/><path d="M333.552 401.631c32.83-70.747 104.349-83.661 159.74-28.845 55.392 54.817 73.682 156.607 40.85 227.355-32.83 70.747-104.349 83.661-159.74 28.845-55.392-54.817-73.681-156.607-40.85-227.355" fill="#dcb385"/><path d="M1830.241 671.32l55.104-55.243 165.313 165.728-55.104 55.242z" fill="#cfda64"/><path d="M1099.915 1285.828c60.871 6.102 60.871 15.992 0 22.094-60.863 6.101-159.553 6.101-220.416 0-60.87-6.102-60.87-15.992 0-22.094 60.863-6.101 159.553-6.101 220.416 0" fill="#d36d93"/><path d="M615.645 679.688h62.343v125h-62.343z" fill="#dc9d8f"/><path d="M227.417 343.387l482.826-64.126L332.133-125 346 155.868z" fill="#ebe2dd"/><path d="M519.455 838.617c24.346 24.406 24.346 63.985 0 88.39-24.347 24.407-63.821 24.407-88.168 0-24.346-24.405-24.346-63.984 0-88.39 24.347-24.406 63.821-24.406 88.168 0" fill="#eecaa0"/><path d="M962.05 1559.586l81.904-98.774-240.561-23.289 12.858 51.461z" fill="#e2b6ae"/><path d="M879.857 1625.313l.889-28.063-22.771 310.36-169.922-423.087z" fill="#ad7153"/><path d="M1051.022 957.977c2.478-51.368 44.093-80.305 92.955-64.633 48.854 15.672 86.455 70.023 83.977 121.39-2.47 51.368-44.093 80.305-92.947 64.625-48.862-15.671-86.455-70.015-83.985-121.382" fill="#d79893"/><path d="M1745.625 718.75l-257.168-187.5 171.446-62.5z" fill="#fde07f"/><path d="M1885.899 546.875l-7.793-78.125 233.789 93.75z" fill="#a78b56"/><path d="M1101.256 1246.766c48.69 6.101 48.69 15.992 0 22.093-48.699 6.102-127.641 6.102-176.34 0-48.69-6.101-48.69-15.992 0-22.093 48.699-6.102 127.641-6.102 176.34 0" fill="#ab2d09"/><path d="M1604.284 847.375l-136.4 628.5 163.504 83.703-287-134.078z" fill="#ffdf9b"/><path d="M946.082 872.555l-24.135 132.82 69.475-175.625-123.223 65.922z" fill="#4e2c2b"/><path d="M727.465 273.488c47.548-32.344 64.06-17.422 36.872 33.328-27.184 50.75-87.767 118.11-135.315 150.454-47.548 32.344-64.056 17.423-36.872-33.327 27.185-50.75 87.767-118.112 135.315-150.455" fill="#714a38"/><path d="M755.918 804.688h85.723v15.625h-85.723z" fill="#d9a690"/><path d="M619.877 853.602l-4.013-6.696 73.478-44.258 4.013 6.696z" fill="#1c0000"/><path d="M351.973 1703.977c-12.408-56.563 24.346-103.852 82.094-105.61 57.747-1.758 114.62 42.672 127.03 99.242 12.407 56.57-24.347 103.852-82.094 105.61-57.748 1.758-114.62-42.672-127.03-99.242" fill="#efbd6d"/><path d="M1279.2 865.898l-147.637-46.789 141.426-47.486-83.493 158.72z" fill="#ba745d"/><path d="M1044.422 2043.46c85.496 60.978 72.88 87.454-28.164 59.134-101.052-28.313-252.273-100.703-337.765-161.68-85.493-60.977-72.882-87.453 28.167-59.133 101.05 28.313 252.273 100.703 337.762 161.68" fill="#d0aaa6"/><path d="M1052.051 187.5l-420.82-15.625L1246.875-62.5z" fill="#ecceae"/><path d="M1410.528 1039.063L1340.39 1125l46.758-257.813z" fill="#ffd49a"/><path d="M690.458 1342.227l165.608 296.851-186.03-229.148-45.148-73.57z" fill="#81421b"/><path d="M1605.352 179.688h179.238v85.937h-179.238z" fill="#f7c784"/><path d="M1387.149 265.625h397.441v54.688H1387.15z" fill="#c3a960"/><path d="M950.742 835.938h101.309v15.625H950.742z"/><path d="M529.922 1023.438L140.273 1125l187.032-171.875z" fill="#f4a364"/><path d="M852.84 1516.828l-165.552-293.25 103.66 50.164 72.817 18.477z" fill="#dca695"/><path d="M1803.683 1692.516l92.128 1.64-27.407 179.664 243.49-49.726z" fill="#d6c76b"/><path d="M1347.436 178.56l41.513-97.196L1214.714-125 1322.7 164.69z" fill="#bda58f"/><path d="M1207.926 1275.445l-22.366 98.72-193.686-27.852 244.161-93.899z" fill="#f4ada8"/><path d="M1291.085 1683.594l5.556 178.828L1192.987 2047l208.953-264.977z" fill="#fbc6af"/><path d="M1574.18 1695.313l-116.895-164.063-116.894 195.313z" fill="#e0ae70"/><path d="M363.3 74.532c39.374-7.05 53.471 14.39 31.488 47.887-21.983 33.497-71.723 66.367-111.096 73.417-39.373 7.05-53.47-14.39-31.487-47.887S323.926 81.582 363.3 74.532" fill="#d9b7a7"/><path d="M572.6 456.666l-28.266 78.503 89.868 19.357 14.197-103.899z" fill="#785041"/><path d="M1815.762 1375l296.133 46.875L1574.18 1125z" fill="#ffdb82"/><path d="M1084.19 1643.54c-28.827 26.296-82.708 39.398-120.348 29.257-37.64-10.14-44.786-39.68-15.96-65.985 28.827-26.296 82.707-39.398 120.347-29.257 37.64 10.14 44.786 39.68 15.96 65.984" fill="#6c1800"/><path d="M1137.298 1542.594l222.42-287.532 98.238-359.343 17.448 311.156z" fill="#f7a27d"/><path d="M1917.343 452.87c-24.96-32.253-13.918-68.982 24.665-82.036 38.583-13.054 90.095 2.51 115.063 34.762 24.961 32.252 13.919 68.98-24.664 82.035-38.583 13.054-90.095-2.51-115.064-34.761" fill="#dcd9ae"/><path d="M561.648-104.96c30.433 57.967 30.433 151.953 0 209.92-30.434 57.97-79.776 57.97-110.21 0-30.433-57.967-30.433-151.953 0-209.92 30.434-57.97 79.776-57.97 110.21 0" fill="#f4f8fa"/><path d="M1928.121 604.22l18.563 102.646 165.21-7.26V479.984z" fill="#e6e2b8"/><path d="M832.539 972.016c50.693-20.008 70.277 2.437 43.734 50.14-26.535 47.696-89.144 102.594-139.84 122.602-50.695 20.015-70.276-2.438-43.737-50.133 26.539-47.703 89.15-102.594 139.843-122.61" fill="#dd968d"/><path d="M381.856 617.188h132.48v203.125h-132.48z" fill="#bb9870"/><path d="M1073.03 1188.781c25.023-23.36 71.92-34.523 104.753-24.937 32.824 9.586 39.152 36.289 14.128 59.648-25.023 23.36-71.92 34.524-104.753 24.938-32.824-9.586-39.152-36.29-14.128-59.649" fill="#d7825d"/><path d="M1518.289 954.469c12.18 12.203 12.18 31.984 0 44.187-12.173 12.211-31.905 12.211-44.077 0-12.18-12.203-12.18-31.984 0-44.187 12.172-12.211 31.904-12.211 44.077 0" fill="#f54600"/><path d="M1228.507 869.977l-13.178 28.32-105.945-49.524 13.178-28.32z" fill="#591c00"/><path d="M1597.559 640.625h70.137v335.938h-70.137z" fill="#ffe5b2"/><path d="M1447.614 1004.055l178.124-485.22-118.726 90.056 1.442 329.476z" fill="#f2d788"/><path d="M1524.75 1727.906c24.344 12.203 24.344 31.985 0 44.188-24.346 12.21-63.825 12.21-88.17 0-24.346-12.203-24.346-31.985 0-44.188 24.345-12.21 63.824-12.21 88.17 0" fill="#ffdebd"/><path d="M255.146 699.77c-46.389-12.722-80.223-61.938-75.57-109.925 4.652-47.987 46.029-76.575 92.417-63.853 46.389 12.723 80.223 61.938 75.57 109.925-4.652 47.988-46.029 76.575-92.417 63.853" fill="#f6b17d"/><path d="M1396.874 1795.227l429.79 312.226-662.971-33.898 245.79-175.516z" fill="#3f282e"/><path d="M1759.481 300.504c33.479 15.255 33.479 39.987 0 55.242-33.478 15.256-87.749 15.256-121.227 0-33.479-15.255-33.479-39.987 0-55.242 33.478-15.256 87.749-15.256 121.227 0" fill="#a99649"/><path d="M1248.691 90.904c-9.843-21.771-16.404-58.744-14.65-82.582 1.745-23.837 11.135-25.512 20.97-3.74 9.843 21.77 16.404 58.744 14.659 82.581-1.746 23.838-11.144 25.512-20.979 3.74" fill="#806334"/><path d="M1075.017 1416.594l-102.034 23.172 74.455-88.508 61.182 39.375z" fill="#d6816b"/><path d="M1917.07 234.375l-7.792 85.938 202.617 70.312z" fill="#b8ad5b"/><path d="M634.458 894.648c6.088 36.61 6.088 95.97 0 132.579-6.086 36.617-15.955 36.617-22.041 0-6.087-36.61-6.087-95.97 0-132.579 6.086-36.617 15.955-36.617 22.041 0" fill="#dc9f8a"/><path d="M561.064 1131.96c-9.033 43.157-17.824 42.423-19.633-1.632-1.81-44.055 4.047-114.758 13.08-157.914 9.035-43.156 17.825-42.422 19.634 1.633 1.81 44.062-4.047 114.758-13.08 157.914" fill="#ea998c"/><path d="M499.739 947.5l97.713-116.773-244.304 122.328 149.743 68.93z" fill="#dab488"/><path d="M600.059 875H553.3v31.25h46.758z" fill="#3d1100"/><path d="M1519.933 703.75c9.024 38.748-11.308 53.645-45.402 33.273-34.094-20.37-69.045-68.296-78.07-107.045-9.016-38.748 11.308-53.645 45.402-33.274 34.094 20.372 69.046 68.298 78.07 107.046" fill="#b17d63"/><path d="M1038.32 815.664l103.381 11.203-86.229 85.711 49.883-187.012z" fill="#c56240"/><path d="M1396.96 816.492l-27.93 72.938-7.279-2.797 27.93-72.938z" fill="#280000"/><path d="M1475.264 412.248L1315.89 178.795l-161.93-31.043 171.305 149.857z" fill="#f0d393"/><path d="M1885.899 1570.313l163.652-101.563 62.344 367.188z" fill="#ffd554"/><path d="M1228.351 1224.227l3.414 7.023-91.053 44.523-3.414-7.023z" fill="#3f0700"/><path d="M695.79 1892.148c9.833 33.54-4.903 43.844-32.913 23.032-28.01-20.82-58.687-64.883-68.52-98.422-9.832-33.54 4.904-43.852 32.914-23.031 28.01 20.82 58.687 64.882 68.52 98.421" fill="#dfb2a1"/><path d="M891.142 193.429l-98.714 60.826-75.633-14.021L654.53 46.083z" fill="#e6c3a7"/><path d="M116.895 1664.063l350.683-359.376-568.887 328.126z" fill="#e4b057"/><path d="M485.934 2048.844c-51.511 35.586-112.962 17.578-137.255-40.211-24.292-57.79-2.228-133.477 49.283-169.063 51.512-35.578 112.962-17.578 137.255 40.211 24.293 57.79 2.228 133.485-49.283 169.063" fill="#382429"/><path d="M171.725 1266.96l6.822-175.085-186.893 125.46 65.988 184.024z" fill="#f4c66d"/><path d="M1235.334 242.179l107.099 89.337-252.18-5.786 172.504 52.057z" fill="#865137"/><path d="M800.696 1242.648l4.357-6.476 77.532 52.43-4.356 6.476z" fill="#1e0000"/><path d="M-124.688 546.875L132.48 437.5l-257.168-148.438z" fill="#b86b4b"/><path d="M687.84 1346.531c-20.268-53.523-4.113-63.945 36.084-23.281s89.21 117.016 109.48 170.54c20.27 53.515 4.114 63.944-36.082 23.28-40.198-40.664-89.215-117.015-109.483-170.539" fill="#a56a53"/><path d="M-121.34 1868.352l137.134-46.485-140.482-305.422 266.31 264.985z" fill="#e2ca8e"/><path d="M916.305 1096.742c-25.896 35.899-34.133 31.438-18.415-9.96 15.727-41.4 49.462-104.063 75.358-139.962 25.896-35.898 34.134-31.437 18.415 9.961-15.726 41.407-49.462 104.063-75.358 139.961" fill="#fab6b0"/><path d="M1722.246 390.625l-225.996 31.25-7.793 140.625z" fill="#cbcc63"/><path d="M522.712 1909.531c-29.209 42.18-36.949 37.938-17.288-9.476 19.662-47.414 59.279-120.047 88.488-162.235 29.21-42.18 36.95-37.937 17.288 9.477-19.661 47.422-59.278 120.055-88.488 162.234" fill="#462921"/><path d="M1433.906 703.125h31.172v93.75h-31.172z" fill="#8e3807"/><path d="M681.63 1292.594l19.643-68.555 185.162-157.273-161.083 53.945z" fill="#a14228"/><path d="M1560.246 1082.422l-48.121-149.469 599.77 307.703-512.365-157.062z" fill="#fdd185"/><path d="M1343.703 1313.54l-81.865 69.585-61.838-238.39 47.312 25.57z" fill="#d98668"/><path d="M771.504 1906.25L662.402 1875l38.965-382.813z" fill="#d29c8b"/><path d="M857.725 1653.71l125.39 250.54 13.045-206.367-259.873-173.914z" fill="#8e5535"/><path d="M1332.598 828.125h15.586v70.313h-15.586z" fill="#ffd7be"/><path d="M101.309 1070.313l-171.446 171.874 85.723-234.374z" fill="#ac9c63"/><path d="M818.262 976.563l-163.653 156.25 31.172-218.75z" fill="#e9b1a5"/><path d="M1781.255 1745.633l125.552 10.531-79.465 111.305-55.735-19.211z" fill="#e9d3b1"/><path d="M704.612 445.195l2.089 84.3 443.993 11.884-133.587-82.59z" fill="#ffdbd6"/><path d="M1436.463 652.932l-38.731 142.6-54.014-399.953 116.677 331.279z" fill="#c28271"/><path d="M1438.084 411.612c15.211 48.815 15.211 127.96 0 176.776-15.22 48.816-39.893 48.816-55.112 0-15.212-48.815-15.212-127.96 0-176.776 15.22-48.816 39.892-48.816 55.112 0" fill="#9c6957"/><path d="M1693.327 1273.594c43.96 44.328 30.088 70.039-30.985 57.422-61.074-12.625-146.22-58.79-190.18-103.125-43.96-44.329-30.096-70.04 30.977-57.422 61.074 12.625 146.22 58.789 190.188 103.125" fill="#ffeec1"/><path d="M1358.813 604.636c27.393 45.765 27.393 119.963 0 165.728-27.392 45.761-71.796 45.761-99.189 0-27.392-45.765-27.392-119.963 0-165.728 27.393-45.765 71.797-45.765 99.19 0" fill="#ffcfb7"/><path d="M891.313 1475.117l211.283 38.516 118.383-61.664-28.95-46.586z" fill="#f2b9b4"/></g></svg>
