<svg version="1.1" width="1995" height="2000" xmlns="http://www.w3.org/2000/svg">
<rect x="0" y="0" width="1995" height="2000" fill="#d5a87c" />
<g transform="scale(7.79297, 7.8125)">
<path d="M 38.7061 242.302 L -14.3729 271 L 100.524 271 L 73.8018 228.644 Z" fill="#000000" fill-opacity="0.501961" />
<path d="M 187 228 L 152 271 L 271 266 Z" fill="#000000" fill-opacity="0.501961" />
<path d="M 32 63 L -2 -16 L 153 2 Z" fill="#fff8fd" fill-opacity="0.501961" />
<path d="M 261.891 145.109 C 283.37 166.588, 283.37 201.412, 261.891 222.891 C 240.412 244.37, 205.588 244.37, 184.109 222.891 C 162.63 201.412, 162.63 166.588, 184.109 145.109 C 205.588 123.63, 240.412 123.63, 261.891 145.109" fill="#ffffa1" fill-opacity="0.501961" />
<path d="M 128.247 271 L 138.057 225.778 L 154.185 199.968 L 90.2821 184.843 Z" fill="#741a0b" fill-opacity="0.501961" />
<path d="M 80.5777 113.464 C 55.9334 110.536, 55.9068 105.573, 80.5181 102.38 C 105.13 99.1869, 145.059 98.9723, 169.703 101.901 C 194.348 104.829, 194.374 109.792, 169.763 112.985 C 145.152 116.178, 105.222 116.393, 80.5777 113.464" fill="#641310" fill-opacity="0.501961" />
<path d="M 163.041 69.8612 C 177.539 82.256, 173.954 94.2612, 155.033 96.6756 C 136.112 99.09, 109.02 90.9993, 94.5215 78.6045 C 80.023 66.2097, 83.6083 54.2045, 102.529 51.7901 C 121.45 49.3757, 148.542 57.4664, 163.041 69.8612" fill="#ffeeff" fill-opacity="0.501961" />
<path d="M 156.113 143.808 C 173.296 148.884, 173.296 157.116, 156.113 162.192 C 138.93 167.269, 111.07 167.269, 93.8873 162.192 C 76.7042 157.116, 76.7042 148.884, 93.8873 143.808 C 111.07 138.731, 138.93 138.731, 156.113 143.808" fill="#90130b" fill-opacity="0.501961" />
<path d="M 116 22 L 185 45 L 75 49 Z" fill="#5c2120" fill-opacity="0.501961" />
<path d="M 76 129 L 86 40 L 62 85 Z" fill="#4f2219" fill-opacity="0.501961" />
<path d="M -16 257 L 95 215 L 53 96 Z" fill="#ffd66b" fill-opacity="0.501961" />
<path d="M 217.607 72.3812 C 223.464 100.889, 223.464 147.111, 217.607 175.619 C 211.749 204.127, 202.251 204.127, 196.393 175.619 C 190.536 147.111, 190.536 100.889, 196.393 72.3812 C 202.251 43.8729, 211.749 43.8729, 217.607 72.3812" fill="#fffca2" fill-opacity="0.501961" />
<path d="M 86.3174 270.143 L 74.6706 220.149 L 63.5583 230.535 L -16 271 Z" fill="#120015" fill-opacity="0.501961" />
<path d="M -4 143 L 38 133 L -16 -16 Z" fill="#a16246" fill-opacity="0.501961" />
<path d="M 170 40 L 188 131 L 194 61 Z" fill="#924d2b" fill-opacity="0.501961" />
<path d="M 102.551 218.958 L 74.4863 155.923 L 85.4489 151.042 L 113.514 214.077 Z" fill="#873c23" fill-opacity="0.501961" />
<path d="M 133.95 114.101 C 136.683 119.568, 136.683 128.432, 133.95 133.899 C 131.216 139.367, 126.784 139.367, 124.05 133.899 C 121.317 128.432, 121.317 119.568, 124.05 114.101 C 126.784 108.633, 131.216 108.633, 133.95 114.101" fill="#fff4ff" fill-opacity="0.501961" />
<path d="M 164 262 L 181 232 L 269 263 Z" fill="#1f0926" fill-opacity="0.501961" />
<path d="M 170.013 23.3318 C 158.972 -22.7544, 188.072 -54.813, 235.009 -48.2732 C 281.945 -41.7335, 328.946 0.92821, 339.987 47.0143 C 351.028 93.1004, 321.928 125.159, 274.991 118.619 C 228.055 112.08, 181.054 69.4179, 170.013 23.3318" fill="#d5d57d" fill-opacity="0.501961" />
<path d="M 127 218 L 107 203 L 161 193 Z" fill="#6e0e00" fill-opacity="0.501961" />
<path d="M 135 229 L 222 209 L 174 139 Z" fill="#ffae64" fill-opacity="0.501961" />
<path d="M 249.788 225.862 L 153.517 131.094 L 169.238 103.342 L 230.465 183.372 Z" fill="#ffd7b2" fill-opacity="0.501961" />
<path d="M 96 164 L 111 201 L 181 170 Z" fill="#f7a5ae" fill-opacity="0.501961" />
<path d="M 185.3 67.7751 L 118.846 49.4186 L 141.48 21.7929 L 179.848 43.1556 Z" fill="#a2604c" fill-opacity="0.501961" />
<path d="M 122.146 32.0124 L 94.6062 33.4357 L 73.443 57.1245 L 77.7565 61.7396 Z" fill="#582817" fill-opacity="0.501961" />
<path d="M 80.3548 4.26079 C 81.525 16.3482, 74.0777 31.2873, 63.7207 37.6283 C 53.3637 43.9692, 44.019 39.3108, 42.8488 27.2234 C 41.6785 15.136, 49.1259 0.196857, 59.4829 -6.1441 C 69.8399 -12.485, 79.1845 -7.82662, 80.3548 4.26079" fill="#eff9ff" fill-opacity="0.501961" />
<path d="M 90.0311 67.9712 C 98.6703 67.1395, 107.346 73.2995, 109.41 81.7299 C 111.473 90.1603, 106.142 97.6687, 97.5025 98.5003 C 88.8632 99.332, 80.1872 93.172, 78.124 84.7416 C 76.0609 76.3112, 81.3918 68.8028, 90.0311 67.9712" fill="#ffc4ca" fill-opacity="0.501961" />
<path d="M 39.0089 193.273 C 25.3612 202.121, 1.30165 207.067, -14.7297 204.32 C -30.761 201.573, -32.6934 192.174, -19.0458 183.326 C -5.39811 174.477, 18.6615 169.531, 34.6928 172.278 C 50.7242 175.025, 52.6565 184.425, 39.0089 193.273" fill="#f19a37" fill-opacity="0.501961" />
<path d="M 88.7092 103.047 L 67.72 133.079 L 64.6911 123.1 L 81.3214 104.531 Z" fill="#710c05" fill-opacity="0.501961" />
<path d="M 178 104 L 175 58 L 139 90 Z" fill="#ffd1c3" fill-opacity="0.501961" />
<path d="M 177 36 L 115 12 L 195 18 Z" fill="#ffe7a9" fill-opacity="0.501961" />
<path d="M 151.699 98.7164 L 188.384 146.071 L 198.784 123.175 L 192.57 120.246 Z" fill="#f88054" fill-opacity="0.501961" />
<path d="M 135.971 106.879 C 145.343 108.05, 145.343 109.95, 135.971 111.121 C 126.598 112.293, 111.402 112.293, 102.029 111.121 C 92.6569 109.95, 92.6569 108.05, 102.029 106.879 C 111.402 105.707, 126.598 105.707, 135.971 106.879" fill="#2f0000" fill-opacity="0.501961" />
<path d="M 202 7 L 263 125 L 231 143 Z" fill="#c1bc51" fill-opacity="0.501961" />
<path d="M 200.859 151.119 L 206.853 194.352 L 257.327 191.338 L 265.629 151.804 Z" fill="#fff4bb" fill-opacity="0.501961" />
<path d="M 68 92 L 29 -16 L -16 21 Z" fill="#e8b297" fill-opacity="0.501961" />
<path d="M 95 31 L 150 17 L 150 -16 Z" fill="#f8deb9" fill-opacity="0.501961" />
<path d="M 143.397 143.985 L 141.031 165.279 L 180.164 116.292 L 60.7311 138.346 Z" fill="#f19ea1" fill-opacity="0.501961" />
<path d="M 133 271 L 174 180 L 174 244 Z" fill="#ffc6ab" fill-opacity="0.501961" />
<path d="M 227.46 242.592 C 212.742 227.462, 210.71 201.241, 222.921 184.024 C 235.132 166.808, 256.961 165.116, 271.679 180.246 C 286.396 195.376, 288.428 221.597, 276.218 238.814 C 264.007 256.03, 242.177 257.722, 227.46 242.592" fill="#fede84" fill-opacity="0.501961" />
<path d="M 72 130 L 91 221 L -16 155 Z" fill="#ffc773" fill-opacity="0.501961" />
<path d="M 224.542 -6.86513 C 227.549 -14.5496, 235.387 -16.8332, 242.051 -11.9655 C 248.714 -7.09792, 251.678 3.07759, 248.671 10.7621 C 245.665 18.4466, 237.826 20.7301, 231.163 15.8625 C 224.5 10.9949, 221.536 0.819369, 224.542 -6.86513" fill="#fbd1d1" fill-opacity="0.501961" />
<path d="M 175 219 L 195 262 L 190 230 Z" fill="#3c242d" fill-opacity="0.501961" />
<path d="M 91 243 L 88 189 L 149 265 Z" fill="#ba817e" fill-opacity="0.501961" />
<path d="M -16 57 L 72 60 L 56 144 Z" fill="#db9f79" fill-opacity="0.501961" />
<path d="M 185.828 93.565 C 187.391 100.985, 187.391 113.015, 185.828 120.435 C 184.266 127.855, 181.734 127.855, 180.172 120.435 C 178.609 113.015, 178.609 100.985, 180.172 93.565 C 181.734 86.145, 184.266 86.145, 185.828 93.565" fill="#983f01" fill-opacity="0.501961" />
<path d="M 135.782 217.878 L 174.457 161.763 L 124.298 102.506 L 176.461 181.149 Z" fill="#d36939" fill-opacity="0.501961" />
<path d="M 184 109 L 237 177 L 224 100 Z" fill="#ffd579" fill-opacity="0.501961" />
<path d="M 100.633 161.99 L 101.673 157.099 L 115.367 160.01 L 114.327 164.901 Z" fill="#0a0000" fill-opacity="0.501961" />
<path d="M 153.536 -16.3306 C 159.472 -9.23764, 165.945 3.82384, 167.995 12.843 C 170.045 21.8621, 166.894 23.4236, 160.958 16.3306 C 155.022 9.23764, 148.549 -3.82384, 146.499 -12.843 C 144.45 -21.8621, 147.6 -23.4236, 153.536 -16.3306" fill="#837544" fill-opacity="0.501961" />
<path d="M 105.021 147.877 L 100.828 145.154 L 120.979 114.123 L 125.172 116.846 Z" fill="#9c4f4e" fill-opacity="0.501961" />
<path d="M 162.745 83.7984 C 173.082 97.8443, 168.01 104.88, 151.416 99.5141 C 134.823 94.1477, 112.991 78.4109, 102.654 64.365 C 92.317 50.3191, 97.3889 43.2829, 113.982 48.6493 C 130.576 54.0157, 152.408 69.7524, 162.745 83.7984" fill="#ffd0cd" fill-opacity="0.501961" />
<path d="M 82 50 L 8 39 L 17 12 Z" fill="#f1ddd0" fill-opacity="0.501961" />
<path d="M 132 111 L 145 142 L 120 137 Z" fill="#ffdfdc" fill-opacity="0.501961" />
<path d="M 111.089 106.391 L 167.573 100.255 L 123.065 89.5504 L 121.999 105.026 Z" fill="#e38076" fill-opacity="0.501961" />
<path d="M 87.2601 215.316 L 76.0282 225.763 L 79.189 242.857 L 108.293 271 Z" fill="#d4aaae" fill-opacity="0.501961" />
<path d="M 132.442 148.809 C 133.891 153.21, 131.361 157.396, 126.792 158.159 C 122.222 158.922, 117.342 155.973, 115.893 151.572 C 114.444 147.171, 116.974 142.985, 121.544 142.222 C 126.114 141.459, 130.993 144.408, 132.442 148.809" fill="#842506" fill-opacity="0.501961" />
<path d="M 212.012 133.499 L 204.414 126.308 L 190.612 66.7837 L 220.723 86.6458 Z" fill="#ffeca7" fill-opacity="0.501961" />
<path d="M 136 98 L 155 98 L 155 115 L 136 115 Z" fill="#8c3c22" fill-opacity="0.501961" />
<path d="M 65.9203 209.101 C 78.0266 214.568, 78.0266 223.432, 65.9203 228.899 C 53.8141 234.367, 34.1859 234.367, 22.0797 228.899 C 9.97344 223.432, 9.97344 214.568, 22.0797 209.101 C 34.1859 203.633, 53.8141 203.633, 65.9203 209.101" fill="#f8d287" fill-opacity="0.501961" />
<path d="M -0.903514 98.2426 C 10.5558 98.1412, 23.5489 106.579, 28.1173 117.089 C 32.6857 127.598, 27.0996 136.201, 15.6402 136.302 C 4.18091 136.403, -8.81216 127.966, -13.3806 117.456 C -17.949 106.946, -12.3628 98.3441, -0.903514 98.2426" fill="#936e4f" fill-opacity="0.501961" />
<path d="M 74 109 L 47 128 L 47 104 Z" fill="#e4c4a5" fill-opacity="0.501961" />
<path d="M 187 150 L 166 194 L 214 193 Z" fill="#ffe38e" fill-opacity="0.501961" />
<path d="M -10.417 240.219 C -15.6592 235.255, -14.0931 230.579, -6.91888 229.773 C 0.255303 228.968, 10.3208 232.338, 15.563 237.302 C 20.8052 242.266, 19.239 246.942, 12.0648 247.748 C 4.89064 248.553, -5.17483 245.182, -10.417 240.219" fill="#aaae3c" fill-opacity="0.501961" />
<path d="M 83.3334 24.9487 C 99.9592 13.8381, 103.789 17.858, 91.8879 33.9273 C 79.9866 49.9966, 56.8608 72.0303, 40.2349 83.1409 C 23.6091 94.2515, 19.779 90.2317, 31.6803 74.1623 C 43.5816 58.093, 66.7075 36.0593, 83.3334 24.9487" fill="#edc59d" fill-opacity="0.501961" />
<path d="M 29.1197 16.0047 C 23.6138 13.4804, 19.4655 6.53414, 19.854 0.489708 C 20.2426 -5.55473, 25.0209 -8.40841, 30.5268 -5.88417 C 36.0326 -3.35993, 40.181 3.58635, 39.7925 9.63078 C 39.4039 15.6752, 34.6255 18.5289, 29.1197 16.0047" fill="#d9926f" fill-opacity="0.501961" />
<path d="M 174 104 L 178 104 L 178 112 L 174 112 Z" fill="#090000" fill-opacity="0.501961" />
<path d="M 279.856 69.9292 L 235.328 108.637 L 226.144 98.0708 L 270.672 59.3633 Z" fill="#e5dfa5" fill-opacity="0.501961" />
<path d="M 75.5355 90.636 C 77.4882 94.1508, 77.4882 99.8492, 75.5355 103.364 C 73.5829 106.879, 70.4171 106.879, 68.4645 103.364 C 66.5118 99.8492, 66.5118 94.1508, 68.4645 90.636 C 70.4171 87.1213, 73.5829 87.1213, 75.5355 90.636" fill="#541e00" fill-opacity="0.501961" />
<path d="M 191.344 130.995 L 189.005 123.344 L 196.656 121.005 L 198.995 128.656 Z" fill="#f82500" fill-opacity="0.501961" />
<path d="M 104.21 276.615 L 53.6388 242.504 L 59.7899 233.385 L 110.361 267.496 Z" fill="#220810" fill-opacity="0.501961" />
<path d="M 195.116 30.3331 L 210.009 54.7442 L 271 38.4382 L 230.374 38.5223 Z" fill="#b39f5b" fill-opacity="0.501961" />
<path d="M 133.485 174.464 C 138.172 176.417, 138.172 179.583, 133.485 181.536 C 128.799 183.488, 121.201 183.488, 116.515 181.536 C 111.828 179.583, 111.828 176.417, 116.515 174.464 C 121.201 172.512, 128.799 172.512, 133.485 174.464" fill="#be6652" fill-opacity="0.501961" />
<path d="M 151.408 159.984 C 154.547 160.117, 154.668 161.008, 151.678 161.973 C 148.688 162.939, 143.72 163.614, 140.58 163.48 C 137.441 163.347, 137.32 162.456, 140.31 161.491 C 143.3 160.525, 148.269 159.851, 151.408 159.984" fill="#4a0000" fill-opacity="0.501961" />
<path d="M 126 219 L 106 204 L 153 201 Z" fill="#722300" fill-opacity="0.501961" />
<path d="M 96.0321 35.6688 L 130.319 23.8532 L 157.259 29.0187 L 172.105 40.2244 Z" fill="#936754" fill-opacity="0.501961" />
<path d="M 123.914 120.337 L 124.325 114.209 L 119.304 96.4647 L 101.053 97.8802 Z" fill="#86392c" fill-opacity="0.501961" />
<path d="M 249.223 70.3093 C 246.276 78.2651, 237.65 87.6142, 229.956 91.191 C 222.263 94.7677, 218.415 91.2178, 221.363 83.2619 C 224.31 75.306, 232.936 65.9569, 240.63 62.3802 C 248.324 58.8034, 252.171 62.3534, 249.223 70.3093" fill="#b5b741" fill-opacity="0.501961" />
<path d="M 87.4205 181.248 L 81.2624 165.768 L 118.278 208.581 L 103.211 202.746 Z" fill="#713d1e" fill-opacity="0.501961" />
<path d="M 45.1852 177.426 L 77.6506 151.328 L 97.7125 102.986 L 85.8077 107.666 Z" fill="#d38a6f" fill-opacity="0.501961" />
<path d="M 77.8792 64.5384 C 73.2917 66.4583, 71.0933 64.2809, 72.969 59.6752 C 74.8447 55.0695, 80.0841 49.7794, 84.6716 47.8595 C 89.2591 45.9396, 91.4574 48.117, 89.5817 52.7227 C 87.7061 57.3284, 82.4666 62.6185, 77.8792 64.5384" fill="#61382b" fill-opacity="0.501961" />
<path d="M 166.125 112.96 L 193.28 196.678 L 175.094 107.955 L 155.346 101.256 Z" fill="#fac095" fill-opacity="0.501961" />
<path d="M 155 186 L 106 196 L 164 158 Z" fill="#fabaaf" fill-opacity="0.501961" />
<path d="M 136.461 250.016 L 129.393 227.309 L 154.433 196.948 L 186.191 151.431 Z" fill="#ea844f" fill-opacity="0.501961" />
<path d="M 257.114 260.269 L 173.229 234.193 L 220.154 241.736 L 227.203 244.983 Z" fill="#5a4547" fill-opacity="0.501961" />
<path d="M 244.971 198.64 C 250.707 191.503, 257.676 192.768, 260.537 201.467 C 263.397 210.165, 261.066 223.002, 255.33 230.139 C 249.594 237.277, 242.625 236.011, 239.765 227.313 C 236.904 218.615, 239.235 205.777, 244.971 198.64" fill="#ebcd5c" fill-opacity="0.501961" />
<path d="M 11.0246 257.824 L 64.4643 229.169 L 85.4007 217.688 L 59.1312 242.934 Z" fill="#513d37" fill-opacity="0.501961" />
<path d="M 113.311 117.464 C 121.708 116.743, 122.939 120.107, 116.061 124.977 C 109.182 129.847, 96.7995 134.38, 88.4026 135.101 C 80.0056 135.822, 78.7745 132.458, 85.6527 127.588 C 92.5309 122.718, 104.914 118.185, 113.311 117.464" fill="#e2a9af" fill-opacity="0.501961" />
<path d="M 205.364 173.333 C 204.549 167.186, 208.825 163.144, 214.916 164.305 C 221.006 165.466, 226.605 171.39, 227.421 177.537 C 228.237 183.683, 223.961 187.725, 217.87 186.564 C 211.779 185.403, 206.18 179.479, 205.364 173.333" fill="#fff8e7" fill-opacity="0.501961" />
<path d="M 185 73 L 98 45 L 158 46 Z" fill="#dd8365" fill-opacity="0.501961" />
<path d="M 192.536 87.8076 C 194.488 92.8844, 194.488 101.116, 192.536 106.192 C 190.583 111.269, 187.417 111.269, 185.464 106.192 C 183.512 101.116, 183.512 92.8844, 185.464 87.8076 C 187.417 82.7308, 190.583 82.7308, 192.536 87.8076" fill="#bb5d0e" fill-opacity="0.501961" />
<path d="M 202.579 -14.3831 L 235.855 24.3212 L 210.839 18.4052 L 202.915 -16 Z" fill="#b6916b" fill-opacity="0.501961" />
<path d="M 218.285 211.717 L 225.965 216.54 L 243.497 212.374 L 230.766 204.03 Z" fill="#fffad1" fill-opacity="0.501961" />
<path d="M 95.8429 150.369 C 92.0021 152.403, 91.2358 151.425, 94.1312 148.184 C 97.0267 144.942, 102.487 140.665, 106.328 138.63 C 110.169 136.595, 110.935 137.573, 108.04 140.815 C 105.144 144.057, 99.6836 148.334, 95.8429 150.369" fill="#881d01" fill-opacity="0.501961" />
<path d="M -4 101 L -16 35 L 34 60 Z" fill="#ca7f5f" fill-opacity="0.501961" />
<path d="M 43.2856 144.383 C 50.9041 146.042, 53.4516 152.562, 48.9756 158.946 C 44.4997 165.33, 34.6953 169.161, 27.0769 167.502 C 19.4584 165.843, 16.9109 159.323, 21.3869 152.939 C 25.8628 146.555, 35.6672 142.724, 43.2856 144.383" fill="#ffcd99" fill-opacity="0.501961" />
<path d="M 181.833 79.7212 L 102.986 52.1608 L 92.4419 90.1723 L 125.067 95.9984 Z" fill="#ffd2cb" fill-opacity="0.501961" />
<path d="M 160 260 L 172 222 L 180 230 Z" fill="#f7cfd5" fill-opacity="0.501961" />
<path d="M 80 68 L 87 116 L 95 49 Z" fill="#eab3a7" fill-opacity="0.501961" />
<path d="M 65 126 L 99 161 L 101 193 Z" fill="#c47663" fill-opacity="0.501961" />
<path d="M 38.5777 63.389 C 30.9875 63.7467, 22.3272 58.4101, 19.2344 51.4694 C 16.1415 44.5287, 19.7873 38.6122, 27.3775 38.2545 C 34.9677 37.8968, 43.6281 43.2334, 46.7209 50.1741 C 49.8138 57.1148, 46.168 63.0313, 38.5777 63.389" fill="#fcbc84" fill-opacity="0.501961" />
<path d="M 118.778 38.8787 C 123.074 40.0503, 123.074 41.9497, 118.778 43.1213 C 114.482 44.2929, 107.518 44.2929, 103.222 43.1213 C 98.9261 41.9497, 98.9261 40.0503, 103.222 38.8787 C 107.518 37.7071, 114.482 37.7071, 118.778 38.8787" fill="#5b1d07" fill-opacity="0.501961" />
<path d="M 76 123 L 51 60 L 47 100 Z" fill="#c09c75" fill-opacity="0.501961" />
<path d="M 84.435 178.565 C 91.855 185.985, 91.855 198.015, 84.435 205.435 C 77.0151 212.855, 64.9849 212.855, 57.565 205.435 C 50.145 198.015, 50.145 185.985, 57.565 178.565 C 64.9849 171.145, 77.0151 171.145, 84.435 178.565" fill="#ffd66d" fill-opacity="0.501961" />
<path d="M -9 151 L 20 195 L -9 201 Z" fill="#db8933" fill-opacity="0.501961" />
<path d="M 117 132 L 111 156 L 101 151 Z" fill="#ce9081" fill-opacity="0.501961" />
<path d="M 229.649 245.923 L 193.707 232.603 L 259.313 221.873 L 222.78 217.304 Z" fill="#ccc474" fill-opacity="0.501961" />
<path d="M 78 106 L 83 106 L 83 114 L 78 114 Z" fill="#1b0405" fill-opacity="0.501961" />
<path d="M 43.4696 231.763 L 23.9822 227.264 L 32.5304 190.237 L 52.0178 194.736 Z" fill="#fdd594" fill-opacity="0.501961" />
<path d="M 149.652 191.18 C 156.805 191.569, 157.275 194.193, 150.702 197.041 C 144.13 199.889, 133.003 201.882, 125.851 201.494 C 118.698 201.105, 118.228 198.481, 124.801 195.633 C 131.373 192.785, 142.5 190.792, 149.652 191.18" fill="#c27564" fill-opacity="0.501961" />
<path d="M 1.71316 -14.8767 L 14.6815 -13.9699 L 10.2868 48.8767 L -2.6815 47.9699 Z" fill="#cd9990" fill-opacity="0.501961" />
<path d="M 234 180 L 244 193 L 267 179 Z" fill="#fff3cf" fill-opacity="0.501961" />
<path d="M 134 112 L 169 115 L 154 107 Z" fill="#75310f" fill-opacity="0.501961" />
<path d="M 151 154 L 160 149 L 140 138 Z" fill="#eeab95" fill-opacity="0.501961" />
<path d="M 142.187 131.591 L 164.482 151.665 L 163.813 152.409 L 141.518 132.335 Z" fill="#9a2913" fill-opacity="0.501961" />
<path d="M 271 91 L 219 22 L 271 -6 Z" fill="#d6b799" fill-opacity="0.501961" />
<path d="M 222.203 151.766 C 215.181 155.895, 206.842 153.193, 203.577 145.731 C 200.312 138.269, 203.357 128.872, 210.378 124.743 C 217.399 120.614, 225.738 123.316, 229.003 130.779 C 232.269 138.241, 229.224 147.637, 222.203 151.766" fill="#fdcd72" fill-opacity="0.501961" />
<path d="M 155.627 204.629 L 156.75 183.791 L 144.481 202.929 L 122.496 223.312 Z" fill="#c95c15" fill-opacity="0.501961" />
<path d="M 138.585 124.638 L 201.107 147.384 L 139.985 112.434 L 137.156 100.505 Z" fill="#e8b1a9" fill-opacity="0.501961" />
<path d="M 243 198 L 167 223 L 167 187 Z" fill="#efc670" fill-opacity="0.501961" />
<path d="M 252.196 167.826 C 245.074 166.242, 235.501 160.425, 230.814 154.833 C 226.127 149.241, 228.102 145.992, 235.224 147.576 C 242.346 149.16, 251.919 154.977, 256.606 160.569 C 261.293 166.161, 259.318 169.41, 252.196 167.826" fill="#fff0ca" fill-opacity="0.501961" />
<path d="M 191 116 L 179 108 L 183 118 Z" fill="#7b2700" fill-opacity="0.501961" />
<path d="M 252 101 L 239 142 L 229 110 Z" fill="#afa551" fill-opacity="0.501961" />
<path d="M 175.719 143.035 L 159.905 173.592 L 150.52 208.858 L 177.448 174.902 Z" fill="#f59450" fill-opacity="0.501961" />
<path d="M 66.6974 130.153 L 63.0655 123.025 L 69.3026 119.847 L 72.9345 126.975 Z" fill="#bd0100" fill-opacity="0.501961" />
<path d="M 168.147 218.484 L 182.55 225.004 L 172.055 248.533 L 247.616 271 Z" fill="#483034" fill-opacity="0.501961" />
<path d="M 120.989 26.2141 L 93.3179 22.3645 L 63.4348 76.3256 L 85.2254 -16 Z" fill="#ead4bd" fill-opacity="0.501961" />
<path d="M 128 144 L 132 151 L 145 141 Z" fill="#ce3400" fill-opacity="0.501961" />
<path d="M 135.657 94.0503 C 138.781 96.7839, 138.781 101.216, 135.657 103.95 C 132.533 106.683, 127.467 106.683, 124.343 103.95 C 121.219 101.216, 121.219 96.7839, 124.343 94.0503 C 127.467 91.3166, 132.533 91.3166, 135.657 94.0503" fill="#f69f8f" fill-opacity="0.501961" />
<path d="M 36.8439 101.776 C 41.1026 114.583, 35.1351 119.399, 23.5151 112.534 C 11.8951 105.668, -0.977092 89.7202, -5.23576 76.913 C -9.49444 64.1058, -3.52691 59.2892, 8.09307 66.1548 C 19.7131 73.0204, 32.5852 88.9684, 36.8439 101.776" fill="#d69369" fill-opacity="0.501961" />
<path d="M 94 110 L 110 110 L 110 113 L 94 113 Z" fill="#4c1700" fill-opacity="0.501961" />
<path d="M 32 193 L 66 118 L 63 188 Z" fill="#f2b05f" fill-opacity="0.501961" />
<path d="M 77.913 110.735 L 86.7386 114.006 L 73.5269 139.646 L 73.1495 127.125 Z" fill="#9f604c" fill-opacity="0.501961" />
<path d="M 147.745 215.956 C 153.949 208.292, 160.792 209.864, 163.029 219.467 C 165.267 229.071, 162.051 243.068, 155.847 250.732 C 149.643 258.396, 142.8 256.824, 140.563 247.221 C 138.326 237.618, 141.541 223.62, 147.745 215.956" fill="#ea9e86" fill-opacity="0.501961" />
<path d="M 163.225 36.9403 C 165.628 42.9878, 166.569 53.0688, 165.328 59.4567 C 164.088 65.8446, 161.134 66.1204, 158.732 60.0729 C 156.33 54.0253, 155.388 43.9444, 156.629 37.5565 C 157.869 31.1686, 160.823 30.8927, 163.225 36.9403" fill="#b1602e" fill-opacity="0.501961" />
<path d="M 132.358 106.139 L 140.563 125.47 L 139.642 125.861 L 131.437 106.53 Z" fill="#271b3a" fill-opacity="0.501961" />
<path d="M 141 248 L 141 221 L 105 271 Z" fill="#b57b6a" fill-opacity="0.501961" />
<path d="M 191.315 116.143 L 170.409 97.2309 L 201.506 118.93 L 182.949 123.262 Z" fill="#f6c997" fill-opacity="0.501961" />
<path d="M 221.818 103.559 C 227.779 111.899, 234.896 126.65, 237.715 136.506 C 240.533 146.362, 237.986 147.591, 232.025 139.251 C 226.064 130.911, 218.947 116.161, 216.128 106.305 C 213.31 96.4486, 215.857 95.2194, 221.818 103.559" fill="#f0b158" fill-opacity="0.501961" />
<path d="M 85.9497 202.222 C 88.6834 206.518, 88.6834 213.482, 85.9497 217.778 C 83.2161 222.074, 78.7839 222.074, 76.0503 217.778 C 73.3166 213.482, 73.3166 206.518, 76.0503 202.222 C 78.7839 197.926, 83.2161 197.926, 85.9497 202.222" fill="#ffe88f" fill-opacity="0.501961" />
<path d="M -16 165 L 45 129 L -10 144 Z" fill="#d2ad55" fill-opacity="0.501961" />
<path d="M 190.778 -8.33452 C 195.074 4.55278, 195.074 25.4472, 190.778 38.3345 C 186.482 51.2218, 179.518 51.2218, 175.222 38.3345 C 170.926 25.4472, 170.926 4.55278, 175.222 -8.33452 C 179.518 -21.2218, 186.482 -21.2218, 190.778 -8.33452" fill="#ebcb90" fill-opacity="0.501961" />
<path d="M 37.4719 233.307 L 84.3332 217.179 L -15.0461 271 L 0.75981 253.344 Z" fill="#e3cd6e" fill-opacity="0.501961" />
<path d="M 131.536 114.393 C 133.488 120.251, 133.488 129.749, 131.536 135.607 C 129.583 141.464, 126.417 141.464, 124.464 135.607 C 122.512 129.749, 122.512 120.251, 124.464 114.393 C 126.417 108.536, 129.583 108.536, 131.536 114.393" fill="#ffd6da" fill-opacity="0.501961" />
<path d="M 180 46 L 187 68 L 158 35 Z" fill="#7d5d51" fill-opacity="0.501961" />
<path d="M 271 108.148 L 247.505 109.613 L 271 150.572 L 230.124 148.2 Z" fill="#f0c48d" fill-opacity="0.501961" />
<path d="M 83.3572 219.862 L 72.2425 228.22 L 96.7837 271 L -1.30304 271 Z" fill="#331e23" fill-opacity="0.501961" />
<path d="M 227.558 48.5049 C 231.924 47.1484, 236.233 49.6741, 237.182 54.1463 C 238.131 58.6186, 235.361 63.3437, 230.995 64.7003 C 226.629 66.0568, 222.32 63.5311, 221.371 59.0588 C 220.422 54.5866, 223.192 49.8615, 227.558 48.5049" fill="#f2c493" fill-opacity="0.501961" />
<path d="M 180.551 104.879 L 181.984 108.613 L 175.449 111.121 L 174.016 107.387 Z" fill="#000000" fill-opacity="0.501961" />
<path d="M -0.339144 129.721 L 40.3269 111.771 L 35.1554 126.962 L 22.5745 136.373 Z" fill="#977654" fill-opacity="0.501961" />
<path d="M 135.915 106.053 C 139.953 105.395, 140.114 106.008, 136.275 107.421 C 132.435 108.834, 126.048 110.513, 122.009 111.171 C 117.971 111.829, 117.81 111.217, 121.65 109.803 C 125.49 108.39, 131.876 106.711, 135.915 106.053" fill="#1d0000" fill-opacity="0.501961" />
<path d="M 110.231 45.737 L 171.725 68.6703 L 178.824 105.512 L 144.949 69.5928 Z" fill="#ffc1aa" fill-opacity="0.501961" />
<path d="M 71.4959 153.652 L 78.1636 147.847 L 67.3918 130.523 L 60.4041 138.435 Z" fill="#fbaa98" fill-opacity="0.501961" />
<path d="M 156.599 46.7289 L 138.428 53.5313 L 106.532 26.1274 L 131.298 30.9125 Z" fill="#a67763" fill-opacity="0.501961" />
<path d="M 176 146 L 157 138 L 178 122 Z" fill="#ffcbb6" fill-opacity="0.501961" />
<path d="M 259 263 L 208 215 L 257 230 Z" fill="#ecd199" fill-opacity="0.501961" />
<path d="M 42.8016 51.4088 C 47.0145 42.3531, 56.1918 40.7001, 63.2997 47.7166 C 70.4076 54.7332, 72.7545 67.7623, 68.5416 76.818 C 64.3287 85.8736, 55.1514 87.5267, 48.0435 80.5102 C 40.9356 73.4936, 38.5887 60.4645, 42.8016 51.4088" fill="#dcb385" fill-opacity="0.501961" />
<path d="M 234.858 85.9289 L 241.929 78.8579 L 263.142 100.071 L 256.071 107.142 Z" fill="#cfda64" fill-opacity="0.501961" />
<path d="M 141.142 164.586 C 148.953 165.367, 148.953 166.633, 141.142 167.414 C 133.332 168.195, 120.668 168.195, 112.858 167.414 C 105.047 166.633, 105.047 165.367, 112.858 164.586 C 120.668 163.805, 133.332 163.805, 141.142 164.586" fill="#d36d93" fill-opacity="0.501961" />
<path d="M 79 87 L 87 87 L 87 103 L 79 103 Z" fill="#dc9d8f" fill-opacity="0.501961" />
<path d="M 29.1823 43.9536 L 91.1389 35.7454 L 42.6196 -16 L 44.3989 19.9511 Z" fill="#ebe2dd" fill-opacity="0.501961" />
<path d="M 66.6569 107.343 C 69.781 110.467, 69.781 115.533, 66.6569 118.657 C 63.5327 121.781, 58.4673 121.781, 55.3431 118.657 C 52.219 115.533, 52.219 110.467, 55.3431 107.343 C 58.4673 104.219, 63.5327 104.219, 66.6569 107.343" fill="#eecaa0" fill-opacity="0.501961" />
<path d="M 123.451 199.627 L 133.961 186.984 L 103.092 184.003 L 104.742 190.59 Z" fill="#e2b6ae" fill-opacity="0.501961" />
<path d="M 112.904 208.04 L 113.018 204.448 L 110.096 244.174 L 88.2915 190.019 Z" fill="#ad7153" fill-opacity="0.501961" />
<path d="M 134.868 122.621 C 135.186 116.046, 140.526 112.342, 146.796 114.348 C 153.065 116.354, 157.89 123.311, 157.572 129.886 C 157.255 136.461, 151.914 140.165, 145.645 138.158 C 139.375 136.152, 134.551 129.196, 134.868 122.621" fill="#d79893" fill-opacity="0.501961" />
<path d="M 224 92 L 191 68 L 213 60 Z" fill="#fde07f" fill-opacity="0.501961" />
<path d="M 242 70 L 241 60 L 271 72 Z" fill="#a78b56" fill-opacity="0.501961" />
<path d="M 141.314 159.586 C 147.562 160.367, 147.562 161.633, 141.314 162.414 C 135.065 163.195, 124.935 163.195, 118.686 162.414 C 112.438 161.633, 112.438 160.367, 118.686 159.586 C 124.935 158.805, 135.065 158.805, 141.314 159.586" fill="#ab2d09" fill-opacity="0.501961" />
<path d="M 205.863 108.464 L 188.36 188.912 L 209.341 199.626 L 172.513 182.464 Z" fill="#ffdf9b" fill-opacity="0.501961" />
<path d="M 121.402 111.687 L 118.305 128.688 L 127.22 106.208 L 111.408 114.646 Z" fill="#4e2c2b" fill-opacity="0.501961" />
<path d="M 93.3489 35.0064 C 99.4503 30.8664, 101.569 32.7764, 98.0803 39.2724 C 94.592 45.7684, 86.818 54.3906, 80.7166 58.5306 C 74.6152 62.6706, 72.4969 60.7607, 75.9852 54.2647 C 79.4735 47.7686, 87.2475 39.1464, 93.3489 35.0064" fill="#714a38" fill-opacity="0.501961" />
<path d="M 97 103 L 108 103 L 108 105 L 97 105 Z" fill="#d9a690" fill-opacity="0.501961" />
<path d="M 79.5431 109.261 L 79.0281 108.404 L 88.4569 102.739 L 88.9719 103.596 Z" fill="#1c0000" fill-opacity="0.501961" />
<path d="M 45.1655 218.109 C 43.5732 210.869, 48.2896 204.816, 55.6998 204.591 C 63.11 204.366, 70.408 210.053, 72.0003 217.294 C 73.5925 224.535, 68.8762 230.587, 61.466 230.812 C 54.0558 231.037, 46.7578 225.35, 45.1655 218.109" fill="#efbd6d" fill-opacity="0.501961" />
<path d="M 164.148 110.835 L 145.203 104.846 L 163.351 98.7678 L 152.637 119.084 Z" fill="#ba745d" fill-opacity="0.501961" />
<path d="M 134.021 261.563 C 144.992 269.368, 143.373 272.757, 130.407 269.132 C 117.44 265.508, 98.0352 256.242, 87.0647 248.437 C 76.0942 240.632, 77.7125 237.243, 90.6791 240.868 C 103.646 244.492, 123.051 253.758, 134.021 261.563" fill="#d0aaa6" fill-opacity="0.501961" />
<path d="M 135 24 L 81 22 L 160 -8 Z" fill="#ecceae" fill-opacity="0.501961" />
<path d="M 181 133 L 172 144 L 178 111 Z" fill="#ffd49a" fill-opacity="0.501961" />
<path d="M 88.6001 171.805 L 109.851 209.802 L 85.9795 180.471 L 80.1861 171.054 Z" fill="#81421b" fill-opacity="0.501961" />
<path d="M 206 23 L 229 23 L 229 34 L 206 34 Z" fill="#f7c784" fill-opacity="0.501961" />
<path d="M 178 34 L 229 34 L 229 41 L 178 41 Z" fill="#c3a960" fill-opacity="0.501961" />
<path d="M 122 107 L 135 107 L 135 109 L 122 109 Z" fill="#000000" fill-opacity="0.501961" />
<path d="M 68 131 L 18 144 L 42 122 Z" fill="#f4a364" fill-opacity="0.501961" />
<path d="M 109.437 194.154 L 88.1933 156.618 L 101.495 163.039 L 110.839 165.404 Z" fill="#dca695" fill-opacity="0.501961" />
<path d="M 231.45 216.642 L 243.272 216.852 L 239.755 239.849 L 271 233.484 Z" fill="#d6c76b" fill-opacity="0.501961" />
<path d="M 172.904 22.8557 L 178.231 10.4146 L 155.873 -16 L 169.73 21.0802 Z" fill="#bda58f" fill-opacity="0.501961" />
<path d="M 155.002 163.257 L 152.132 175.893 L 127.278 172.328 L 158.609 160.309 Z" fill="#f4ada8" fill-opacity="0.501961" />
<path d="M 165.673 215.5 L 166.386 238.39 L 153.085 262.016 L 179.898 228.099 Z" fill="#fbc6af" fill-opacity="0.501961" />
<path d="M 202 217 L 187 196 L 172 221 Z" fill="#e0ae70" fill-opacity="0.501961" />
<path d="M 46.6189 9.54008 C 51.6714 8.63769, 53.4804 11.382, 50.6595 15.6696 C 47.8386 19.9572, 41.456 24.1646, 36.4036 25.067 C 31.3512 25.9694, 29.5422 23.2251, 32.3631 18.9375 C 35.184 14.6498, 41.5665 10.4425, 46.6189 9.54008" fill="#d9b7a7" fill-opacity="0.501961" />
<path d="M 73.4764 58.4533 L 69.8494 68.5016 L 81.3813 70.9793 L 83.2031 57.6803 Z" fill="#785041" fill-opacity="0.501961" />
<path d="M 233 176 L 271 182 L 202 144 Z" fill="#ffdb82" fill-opacity="0.501961" />
<path d="M 139.124 210.373 C 135.425 213.739, 128.511 215.416, 123.681 214.118 C 118.851 212.82, 117.934 209.039, 121.633 205.672 C 125.332 202.306, 132.246 200.629, 137.076 201.927 C 141.906 203.225, 142.823 207.006, 139.124 210.373" fill="#6c1800" fill-opacity="0.501961" />
<path d="M 145.939 197.452 L 174.48 160.648 L 187.086 114.652 L 189.325 154.48 Z" fill="#f7a27d" fill-opacity="0.501961" />
<path d="M 246.035 57.9673 C 242.832 53.839, 244.249 49.1377, 249.2 47.4668 C 254.151 45.7959, 260.761 47.788, 263.965 51.9163 C 267.168 56.0446, 265.751 60.7458, 260.8 62.4168 C 255.849 64.0877, 249.239 62.0956, 246.035 57.9673" fill="#dcd9ae" fill-opacity="0.501961" />
<path d="M 72.0711 -13.435 C 75.9763 -6.01507, 75.9763 6.01507, 72.0711 13.435 C 68.1658 20.855, 61.8342 20.855, 57.9289 13.435 C 54.0237 6.01507, 54.0237 -6.01507, 57.9289 -13.435 C 61.8342 -20.855, 68.1658 -20.855, 72.0711 -13.435" fill="#f4f8fa" fill-opacity="0.501961" />
<path d="M 247.418 77.3402 L 249.8 90.4788 L 271 89.5496 L 271 61.4379 Z" fill="#e6e2b8" fill-opacity="0.501961" />
<path d="M 106.832 124.418 C 113.337 121.857, 115.85 124.73, 112.444 130.836 C 109.039 136.941, 101.005 143.968, 94.4996 146.529 C 87.9945 149.091, 85.4818 146.217, 88.8873 140.112 C 92.2928 134.006, 100.327 126.98, 106.832 124.418" fill="#dd968d" fill-opacity="0.501961" />
<path d="M 49 79 L 66 79 L 66 105 L 49 105 Z" fill="#bb9870" fill-opacity="0.501961" />
<path d="M 137.692 152.164 C 140.903 149.174, 146.921 147.745, 151.134 148.972 C 155.346 150.199, 156.158 153.617, 152.947 156.607 C 149.736 159.597, 143.718 161.026, 139.505 159.799 C 135.293 158.572, 134.481 155.154, 137.692 152.164" fill="#d7825d" fill-opacity="0.501961" />
<path d="M 194.828 122.172 C 196.391 123.734, 196.391 126.266, 194.828 127.828 C 193.266 129.391, 190.734 129.391, 189.172 127.828 C 187.609 126.266, 187.609 123.734, 189.172 122.172 C 190.734 120.609, 193.266 120.609, 194.828 122.172" fill="#f54600" fill-opacity="0.501961" />
<path d="M 157.643 111.357 L 155.952 114.982 L 142.357 108.643 L 144.048 105.018 Z" fill="#591c00" fill-opacity="0.501961" />
<path d="M 205 82 L 214 82 L 214 125 L 205 125 Z" fill="#ffe5b2" fill-opacity="0.501961" />
<path d="M 185.759 128.519 L 208.616 66.4108 L 193.381 77.938 L 193.566 120.111 Z" fill="#f2d788" fill-opacity="0.501961" />
<path d="M 195.657 221.172 C 198.781 222.734, 198.781 225.266, 195.657 226.828 C 192.533 228.391, 187.467 228.391, 184.343 226.828 C 181.219 225.266, 181.219 222.734, 184.343 221.172 C 187.467 219.609, 192.533 219.609, 195.657 221.172" fill="#ffdebd" fill-opacity="0.501961" />
<path d="M 32.7405 89.5706 C 26.7879 87.9421, 22.4463 81.6425, 23.0433 75.5002 C 23.6403 69.3578, 28.9498 65.6985, 34.9024 67.327 C 40.855 68.9555, 45.1966 75.255, 44.5996 81.3974 C 44.0026 87.5398, 38.6931 91.199, 32.7405 89.5706" fill="#f6b17d" fill-opacity="0.501961" />
<path d="M 179.248 229.789 L 234.399 269.754 L 149.326 265.415 L 180.866 242.949 Z" fill="#3f282e" fill-opacity="0.501961" />
<path d="M 225.778 38.4645 C 230.074 40.4171, 230.074 43.5829, 225.778 45.5355 C 221.482 47.4882, 214.518 47.4882, 210.222 45.5355 C 205.926 43.5829, 205.926 40.4171, 210.222 38.4645 C 214.518 36.5118, 221.482 36.5118, 225.778 38.4645" fill="#a99649" fill-opacity="0.501961" />
<path d="M 160.233 11.6357 C 158.97 8.84899, 158.128 4.11642, 158.353 1.06524 C 158.577 -1.98594, 159.782 -2.20032, 161.044 0.586413 C 162.307 3.37314, 163.149 8.10571, 162.925 11.1569 C 162.701 14.2081, 161.495 14.4224, 160.233 11.6357" fill="#806334" fill-opacity="0.501961" />
<path d="M 137.947 181.324 L 124.854 184.29 L 134.408 172.961 L 142.259 178.001 Z" fill="#d6816b" fill-opacity="0.501961" />
<path d="M 246 30 L 245 41 L 271 50 Z" fill="#b8ad5b" fill-opacity="0.501961" />
<path d="M 81.4142 114.515 C 82.1953 119.201, 82.1953 126.799, 81.4142 131.485 C 80.6332 136.172, 79.3668 136.172, 78.5858 131.485 C 77.8047 126.799, 77.8047 119.201, 78.5858 114.515 C 79.3668 109.828, 80.6332 109.828, 81.4142 114.515" fill="#dc9f8a" fill-opacity="0.501961" />
<path d="M 71.9962 144.891 C 70.837 150.415, 69.709 150.321, 69.4769 144.682 C 69.2447 139.043, 69.9962 129.993, 71.1554 124.469 C 72.3146 118.945, 73.4426 119.039, 73.6747 124.678 C 73.9069 130.318, 73.1554 139.367, 71.9962 144.891" fill="#ea998c" fill-opacity="0.501961" />
<path d="M 64.1269 121.28 L 76.6655 106.333 L 45.3162 121.991 L 64.5314 130.814 Z" fill="#dab488" fill-opacity="0.501961" />
<path d="M 77 112 L 71 112 L 71 116 L 77 116 Z" fill="#3d1100" fill-opacity="0.501961" />
<path d="M 195.039 90.08 C 196.197 95.0397, 193.588 96.9466, 189.213 94.339 C 184.838 91.7315, 180.353 85.597, 179.195 80.6372 C 178.038 75.6774, 180.646 73.7706, 185.021 76.3781 C 189.396 78.9857, 193.881 85.1202, 195.039 90.08" fill="#b17d63" fill-opacity="0.501961" />
<path d="M 133.238 104.405 L 146.504 105.839 L 135.439 116.81 L 141.84 92.8725 Z" fill="#c56240" fill-opacity="0.501961" />
<path d="M 179.259 104.511 L 175.675 113.847 L 174.741 113.489 L 178.325 104.153 Z" fill="#280000" fill-opacity="0.501961" />
<path d="M 189.307 52.7677 L 168.856 22.8857 L 148.077 18.9123 L 170.059 38.094 Z" fill="#f0d393" fill-opacity="0.501961" />
<path d="M 242 201 L 263 188 L 271 235 Z" fill="#ffd554" fill-opacity="0.501961" />
<path d="M 157.623 156.701 L 158.061 157.6 L 146.377 163.299 L 145.939 162.4 Z" fill="#3f0700" fill-opacity="0.501961" />
<path d="M 89.2844 242.195 C 90.5461 246.488, 88.6551 247.807, 85.0609 245.143 C 81.4666 242.478, 77.5301 236.838, 76.2684 232.545 C 75.0067 228.252, 76.8976 226.932, 80.4919 229.597 C 84.0861 232.262, 88.0227 237.902, 89.2844 242.195" fill="#dfb2a1" fill-opacity="0.501961" />
<path d="M 114.352 24.7589 L 101.685 32.5447 L 91.9797 30.7499 L 83.9898 5.89862 Z" fill="#e6c3a7" fill-opacity="0.501961" />
<path d="M 15 213 L 60 167 L -13 209 Z" fill="#e4b057" fill-opacity="0.501961" />
<path d="M 62.3554 262.252 C 55.7455 266.807, 47.8601 264.502, 44.7428 257.105 C 41.6256 249.708, 44.4569 240.02, 51.0668 235.465 C 57.6768 230.911, 65.5622 233.215, 68.6794 240.612 C 71.7967 248.009, 68.9653 257.698, 62.3554 262.252" fill="#382429" fill-opacity="0.501961" />
<path d="M 22.0359 162.171 L 22.9113 139.76 L -1.071 155.819 L 7.39666 179.374 Z" fill="#f4c66d" fill-opacity="0.501961" />
<path d="M 158.519 30.9989 L 172.262 42.4341 L 139.902 41.6935 L 162.038 48.3568 Z" fill="#865137" fill-opacity="0.501961" />
<path d="M 102.746 159.059 L 103.305 158.23 L 113.254 164.941 L 112.695 165.77 Z" fill="#1e0000" fill-opacity="0.501961" />
<path d="M -16 70 L 17 56 L -16 37 Z" fill="#b86b4b" fill-opacity="0.501961" />
<path d="M 88.2641 172.356 C 85.6633 165.505, 87.7364 164.171, 92.8945 169.376 C 98.0526 174.581, 104.342 184.354, 106.943 191.205 C 109.544 198.055, 107.471 199.39, 102.313 194.185 C 97.1547 188.98, 90.8648 179.207, 88.2641 172.356" fill="#a56a53" fill-opacity="0.501961" />
<path d="M -15.5704 239.149 L 2.02671 233.199 L -16 194.105 L 18.173 228.023 Z" fill="#e2ca8e" fill-opacity="0.501961" />
<path d="M 117.581 140.383 C 114.258 144.978, 113.201 144.407, 115.218 139.108 C 117.236 133.809, 121.565 125.788, 124.888 121.193 C 128.211 116.598, 129.268 117.169, 127.251 122.468 C 125.233 127.768, 120.904 135.788, 117.581 140.383" fill="#fab6b0" fill-opacity="0.501961" />
<path d="M 221 50 L 192 54 L 191 72 Z" fill="#cbcc63" fill-opacity="0.501961" />
<path d="M 67.0748 244.42 C 63.3267 249.819, 62.3335 249.276, 64.8564 243.207 C 67.3794 237.138, 72.4631 227.841, 76.2113 222.441 C 79.9594 217.042, 80.9526 217.585, 78.4297 223.654 C 75.9067 229.724, 70.823 239.021, 67.0748 244.42" fill="#462921" fill-opacity="0.501961" />
<path d="M 184 90 L 188 90 L 188 102 L 184 102 Z" fill="#8e3807" fill-opacity="0.501961" />
<path d="M 87.4674 165.452 L 89.9879 156.677 L 113.748 136.546 L 93.0777 143.451 Z" fill="#a14228" fill-opacity="0.501961" />
<path d="M 200.212 138.55 L 194.037 119.418 L 271 158.804 L 205.253 138.7 Z" fill="#fdd185" fill-opacity="0.501961" />
<path d="M 172.425 168.133 L 161.92 177.04 L 153.985 146.526 L 160.056 149.799 Z" fill="#d98668" fill-opacity="0.501961" />
<path d="M 99 244 L 85 240 L 90 191 Z" fill="#d29c8b" fill-opacity="0.501961" />
<path d="M 110.064 211.675 L 126.154 243.744 L 127.828 217.329 L 94.4809 195.068 Z" fill="#8e5535" fill-opacity="0.501961" />
<path d="M 171 106 L 173 106 L 173 115 L 171 115 Z" fill="#ffd7be" fill-opacity="0.501961" />
<path d="M 13 137 L -9 159 L 2 129 Z" fill="#ac9c63" fill-opacity="0.501961" />
<path d="M 105 125 L 84 145 L 88 117 Z" fill="#e9b1a5" fill-opacity="0.501961" />
<path d="M 228.572 223.441 L 244.683 224.789 L 234.486 239.036 L 227.334 236.577 Z" fill="#e9d3b1" fill-opacity="0.501961" />
<path d="M 90.4163 56.9849 L 90.6844 67.7753 L 147.658 69.2965 L 130.516 58.7251 Z" fill="#ffdbd6" fill-opacity="0.501961" />
<path d="M 184.328 83.5753 L 179.358 101.828 L 172.427 50.6341 L 187.399 93.0378 Z" fill="#c28271" fill-opacity="0.501961" />
<path d="M 184.536 52.6863 C 186.488 58.9347, 186.488 69.0653, 184.536 75.3137 C 182.583 81.5621, 179.417 81.5621, 177.464 75.3137 C 175.512 69.0653, 175.512 58.9347, 177.464 52.6863 C 179.417 46.4379, 182.583 46.4379, 184.536 52.6863" fill="#9c6957" fill-opacity="0.501961" />
<path d="M 217.289 163.02 C 222.93 168.694, 221.15 171.985, 213.313 170.37 C 205.476 168.754, 194.55 162.845, 188.909 157.17 C 183.268 151.496, 185.047 148.205, 192.884 149.82 C 200.721 151.436, 211.647 157.345, 217.289 163.02" fill="#ffeec1" fill-opacity="0.501961" />
<path d="M 174.364 77.3934 C 177.879 83.2513, 177.879 92.7487, 174.364 98.6066 C 170.849 104.464, 165.151 104.464, 161.636 98.6066 C 158.121 92.7487, 158.121 83.2513, 161.636 77.3934 C 165.151 71.5355, 170.849 71.5355, 174.364 77.3934" fill="#ffcfb7" fill-opacity="0.501961" />
<path d="M 114.374 188.815 L 141.486 193.745 L 156.677 185.852 L 152.962 179.889 Z" fill="#f2b9b4" fill-opacity="0.501961" />
</g>
</svg>
