<?xml version="1.0" encoding="utf-8"?>
<!-- Generator: Adobe Illustrator 23.0.1, SVG Export Plug-In . SVG Version: 6.00 Build 0)  -->
<svg version="1.1" id="Layer_1" xmlns="http://www.w3.org/2000/svg" xmlns:xlink="http://www.w3.org/1999/xlink" x="0px" y="0px"
	 viewBox="0 0 1995 2000" style="enable-background:new 0 0 1995 2000;" xml:space="preserve">
<style type="text/css">
	.st0{fill-opacity:0.502;}
	.st1{fill:#FFF8FD;fill-opacity:0.502;}
	.st2{fill:#FFFFA1;fill-opacity:0.502;}
	.st3{fill:#741A0B;fill-opacity:0.502;}
	.st4{fill:#641310;fill-opacity:0.502;}
	.st5{fill:#FFEEFF;fill-opacity:0.502;}
	.st6{fill:#90130B;fill-opacity:0.502;}
	.st7{fill:#5C2120;fill-opacity:0.502;}
	.st8{fill:#4F2219;fill-opacity:0.502;}
	.st9{fill:#FFD66B;fill-opacity:0.502;}
	.st10{fill:#FFFCA2;fill-opacity:0.502;}
	.st11{fill:#120015;fill-opacity:0.502;}
	.st12{fill:#A16246;fill-opacity:0.502;}
	.st13{fill:#924D2B;fill-opacity:0.502;}
	.st14{fill:#873C23;fill-opacity:0.502;}
	.st15{fill:#FFF4FF;fill-opacity:0.502;}
	.st16{fill:#1F0926;fill-opacity:0.502;}
	.st17{fill:#D5D57D;fill-opacity:0.502;}
	.st18{fill:#6E0E00;fill-opacity:0.502;}
	.st19{fill:#FFAE64;fill-opacity:0.502;}
	.st20{fill:#FFD7B2;fill-opacity:0.502;}
	.st21{fill:#F7A5AE;fill-opacity:0.502;}
	.st22{fill:#A2604C;fill-opacity:0.502;}
	.st23{fill:#582817;fill-opacity:0.502;}
	.st24{fill:#EFF9FF;fill-opacity:0.502;}
	.st25{fill:#FFC4CA;fill-opacity:0.502;}
	.st26{fill:#F19A37;fill-opacity:0.502;}
	.st27{fill:#710C05;fill-opacity:0.502;}
	.st28{fill:#FFD1C3;fill-opacity:0.502;}
	.st29{fill:#FFE7A9;fill-opacity:0.502;}
	.st30{fill:#F88054;fill-opacity:0.502;}
	.st31{fill:#2F0000;fill-opacity:0.502;}
	.st32{fill:#C1BC51;fill-opacity:0.502;}
	.st33{fill:#FFF4BB;fill-opacity:0.502;}
	.st34{fill:#E8B297;fill-opacity:0.502;}
	.st35{fill:#F8DEB9;fill-opacity:0.502;}
	.st36{fill:#F19EA1;fill-opacity:0.502;}
	.st37{fill:#FFC6AB;fill-opacity:0.502;}
	.st38{fill:#FEDE84;fill-opacity:0.502;}
	.st39{fill:#FFC773;fill-opacity:0.502;}
	.st40{fill:#FBD1D1;fill-opacity:0.502;}
	.st41{fill:#3C242D;fill-opacity:0.502;}
	.st42{fill:#BA817E;fill-opacity:0.502;}
	.st43{fill:#DB9F79;fill-opacity:0.502;}
	.st44{fill:#983F01;fill-opacity:0.502;}
	.st45{fill:#D36939;fill-opacity:0.502;}
	.st46{fill:#FFD579;fill-opacity:0.502;}
	.st47{fill:#0A0000;fill-opacity:0.502;}
	.st48{fill:#837544;fill-opacity:0.502;}
	.st49{fill:#9C4F4E;fill-opacity:0.502;}
	.st50{fill:#FFD0CD;fill-opacity:0.502;}
	.st51{fill:#F1DDD0;fill-opacity:0.502;}
	.st52{fill:#FFDFDC;fill-opacity:0.502;}
	.st53{fill:#E38076;fill-opacity:0.502;}
	.st54{fill:#D4AAAE;fill-opacity:0.502;}
	.st55{fill:#842506;fill-opacity:0.502;}
	.st56{fill:#FFECA7;fill-opacity:0.502;}
	.st57{fill:#8C3C22;fill-opacity:0.502;}
	.st58{fill:#F8D287;fill-opacity:0.502;}
	.st59{fill:#936E4F;fill-opacity:0.502;}
	.st60{fill:#E4C4A5;fill-opacity:0.502;}
	.st61{fill:#FFE38E;fill-opacity:0.502;}
	.st62{fill:#AAAE3C;fill-opacity:0.502;}
	.st63{fill:#EDC59D;fill-opacity:0.502;}
	.st64{fill:#D9926F;fill-opacity:0.502;}
	.st65{fill:#090000;fill-opacity:0.502;}
	.st66{fill:#E5DFA5;fill-opacity:0.502;}
	.st67{fill:#541E00;fill-opacity:0.502;}
	.st68{fill:#F82500;fill-opacity:0.502;}
	.st69{fill:#220810;fill-opacity:0.502;}
	.st70{fill:#B39F5B;fill-opacity:0.502;}
	.st71{fill:#BE6652;fill-opacity:0.502;}
	.st72{fill:#4A0000;fill-opacity:0.502;}
	.st73{fill:#722300;fill-opacity:0.502;}
	.st74{fill:#936754;fill-opacity:0.502;}
	.st75{fill:#86392C;fill-opacity:0.502;}
	.st76{fill:#B5B741;fill-opacity:0.502;}
	.st77{fill:#713D1E;fill-opacity:0.502;}
	.st78{fill:#D38A6F;fill-opacity:0.502;}
	.st79{fill:#61382B;fill-opacity:0.502;}
	.st80{fill:#FAC095;fill-opacity:0.502;}
	.st81{fill:#FABAAF;fill-opacity:0.502;}
	.st82{fill:#EA844F;fill-opacity:0.502;}
	.st83{fill:#5A4547;fill-opacity:0.502;}
	.st84{fill:#EBCD5C;fill-opacity:0.502;}
	.st85{fill:#513D37;fill-opacity:0.502;}
	.st86{fill:#E2A9AF;fill-opacity:0.502;}
	.st87{fill:#FFF8E7;fill-opacity:0.502;}
	.st88{fill:#DD8365;fill-opacity:0.502;}
	.st89{fill:#BB5D0E;fill-opacity:0.502;}
	.st90{fill:#B6916B;fill-opacity:0.502;}
	.st91{fill:#FFFAD1;fill-opacity:0.502;}
	.st92{fill:#881D01;fill-opacity:0.502;}
	.st93{fill:#CA7F5F;fill-opacity:0.502;}
	.st94{fill:#FFCD99;fill-opacity:0.502;}
	.st95{fill:#FFD2CB;fill-opacity:0.502;}
	.st96{fill:#F7CFD5;fill-opacity:0.502;}
	.st97{fill:#EAB3A7;fill-opacity:0.502;}
	.st98{fill:#C47663;fill-opacity:0.502;}
	.st99{fill:#FCBC84;fill-opacity:0.502;}
	.st100{fill:#5B1D07;fill-opacity:0.502;}
	.st101{fill:#C09C75;fill-opacity:0.502;}
	.st102{fill:#FFD66D;fill-opacity:0.502;}
	.st103{fill:#DB8933;fill-opacity:0.502;}
	.st104{fill:#CE9081;fill-opacity:0.502;}
	.st105{fill:#CCC474;fill-opacity:0.502;}
	.st106{fill:#1B0405;fill-opacity:0.502;}
	.st107{fill:#FDD594;fill-opacity:0.502;}
	.st108{fill:#C27564;fill-opacity:0.502;}
	.st109{fill:#CD9990;fill-opacity:0.502;}
	.st110{fill:#FFF3CF;fill-opacity:0.502;}
	.st111{fill:#75310F;fill-opacity:0.502;}
	.st112{fill:#EEAB95;fill-opacity:0.502;}
	.st113{fill:#9A2913;fill-opacity:0.502;}
	.st114{fill:#D6B799;fill-opacity:0.502;}
	.st115{fill:#FDCD72;fill-opacity:0.502;}
	.st116{fill:#C95C15;fill-opacity:0.502;}
	.st117{fill:#E8B1A9;fill-opacity:0.502;}
	.st118{fill:#EFC670;fill-opacity:0.502;}
	.st119{fill:#FFF0CA;fill-opacity:0.502;}
	.st120{fill:#7B2700;fill-opacity:0.502;}
	.st121{fill:#AFA551;fill-opacity:0.502;}
	.st122{fill:#F59450;fill-opacity:0.502;}
	.st123{fill:#BD0100;fill-opacity:0.502;}
	.st124{fill:#483034;fill-opacity:0.502;}
	.st125{fill:#EAD4BD;fill-opacity:0.502;}
	.st126{fill:#CE3400;fill-opacity:0.502;}
	.st127{fill:#F69F8F;fill-opacity:0.502;}
	.st128{fill:#D69369;fill-opacity:0.502;}
	.st129{fill:#4C1700;fill-opacity:0.502;}
	.st130{fill:#F2B05F;fill-opacity:0.502;}
	.st131{fill:#9F604C;fill-opacity:0.502;}
	.st132{fill:#EA9E86;fill-opacity:0.502;}
	.st133{fill:#B1602E;fill-opacity:0.502;}
	.st134{fill:#271B3A;fill-opacity:0.502;}
	.st135{fill:#B57B6A;fill-opacity:0.502;}
	.st136{fill:#F6C997;fill-opacity:0.502;}
	.st137{fill:#F0B158;fill-opacity:0.502;}
	.st138{fill:#FFE88F;fill-opacity:0.502;}
	.st139{fill:#D2AD55;fill-opacity:0.502;}
	.st140{fill:#EBCB90;fill-opacity:0.502;}
	.st141{fill:#E3CD6E;fill-opacity:0.502;}
	.st142{fill:#FFD6DA;fill-opacity:0.502;}
	.st143{fill:#7D5D51;fill-opacity:0.502;}
	.st144{fill:#F0C48D;fill-opacity:0.502;}
	.st145{fill:#331E23;fill-opacity:0.502;}
	.st146{fill:#F2C493;fill-opacity:0.502;}
	.st147{fill:#977654;fill-opacity:0.502;}
	.st148{fill:#1D0000;fill-opacity:0.502;}
	.st149{fill:#FFC1AA;fill-opacity:0.502;}
	.st150{fill:#FBAA98;fill-opacity:0.502;}
	.st151{fill:#A67763;fill-opacity:0.502;}
	.st152{fill:#FFCBB6;fill-opacity:0.502;}
	.st153{fill:#ECD199;fill-opacity:0.502;}
	.st154{fill:#DCB385;fill-opacity:0.502;}
	.st155{fill:#CFDA64;fill-opacity:0.502;}
	.st156{fill:#D36D93;fill-opacity:0.502;}
	.st157{fill:#DC9D8F;fill-opacity:0.502;}
	.st158{fill:#EBE2DD;fill-opacity:0.502;}
	.st159{fill:#EECAA0;fill-opacity:0.502;}
	.st160{fill:#E2B6AE;fill-opacity:0.502;}
	.st161{fill:#AD7153;fill-opacity:0.502;}
	.st162{fill:#D79893;fill-opacity:0.502;}
	.st163{fill:#FDE07F;fill-opacity:0.502;}
	.st164{fill:#A78B56;fill-opacity:0.502;}
	.st165{fill:#AB2D09;fill-opacity:0.502;}
	.st166{fill:#FFDF9B;fill-opacity:0.502;}
	.st167{fill:#4E2C2B;fill-opacity:0.502;}
	.st168{fill:#714A38;fill-opacity:0.502;}
	.st169{fill:#D9A690;fill-opacity:0.502;}
	.st170{fill:#1C0000;fill-opacity:0.502;}
	.st171{fill:#EFBD6D;fill-opacity:0.502;}
	.st172{fill:#BA745D;fill-opacity:0.502;}
	.st173{fill:#D0AAA6;fill-opacity:0.502;}
	.st174{fill:#ECCEAE;fill-opacity:0.502;}
	.st175{fill:#FFD49A;fill-opacity:0.502;}
	.st176{fill:#81421B;fill-opacity:0.502;}
	.st177{fill:#F7C784;fill-opacity:0.502;}
	.st178{fill:#C3A960;fill-opacity:0.502;}
	.st179{fill:#F4A364;fill-opacity:0.502;}
	.st180{fill:#DCA695;fill-opacity:0.502;}
	.st181{fill:#D6C76B;fill-opacity:0.502;}
	.st182{fill:#BDA58F;fill-opacity:0.502;}
	.st183{fill:#F4ADA8;fill-opacity:0.502;}
	.st184{fill:#FBC6AF;fill-opacity:0.502;}
	.st185{fill:#E0AE70;fill-opacity:0.502;}
	.st186{fill:#D9B7A7;fill-opacity:0.502;}
	.st187{fill:#785041;fill-opacity:0.502;}
	.st188{fill:#FFDB82;fill-opacity:0.502;}
	.st189{fill:#6C1800;fill-opacity:0.502;}
	.st190{fill:#F7A27D;fill-opacity:0.502;}
	.st191{fill:#DCD9AE;fill-opacity:0.502;}
	.st192{fill:#F4F8FA;fill-opacity:0.502;}
	.st193{fill:#E6E2B8;fill-opacity:0.502;}
	.st194{fill:#DD968D;fill-opacity:0.502;}
	.st195{fill:#BB9870;fill-opacity:0.502;}
	.st196{fill:#D7825D;fill-opacity:0.502;}
	.st197{fill:#F54600;fill-opacity:0.502;}
	.st198{fill:#591C00;fill-opacity:0.502;}
	.st199{fill:#FFE5B2;fill-opacity:0.502;}
	.st200{fill:#F2D788;fill-opacity:0.502;}
	.st201{fill:#FFDEBD;fill-opacity:0.502;}
	.st202{fill:#F6B17D;fill-opacity:0.502;}
	.st203{fill:#3F282E;fill-opacity:0.502;}
	.st204{fill:#A99649;fill-opacity:0.502;}
	.st205{fill:#806334;fill-opacity:0.502;}
	.st206{fill:#D6816B;fill-opacity:0.502;}
	.st207{fill:#B8AD5B;fill-opacity:0.502;}
	.st208{fill:#DC9F8A;fill-opacity:0.502;}
	.st209{fill:#EA998C;fill-opacity:0.502;}
	.st210{fill:#DAB488;fill-opacity:0.502;}
	.st211{fill:#3D1100;fill-opacity:0.502;}
	.st212{fill:#B17D63;fill-opacity:0.502;}
	.st213{fill:#C56240;fill-opacity:0.502;}
	.st214{fill:#280000;fill-opacity:0.502;}
	.st215{fill:#F0D393;fill-opacity:0.502;}
	.st216{fill:#FFD554;fill-opacity:0.502;}
	.st217{fill:#3F0700;fill-opacity:0.502;}
	.st218{fill:#DFB2A1;fill-opacity:0.502;}
	.st219{fill:#E6C3A7;fill-opacity:0.502;}
	.st220{fill:#E4B057;fill-opacity:0.502;}
	.st221{fill:#382429;fill-opacity:0.502;}
	.st222{fill:#F4C66D;fill-opacity:0.502;}
	.st223{fill:#865137;fill-opacity:0.502;}
	.st224{fill:#1E0000;fill-opacity:0.502;}
	.st225{fill:#B86B4B;fill-opacity:0.502;}
	.st226{fill:#A56A53;fill-opacity:0.502;}
	.st227{fill:#E2CA8E;fill-opacity:0.502;}
	.st228{fill:#FAB6B0;fill-opacity:0.502;}
	.st229{fill:#CBCC63;fill-opacity:0.502;}
	.st230{fill:#462921;fill-opacity:0.502;}
	.st231{fill:#8E3807;fill-opacity:0.502;}
	.st232{fill:#A14228;fill-opacity:0.502;}
	.st233{fill:#FDD185;fill-opacity:0.502;}
	.st234{fill:#D98668;fill-opacity:0.502;}
	.st235{fill:#D29C8B;fill-opacity:0.502;}
	.st236{fill:#8E5535;fill-opacity:0.502;}
	.st237{fill:#FFD7BE;fill-opacity:0.502;}
	.st238{fill:#AC9C63;fill-opacity:0.502;}
	.st239{fill:#E9B1A5;fill-opacity:0.502;}
	.st240{fill:#E9D3B1;fill-opacity:0.502;}
	.st241{fill:#FFDBD6;fill-opacity:0.502;}
	.st242{fill:#C28271;fill-opacity:0.502;}
	.st243{fill:#9C6957;fill-opacity:0.502;}
	.st244{fill:#FFEEC1;fill-opacity:0.502;}
	.st245{fill:#FFCFB7;fill-opacity:0.502;}
	.st246{fill:#F2B9B4;fill-opacity:0.502;}
</style>
<path class="st0" d="M301.6,1893L-112,2117.2h895.4l-208.2-330.9L301.6,1893z"/>
<path class="st0" d="M1457.3,1781.2l-272.8,335.9l927.4-39.1L1457.3,1781.2z"/>
<path class="st1" d="M249.4,492.2L-15.6-125L1192.3,15.6L249.4,492.2z"/>
<path class="st2" d="M2040.9,1133.7c167.4,167.8,167.4,439.9,0,607.7s-438.8,167.8-606.2,0s-167.4-439.9,0-607.7
	S1873.5,965.9,2040.9,1133.7"/>
<path class="st3" d="M999.4,2117.2l76.4-353.3l125.7-201.6l-498-118.2L999.4,2117.2z"/>
<path class="st4" d="M627.9,886.4c-192.1-22.9-192.3-61.6-0.5-86.6c191.8-24.9,503-26.6,695-3.7c192.1,22.9,192.3,61.6,0.5,86.6
	S820,909.3,627.9,886.4"/>
<path class="st5" d="M1270.6,545.8c113,96.8,85,190.6-62.4,209.5s-358.6-44.3-471.6-141.2s-85-190.6,62.4-209.5
	C946.5,385.7,1157.6,449,1270.6,545.8"/>
<path class="st6" d="M1216.6,1123.5c133.9,39.7,133.9,104,0,143.6c-133.9,39.7-351,39.7-484.9,0c-133.9-39.7-133.9-104,0-143.6
	C865.6,1083.8,1082.7,1083.8,1216.6,1123.5"/>
<path class="st7" d="M904,171.9l537.7,179.7l-857.2,31.2L904,171.9z"/>
<path class="st8" d="M592.3,1007.8l77.9-695.3l-187,351.6L592.3,1007.8z"/>
<path class="st9" d="M-124.7,2007.8l865-328.1L413,750L-124.7,2007.8z"/>
<path class="st10" d="M1695.8,565.5c45.6,222.7,45.6,583.8,0,806.5c-45.7,222.7-119.7,222.7-165.3,0c-45.6-222.7-45.6-583.8,0-806.5
	C1576.1,342.8,1650.2,342.8,1695.8,565.5"/>
<path class="st11" d="M672.7,2110.5l-90.8-390.6l-86.6,81.1l-620,316.1L672.7,2110.5z"/>
<path class="st12" d="M-31.2,1117.2l327.3-78.1L-124.7-125L-31.2,1117.2z"/>
<path class="st13" d="M1324.8,312.5l140.3,710.9l46.8-546.9L1324.8,312.5z"/>
<path class="st14" d="M799.2,1710.6l-218.7-492.5l85.4-38.1l218.7,492.5L799.2,1710.6z"/>
<path class="st15" d="M1043.9,891.4c21.3,42.7,21.3,112,0,154.7c-21.3,42.7-55.8,42.7-77.2,0c-21.3-42.7-21.3-112,0-154.7
	C988,848.7,1022.6,848.7,1043.9,891.4"/>
<path class="st16" d="M1278,2046.9l132.5-234.4l685.8,242.2L1278,2046.9z"/>
<path class="st17" d="M1324.9,182.3c-86-360,140.7-610.5,506.5-559.4c365.8,51.1,732,384.4,818.1,744.4
	c86,360-140.7,610.5-506.5,559.4C1777.2,875.6,1410.9,542.3,1324.9,182.3"/>
<path class="st18" d="M989.7,1703.1l-155.9-117.2l420.8-78.1L989.7,1703.1z"/>
<path class="st19" d="M1052.1,1789.1l678-156.2L1356,1085.9L1052.1,1789.1z"/>
<path class="st20" d="M1946.6,1764.5l-750.2-740.4l122.5-216.8l477.1,625.2L1946.6,1764.5z"/>
<path class="st21" d="M748.1,1281.2L865,1570.3l545.5-242.2L748.1,1281.2z"/>
<path class="st22" d="M1444,529.5L926.2,386.1l176.4-215.8l299,166.9L1444,529.5z"/>
<path class="st23" d="M951.9,250.1l-214.6,11.1L572.3,446.3l33.6,36.1L951.9,250.1z"/>
<path class="st24" d="M626.2,33.3c9.1,94.4-48.9,211.1-129.6,260.7c-80.7,49.5-153.5,13.1-162.7-81.3
	C324.8,118.2,382.8,1.5,463.5-48C544.3-97.5,617.1-61.1,626.2,33.3"/>
<path class="st25" d="M701.6,531c67.3-6.5,134.9,41.6,151,107.5c16.1,65.9-25.5,124.5-92.8,131c-67.3,6.5-134.9-41.6-151-107.5
	C592.7,596.2,634.3,537.5,701.6,531"/>
<path class="st26" d="M304,1509.9c-106.4,69.1-293.9,107.8-418.8,86.3c-124.9-21.5-140-94.9-33.6-164
	c106.4-69.1,293.9-107.8,418.8-86.3C395.3,1367.4,410.4,1440.8,304,1509.9"/>
<path class="st27" d="M691.3,805.1l-163.6,234.6l-23.6-78l129.6-145.1L691.3,805.1z"/>
<path class="st28" d="M1387.1,812.5l-23.4-359.4l-280.5,250L1387.1,812.5z"/>
<path class="st29" d="M1379.4,281.2L896.2,93.8l623.4,46.9L1379.4,281.2z"/>
<path class="st30" d="M1182.2,771.2l285.9,370l81-178.9l-48.4-22.9L1182.2,771.2z"/>
<path class="st31" d="M1059.6,835c73,9.1,73,24,0,33.1c-73,9.2-191.5,9.2-264.5,0c-73-9.1-73-24,0-33.1
	C868.2,825.8,986.6,825.8,1059.6,835"/>
<path class="st32" d="M1574.2,54.7l475.4,921.9l-249.4,140.6L1574.2,54.7z"/>
<path class="st33" d="M1565.3,1180.6l46.7,337.8l393.3-23.5L2070,1186L1565.3,1180.6z"/>
<path class="st34" d="M529.9,718.8L226-125l-350.7,289.1L529.9,718.8z"/>
<path class="st35" d="M740.3,242.2l428.6-109.4V-125L740.3,242.2z"/>
<path class="st36" d="M1117.5,1124.9l-18.4,166.4l305-382.7l-930.7,172.3L1117.5,1124.9z"/>
<path class="st37" d="M1036.5,2117.2l319.5-710.9v500L1036.5,2117.2z"/>
<path class="st38" d="M1772.6,1895.2c-114.7-118.2-130.5-323.1-35.4-457.6c95.2-134.5,265.3-147.7,380-29.5
	c114.7,118.2,130.5,323.1,35.4,457.6C2057.4,2000.2,1887.3,2013.5,1772.6,1895.2"/>
<path class="st39" d="M561.1,1015.6l148.1,710.9l-833.8-515.6L561.1,1015.6z"/>
<path class="st40" d="M1749.8-53.6c23.4-60,84.5-77.9,136.4-39.8c51.9,38,75,117.5,51.6,177.6c-23.4,60-84.5,77.9-136.4,39.8
	C1749.5,85.9,1726.4,6.4,1749.8-53.6"/>
<path class="st41" d="M1363.8,1710.9l155.9,335.9l-39-250L1363.8,1710.9z"/>
<path class="st42" d="M709.2,1898.4l-23.4-421.9l475.4,593.8L709.2,1898.4z"/>
<path class="st43" d="M-124.7,445.3l685.8,23.4L436.4,1125L-124.7,445.3z"/>
<path class="st44" d="M1448.2,731c12.2,58,12.2,152,0,209.9c-12.2,58-31.9,58-44.1,0c-12.2-58-12.2-152,0-209.9
	C1416.2,673,1436,673,1448.2,731"/>
<path class="st45" d="M1058.1,1702.2l301.4-438.4L968.7,800.8l406.5,614.4L1058.1,1702.2z"/>
<path class="st46" d="M1433.9,851.6l413,531.2l-101.3-601.6L1433.9,851.6z"/>
<path class="st47" d="M784.2,1265.5l8.1-38.2l106.7,22.7l-8.1,38.2L784.2,1265.5z"/>
<path class="st48" d="M1196.5-127.6c46.3,55.4,96.7,157.5,112.7,227.9c16,70.5-8.6,82.7-54.8,27.2
	c-46.3-55.4-96.7-157.5-112.7-227.9C1125.7-170.8,1150.2-183,1196.5-127.6"/>
<path class="st49" d="M818.4,1155.3l-32.7-21.3l157-242.4l32.7,21.3L818.4,1155.3z"/>
<path class="st50" d="M1268.3,654.7c80.6,109.7,41,164.7-88.3,122.8c-129.3-41.9-299.4-164.9-380-274.6s-41-164.7,88.3-122.8
	C1017.6,422,1187.7,544.9,1268.3,654.7"/>
<path class="st51" d="M639,390.6L62.3,304.7l70.1-210.9L639,390.6z"/>
<path class="st52" d="M1028.7,867.2l101.3,242.2l-194.8-39.1L1028.7,867.2z"/>
<path class="st53" d="M865.7,831.2l440.2-47.9L959,699.6l-8.3,120.9L865.7,831.2z"/>
<path class="st54" d="M680,1682.2l-87.5,81.6l24.6,133.5l226.8,219.9L680,1682.2z"/>
<path class="st55" d="M1032.1,1162.6c11.3,34.4-8.4,67.1-44,73c-35.6,6-73.6-17.1-84.9-51.5c-11.3-34.4,8.4-67.1,44-73
	C982.8,1105.1,1020.8,1128.2,1032.1,1162.6"/>
<path class="st56" d="M1652.2,1043l-59.2-56.2l-107.6-465l234.7,155.2L1652.2,1043z"/>
<path class="st57" d="M1059.8,765.6h148.1v132.8h-148.1V765.6z"/>
<path class="st58" d="M513.7,1633.6c94.3,42.7,94.3,112,0,154.7c-94.3,42.7-247.3,42.7-341.6,0c-94.3-42.7-94.3-112,0-154.7
	C266.4,1590.9,419.4,1590.9,513.7,1633.6"/>
<path class="st59" d="M-7,767.5c89.3-0.8,190.6,65.1,226.2,147.2c35.6,82.1-7.9,149.3-97.2,150.1c-89.3,0.8-190.6-65.1-226.2-147.2
	C-139.9,835.5-96.3,768.3-7,767.5"/>
<path class="st60" d="M576.7,851.6L366.3,1000V812.5L576.7,851.6z"/>
<path class="st61" d="M1457.3,1171.9l-163.7,343.8l374.1-7.8L1457.3,1171.9z"/>
<path class="st62" d="M-81.2,1876.7c-40.9-38.8-28.6-75.3,27.3-81.6c55.9-6.3,134.3,20,175.2,58.8s28.6,75.3-27.3,81.6
	C38.1,1941.8-40.3,1915.5-81.2,1876.7"/>
<path class="st63" d="M649.4,194.9c129.6-86.8,159.4-55.4,66.7,70.1c-92.7,125.5-273,297.7-402.5,384.5
	c-129.6,86.8-159.4,55.4-66.7-70.1C339.6,453.9,519.8,281.7,649.4,194.9"/>
<path class="st64" d="M226.9,125C184,105.3,151.7,51,154.7,3.8c3-47.2,40.3-69.5,83.2-49.8c42.9,19.7,75.2,74,72.2,121.2
	C307.1,122.5,269.8,144.8,226.9,125"/>
<path class="st65" d="M1356,812.5h31.2V875H1356V812.5z"/>
<path class="st66" d="M2180.9,546.3l-347,302.4l-71.6-82.5l347-302.4L2180.9,546.3z"/>
<path class="st67" d="M588.6,708.1c15.2,27.5,15.2,72,0,99.4c-15.2,27.5-39.9,27.5-55.1,0c-15.2-27.5-15.2-72,0-99.4
	C548.8,680.6,573.4,680.6,588.6,708.1"/>
<path class="st68" d="M1491.1,1023.4l-18.2-59.8l59.6-18.3l18.2,59.8L1491.1,1023.4z"/>
<path class="st69" d="M812.1,2161.1L418,1894.6l47.9-71.2L860,2089.8L812.1,2161.1z"/>
<path class="st70" d="M1520.5,237l116.1,190.7l475.3-127.4l-316.6,0.7L1520.5,237z"/>
<path class="st71" d="M1040.2,1363c36.5,15.3,36.5,40,0,55.2c-36.5,15.2-95.7,15.2-132.2,0c-36.5-15.3-36.5-40,0-55.2
	C944.5,1347.8,1003.7,1347.8,1040.2,1363"/>
<path class="st72" d="M1179.9,1249.9c24.5,1,25.4,8,2.1,15.5c-23.3,7.5-62,12.8-86.5,11.8c-24.5-1-25.4-8-2.1-15.5
	C1116.7,1254.1,1155.5,1248.8,1179.9,1249.9"/>
<path class="st73" d="M981.9,1710.9l-155.9-117.2l366.3-23.4L981.9,1710.9z"/>
<path class="st74" d="M748.4,278.7l267.2-92.3l209.9,40.4l115.7,87.5L748.4,278.7z"/>
<path class="st75" d="M965.7,940.1l3.2-47.9l-39.1-138.6l-142.2,11.1L965.7,940.1z"/>
<path class="st76" d="M1942.2,549.3c-23,62.2-90.2,135.2-150.1,163.1c-60,27.9-89.9,0.2-67-61.9c23-62.2,90.2-135.2,150.1-163.1
	C1935.2,459.4,1965.2,487.1,1942.2,549.3"/>
<path class="st77" d="M681.3,1416l-48-120.9l288.5,334.5L804.3,1584L681.3,1416z"/>
<path class="st78" d="M352.1,1386.1l253-203.9l156.3-377.7l-92.8,36.6L352.1,1386.1z"/>
<path class="st79" d="M606.9,504.2c-35.8,15-52.9-2-38.3-38c14.6-36,55.4-77.3,91.2-92.3s52.9,2,38.3,38
	C683.5,447.9,642.7,489.2,606.9,504.2"/>
<path class="st80" d="M1294.6,882.5l211.6,654l-141.7-693.1l-153.9-52.3L1294.6,882.5z"/>
<path class="st81" d="M1207.9,1453.1l-381.9,78.1l452-296.9L1207.9,1453.1z"/>
<path class="st82" d="M1063.4,1953.2l-55.1-177.4l195.1-237.2l247.5-355.6L1063.4,1953.2z"/>
<path class="st83" d="M2003.7,2033.4L1350,1829.6l365.7,58.9l54.9,25.4L2003.7,2033.4z"/>
<path class="st84" d="M1909.1,1551.9c44.7-55.8,99-45.9,121.3,22.1c22.3,68,4.1,168.2-40.6,224c-44.7,55.8-99,45.9-121.3-22.1
	C1846.2,1707.9,1864.4,1607.6,1909.1,1551.9"/>
<path class="st85" d="M85.9,2014.2l416.5-223.9l163.2-89.7l-204.7,197.2L85.9,2014.2z"/>
<path class="st86" d="M883,917.7c65.4-5.6,75,20.6,21.4,58.7c-53.6,38-150.1,73.5-215.5,79.1c-65.4,5.6-75-20.6-21.4-58.7
	C721.1,958.7,817.6,923.3,883,917.7"/>
<path class="st87" d="M1600.4,1354.2c-6.4-48,27-79.6,74.4-70.5c47.5,9.1,91.1,55.4,97.5,103.4c6.4,48-27,79.6-74.4,70.5
	C1650.4,1448.5,1606.8,1402.2,1600.4,1354.2"/>
<path class="st88" d="M1441.7,570.3l-678-218.8l467.6,7.8L1441.7,570.3z"/>
<path class="st89" d="M1500.4,686c15.2,39.7,15.2,104,0,143.6c-15.2,39.7-39.9,39.7-55.1,0c-15.2-39.7-15.2-104,0-143.6
	C1460.5,646.3,1485.2,646.3,1500.4,686"/>
<path class="st90" d="M1578.7-112.4L1838,190l-194.9-46.2L1581.3-125L1578.7-112.4z"/>
<path class="st91" d="M1701.1,1654l59.8,37.7l136.6-32.5l-99.2-65.2L1701.1,1654z"/>
<path class="st92" d="M746.9,1174.8c-29.9,15.9-35.9,8.2-13.3-17.1c22.6-25.3,65.1-58.7,95-74.6c29.9-15.9,35.9-8.3,13.3,17.1
	C819.4,1125.4,776.8,1158.9,746.9,1174.8"/>
<path class="st93" d="M-31.2,789.1l-93.5-515.6L265,468.8L-31.2,789.1z"/>
<path class="st94" d="M337.3,1128c59.4,13,79.2,63.9,44.3,113.8c-34.9,49.9-111.3,79.8-170.7,66.8c-59.4-13-79.2-63.9-44.3-113.8
	C201.5,1145,278,1115,337.3,1128"/>
<path class="st95" d="M1417,622.8L802.6,407.5l-82.2,297L974.6,750L1417,622.8z"/>
<path class="st96" d="M1246.9,2031.2l93.5-296.9l62.3,62.5L1246.9,2031.2z"/>
<path class="st97" d="M623.4,531.2l54.6,375l62.3-523.4L623.4,531.2z"/>
<path class="st98" d="M506.5,984.4l265,273.4l15.6,250L506.5,984.4z"/>
<path class="st99" d="M300.6,495.2c-59.2,2.8-126.6-38.9-150.7-93.1c-24.1-54.2,4.3-100.4,63.5-103.2
	c59.2-2.8,126.6,38.9,150.7,93.1C388.2,446.2,359.8,492.4,300.6,495.2"/>
<path class="st100" d="M925.6,303.7c33.5,9.2,33.5,24,0,33.1c-33.5,9.2-87.7,9.2-121.2,0c-33.5-9.2-33.5-24,0-33.1
	C837.9,294.6,892.2,294.6,925.6,303.7"/>
<path class="st101" d="M592.3,960.9L397.4,468.8l-31.2,312.5L592.3,960.9z"/>
<path class="st102" d="M658,1395c57.8,58,57.8,152,0,209.9c-57.8,58-151.6,58-209.4,0c-57.8-58-57.8-152,0-209.9
	C506.4,1337.1,600.2,1337.1,658,1395"/>
<path class="st103" d="M-70.1,1179.7l226,343.8l-226,46.9V1179.7z"/>
<path class="st104" d="M911.8,1031.2L865,1218.8l-77.9-39.1L911.8,1031.2z"/>
<path class="st105" d="M1789.6,1921.3l-280.1-104.1l511.3-83.8l-284.7-35.7L1789.6,1921.3z"/>
<path class="st106" d="M607.9,828.1h39v62.5h-39V828.1z"/>
<path class="st107" d="M338.8,1810.6l-151.9-35.1l66.6-289.3l151.9,35.1L338.8,1810.6z"/>
<path class="st108" d="M1166.2,1493.6c55.7,3,59.4,23.5,8.2,45.8c-51.2,22.2-137.9,37.8-193.7,34.8c-55.7-3-59.4-23.5-8.2-45.8
	C1023.8,1506.1,1110.5,1490.6,1166.2,1493.6"/>
<path class="st109" d="M13.4-116.2l101.1,7.1l-34.2,491l-101.1-7.1L13.4-116.2z"/>
<path class="st110" d="M1823.6,1406.2l77.9,101.6l179.2-109.4L1823.6,1406.2z"/>
<path class="st111" d="M1044.3,875l272.8,23.4l-116.9-62.5L1044.3,875z"/>
<path class="st112" d="M1176.7,1203.1l70.1-39.1l-155.9-85.9L1176.7,1203.1z"/>
<path class="st113" d="M1108.1,1028.1l173.7,156.8l-5.2,5.8l-173.7-156.8L1108.1,1028.1z"/>
<path class="st114" d="M2111.9,710.9l-405.2-539.1l405.2-218.8V710.9z"/>
<path class="st115" d="M1731.6,1185.7c-54.7,32.3-119.7,11.1-145.2-47.1c-25.4-58.3-1.7-131.7,53-164
	c54.7-32.3,119.7-11.1,145.1,47.2C1810.1,1080,1786.3,1153.4,1731.6,1185.7"/>
<path class="st116" d="M1212.8,1598.7l8.8-162.8l-95.6,149.5l-171.3,159.2L1212.8,1598.7z"/>
<path class="st117" d="M1080,973.7l487.2,177.7l-476.3-273l-22-93.2L1080,973.7z"/>
<path class="st118" d="M1893.7,1546.9l-592.3,195.3v-281.2L1893.7,1546.9z"/>
<path class="st119" d="M1965.4,1311.1c-55.5-12.4-130.1-57.8-166.6-101.5c-36.5-43.7-21.1-69.1,34.4-56.7s130.1,57.8,166.6,101.5
	C2036.2,1298.1,2020.9,1323.5,1965.4,1311.1"/>
<path class="st120" d="M1488.5,906.2l-93.5-62.5l31.2,78.1L1488.5,906.2z"/>
<path class="st121" d="M1963.8,789.1l-101.3,320.3l-77.9-250L1963.8,789.1z"/>
<path class="st122" d="M1369.4,1117.5l-123.2,238.7l-73.1,275.5l209.8-265.3L1369.4,1117.5z"/>
<path class="st123" d="M519.8,1016.8l-28.3-55.7l48.6-24.8l28.3,55.7L519.8,1016.8z"/>
<path class="st124" d="M1310.4,1706.9l112.2,50.9l-81.8,183.8l588.8,175.5L1310.4,1706.9z"/>
<path class="st125" d="M942.9,204.8l-215.6-30.1L494.3,596.3L664.2-125L942.9,204.8z"/>
<path class="st126" d="M997.5,1125l31.2,54.7l101.3-78.1L997.5,1125z"/>
<path class="st127" d="M1057.2,734.8c24.3,21.4,24.3,56,0,77.3c-24.3,21.4-63.8,21.4-88.2,0c-24.3-21.4-24.3-56,0-77.3
	C993.3,713.4,1032.8,713.4,1057.2,734.8"/>
<path class="st128" d="M287.1,795.1c33.2,100.1-13.3,137.7-103.9,84C92.7,825.5-7.6,700.9-40.8,600.9
	c-33.2-100.1,13.3-137.7,103.9-84C153.6,570.5,253.9,695.1,287.1,795.1"/>
<path class="st129" d="M732.5,859.4h124.7v23.4H732.5V859.4z"/>
<path class="st130" d="M249.4,1507.8l265-585.9L491,1468.8L249.4,1507.8z"/>
<path class="st131" d="M607.2,865.1l68.8,25.6L573,1091l-2.9-97.8L607.2,865.1z"/>
<path class="st132" d="M1151.4,1687.2c48.3-59.9,101.7-47.6,119.1,27.4c17.4,75-7.6,184.4-56,244.3s-101.7,47.6-119.1-27.4
	S1103,1747,1151.4,1687.2"/>
<path class="st133" d="M1272,288.6c18.7,47.2,26.1,126,16.4,175.9c-9.7,49.9-32.7,52.1-51.4,4.8c-18.7-47.2-26.1-126-16.4-175.9
	C1230.3,243.5,1253.3,241.3,1272,288.6"/>
<path class="st134" d="M1031.5,829.2l63.9,151l-7.2,3.1l-63.9-151L1031.5,829.2z"/>
<path class="st135" d="M1098.8,1937.5v-210.9l-280.5,390.6L1098.8,1937.5z"/>
<path class="st136" d="M1490.9,907.4L1328,759.6l242.3,169.5L1425.7,963L1490.9,907.4z"/>
<path class="st137" d="M1728.6,809.1c46.5,65.2,101.9,180.4,123.9,257.4c22,77,2.1,86.6-44.3,21.4
	c-46.5-65.2-101.9-180.4-123.9-257.4C1662.3,753.5,1682.2,743.9,1728.6,809.1"/>
<path class="st138" d="M669.8,1579.9c21.3,33.6,21.3,88,0,121.5c-21.3,33.6-55.8,33.6-77.1,0c-21.3-33.6-21.3-88,0-121.5
	C614,1546.3,648.5,1546.3,669.8,1579.9"/>
<path class="st139" d="M-124.7,1289.1l475.4-281.2L-77.9,1125L-124.7,1289.1z"/>
<path class="st140" d="M1486.7-65.1c33.5,100.7,33.5,263.9,0,364.6s-87.7,100.7-121.2,0s-33.5-263.9,0-364.6
	C1399-165.8,1453.2-165.8,1486.7-65.1"/>
<path class="st141" d="M292,1822.7l365.2-126l-774.5,420.5L5.9,1979.2L292,1822.7z"/>
<path class="st142" d="M1025.1,893.7c15.2,45.8,15.2,120,0,165.7c-15.2,45.8-39.9,45.8-55.1,0c-15.2-45.8-15.2-120,0-165.7
	C985.2,847.9,1009.8,847.9,1025.1,893.7"/>
<path class="st143" d="M1402.7,359.4l54.6,171.9l-226-257.8L1402.7,359.4z"/>
<path class="st144" d="M2111.9,844.9l-183.1,11.4l183.1,320l-318.5-18.5L2111.9,844.9z"/>
<path class="st145" d="M649.6,1717.7L563,1783l191.2,334.2H-10.2L649.6,1717.7z"/>
<path class="st146" d="M1773.4,378.9c34-10.6,67.6,9.1,75,44.1c7.4,34.9-14.2,71.9-48.2,82.5c-34,10.6-67.6-9.1-75-44.1
	C1717.7,426.5,1739.3,389.5,1773.4,378.9"/>
<path class="st0" d="M1407,819.4l11.2,29.2l-50.9,19.6l-11.2-29.2L1407,819.4z"/>
<path class="st147" d="M-2.6,1013.4l316.9-140.2L274,991.9l-98,73.5L-2.6,1013.4z"/>
<path class="st148" d="M1059.2,828.5c31.5-5.1,32.7-0.4,2.8,10.7c-29.9,11-79.7,24.2-111.2,29.3c-31.5,5.1-32.7,0.4-2.8-10.7
	C977.9,846.8,1027.7,833.7,1059.2,828.5"/>
<path class="st149" d="M859,357.3l479.2,179.2l55.3,287.8l-264-280.6L859,357.3z"/>
<path class="st150" d="M557.2,1200.4l52-45.4l-83.9-135.3l-54.5,61.8L557.2,1200.4z"/>
<path class="st151" d="M1220.4,365.1l-141.6,53.1L830.2,204.1l193,37.4L1220.4,365.1z"/>
<path class="st152" d="M1371.6,1140.6l-148.1-62.5l163.7-125L1371.6,1140.6z"/>
<path class="st153" d="M2018.4,2054.7l-397.4-375l381.9,117.2L2018.4,2054.7z"/>
<path class="st154" d="M333.6,401.6c32.8-70.7,104.3-83.7,159.7-28.8c55.4,54.8,73.7,156.6,40.8,227.4
	c-32.8,70.7-104.3,83.7-159.7,28.8C319,574.2,300.7,472.4,333.6,401.6"/>
<path class="st155" d="M1830.2,671.3l55.1-55.2l165.3,165.7l-55.1,55.2L1830.2,671.3z"/>
<path class="st156" d="M1099.9,1285.8c60.9,6.1,60.9,16,0,22.1c-60.9,6.1-159.6,6.1-220.4,0c-60.9-6.1-60.9-16,0-22.1
	C940.4,1279.7,1039.1,1279.7,1099.9,1285.8"/>
<path class="st157" d="M615.6,679.7H678v125h-62.3V679.7z"/>
<path class="st158" d="M227.4,343.4l482.8-64.1L332.1-125L346,155.9L227.4,343.4z"/>
<path class="st159" d="M519.5,838.6c24.3,24.4,24.3,64,0,88.4c-24.3,24.4-63.8,24.4-88.2,0c-24.3-24.4-24.3-64,0-88.4
	C455.6,814.2,495.1,814.2,519.5,838.6"/>
<path class="st160" d="M962,1559.6l81.9-98.8l-240.6-23.3l12.9,51.5L962,1559.6z"/>
<path class="st161" d="M879.9,1625.3l0.9-28.1L858,1907.6l-169.9-423.1L879.9,1625.3z"/>
<path class="st162" d="M1051,958c2.5-51.4,44.1-80.3,93-64.6c48.9,15.7,86.5,70,84,121.4c-2.5,51.4-44.1,80.3-92.9,64.6
	C1086.1,1063.7,1048.6,1009.3,1051,958"/>
<path class="st163" d="M1745.6,718.8l-257.2-187.5l171.4-62.5L1745.6,718.8z"/>
<path class="st164" d="M1885.9,546.9l-7.8-78.1l233.8,93.8L1885.9,546.9z"/>
<path class="st165" d="M1101.3,1246.8c48.7,6.1,48.7,16,0,22.1c-48.7,6.1-127.6,6.1-176.3,0c-48.7-6.1-48.7-16,0-22.1
	C973.6,1240.7,1052.6,1240.7,1101.3,1246.8"/>
<path class="st166" d="M1604.3,847.4l-136.4,628.5l163.5,83.7l-287-134.1L1604.3,847.4z"/>
<path class="st167" d="M946.1,872.6l-24.1,132.8l69.5-175.6l-123.2,65.9L946.1,872.6z"/>
<path class="st168" d="M727.5,273.5c47.5-32.3,64.1-17.4,36.9,33.3c-27.2,50.8-87.8,118.1-135.3,150.5s-64.1,17.4-36.9-33.3
	C619.3,373.2,679.9,305.8,727.5,273.5"/>
<path class="st169" d="M755.9,804.7h85.7v15.6h-85.7V804.7z"/>
<path class="st170" d="M619.9,853.6l-4-6.7l73.5-44.3l4,6.7L619.9,853.6z"/>
<path class="st171" d="M352,1704c-12.4-56.6,24.3-103.9,82.1-105.6c57.7-1.8,114.6,42.7,127,99.2c12.4,56.6-24.3,103.9-82.1,105.6
	S364.4,1760.5,352,1704"/>
<path class="st172" d="M1279.2,865.9l-147.6-46.8l141.4-47.5l-83.5,158.7L1279.2,865.9z"/>
<path class="st173" d="M1044.4,2043.5c85.5,61,72.9,87.5-28.2,59.1c-101.1-28.3-252.3-100.7-337.8-161.7s-72.9-87.5,28.2-59.1
	C807.7,1910.1,958.9,1982.5,1044.4,2043.5"/>
<path class="st174" d="M1052.1,187.5l-420.8-15.6l615.6-234.4L1052.1,187.5z"/>
<path class="st175" d="M1410.5,1039.1l-70.1,85.9l46.8-257.8L1410.5,1039.1z"/>
<path class="st176" d="M690.5,1342.2l165.6,296.9l-186-229.1l-45.1-73.6L690.5,1342.2z"/>
<path class="st177" d="M1605.4,179.7h179.2v85.9h-179.2V179.7z"/>
<path class="st178" d="M1387.1,265.6h397.4v54.7h-397.4V265.6z"/>
<path class="st0" d="M950.7,835.9h101.3v15.6H950.7V835.9z"/>
<path class="st179" d="M529.9,1023.4L140.3,1125l187-171.9L529.9,1023.4z"/>
<path class="st180" d="M852.8,1516.8l-165.6-293.2l103.7,50.2l72.8,18.5L852.8,1516.8z"/>
<path class="st181" d="M1803.7,1692.5l92.1,1.6l-27.4,179.7l243.5-49.7L1803.7,1692.5z"/>
<path class="st182" d="M1347.4,178.6l41.5-97.2L1214.7-125l108,289.7L1347.4,178.6z"/>
<path class="st183" d="M1207.9,1275.4l-22.4,98.7l-193.7-27.9l244.2-93.9L1207.9,1275.4z"/>
<path class="st184" d="M1291.1,1683.6l5.6,178.8L1193,2047l209-265L1291.1,1683.6z"/>
<path class="st185" d="M1574.2,1695.3l-116.9-164.1l-116.9,195.3L1574.2,1695.3z"/>
<path class="st186" d="M363.3,74.5c39.4-7,53.5,14.4,31.5,47.9s-71.7,66.4-111.1,73.4s-53.5-14.4-31.5-47.9
	C274.2,114.5,323.9,81.6,363.3,74.5"/>
<path class="st187" d="M572.6,456.7l-28.3,78.5l89.9,19.4l14.2-103.9L572.6,456.7z"/>
<path class="st188" d="M1815.8,1375l296.1,46.9L1574.2,1125L1815.8,1375z"/>
<path class="st189" d="M1084.2,1643.5c-28.8,26.3-82.7,39.4-120.3,29.3s-44.8-39.7-16-66c28.8-26.3,82.7-39.4,120.3-29.3
	C1105.9,1587.7,1113,1617.2,1084.2,1643.5"/>
<path class="st190" d="M1137.3,1542.6l222.4-287.5l98.2-359.3l17.4,311.2L1137.3,1542.6z"/>
<path class="st191" d="M1917.3,452.9c-25-32.3-13.9-69,24.7-82c38.6-13.1,90.1,2.5,115.1,34.8c25,32.3,13.9,69-24.7,82
	C1993.8,500.7,1942.3,485.1,1917.3,452.9"/>
<path class="st192" d="M561.6-105c30.4,58,30.4,152,0,209.9c-30.4,58-79.8,58-110.2,0C421,47,421-47,451.4-105
	C481.9-162.9,531.2-162.9,561.6-105"/>
<path class="st193" d="M1928.1,604.2l18.6,102.6l165.2-7.3V480L1928.1,604.2z"/>
<path class="st194" d="M832.5,972c50.7-20,70.3,2.4,43.7,50.1c-26.5,47.7-89.1,102.6-139.8,122.6c-50.7,20-70.3-2.4-43.7-50.1
	C719.2,1046.9,781.8,992,832.5,972"/>
<path class="st195" d="M381.9,617.2h132.5v203.1H381.9V617.2z"/>
<path class="st196" d="M1073,1188.8c25-23.4,71.9-34.5,104.8-24.9c32.8,9.6,39.2,36.3,14.1,59.6c-25,23.4-71.9,34.5-104.8,24.9
	C1054.3,1238.8,1048,1212.1,1073,1188.8"/>
<path class="st197" d="M1518.3,954.5c12.2,12.2,12.2,32,0,44.2c-12.2,12.2-31.9,12.2-44.1,0c-12.2-12.2-12.2-32,0-44.2
	C1486.4,942.3,1506.1,942.3,1518.3,954.5"/>
<path class="st198" d="M1228.5,870l-13.2,28.3l-105.9-49.5l13.2-28.3L1228.5,870z"/>
<path class="st199" d="M1597.6,640.6h70.1v335.9h-70.1V640.6z"/>
<path class="st200" d="M1447.6,1004.1l178.1-485.2L1507,608.9l1.4,329.5L1447.6,1004.1z"/>
<path class="st201" d="M1524.7,1727.9c24.3,12.2,24.3,32,0,44.2c-24.3,12.2-63.8,12.2-88.2,0c-24.3-12.2-24.3-32,0-44.2
	C1460.9,1715.7,1500.4,1715.7,1524.7,1727.9"/>
<path class="st202" d="M255.1,699.8c-46.4-12.7-80.2-61.9-75.6-109.9c4.7-48,46-76.6,92.4-63.9s80.2,61.9,75.6,109.9
	C342.9,683.9,301.5,712.5,255.1,699.8"/>
<path class="st203" d="M1396.9,1795.2l429.8,312.2l-663-33.9l245.8-175.5L1396.9,1795.2z"/>
<path class="st204" d="M1759.5,300.5c33.5,15.3,33.5,40,0,55.2c-33.5,15.3-87.7,15.3-121.2,0c-33.5-15.3-33.5-40,0-55.2
	C1671.7,285.2,1726,285.2,1759.5,300.5"/>
<path class="st205" d="M1248.7,90.9c-9.8-21.8-16.4-58.7-14.7-82.6c1.7-23.8,11.1-25.5,21-3.7c9.8,21.8,16.4,58.7,14.7,82.6
	C1267.9,111,1258.5,112.7,1248.7,90.9"/>
<path class="st206" d="M1075,1416.6l-102,23.2l74.5-88.5l61.2,39.4L1075,1416.6z"/>
<path class="st207" d="M1917.1,234.4l-7.8,85.9l202.6,70.3L1917.1,234.4z"/>
<path class="st208" d="M634.5,894.6c6.1,36.6,6.1,96,0,132.6c-6.1,36.6-16,36.6-22,0c-6.1-36.6-6.1-96,0-132.6
	C618.5,858,628.4,858,634.5,894.6"/>
<path class="st209" d="M561.1,1132c-9,43.2-17.8,42.4-19.6-1.6c-1.8-44.1,4-114.8,13.1-157.9c9-43.2,17.8-42.4,19.6,1.6
	C576,1018.1,570.1,1088.8,561.1,1132"/>
<path class="st210" d="M499.7,947.5l97.7-116.8L353.1,953.1l149.7,68.9L499.7,947.5z"/>
<path class="st211" d="M600.1,875h-46.8v31.2h46.8V875z"/>
<path class="st212" d="M1519.9,703.8c9,38.7-11.3,53.6-45.4,33.3c-34.1-20.4-69-68.3-78.1-107c-9-38.7,11.3-53.6,45.4-33.3
	C1476,617.1,1510.9,665,1519.9,703.8"/>
<path class="st213" d="M1038.3,815.7l103.4,11.2l-86.2,85.7l49.9-187L1038.3,815.7z"/>
<path class="st214" d="M1397,816.5l-27.9,72.9l-7.3-2.8l27.9-72.9L1397,816.5z"/>
<path class="st215" d="M1475.3,412.2l-159.4-233.5l-161.9-31l171.3,149.9L1475.3,412.2z"/>
<path class="st216" d="M1885.9,1570.3l163.7-101.6l62.3,367.2L1885.9,1570.3z"/>
<path class="st217" d="M1228.4,1224.2l3.4,7l-91.1,44.5l-3.4-7L1228.4,1224.2z"/>
<path class="st218" d="M695.8,1892.1c9.8,33.5-4.9,43.8-32.9,23c-28-20.8-58.7-64.9-68.5-98.4s4.9-43.9,32.9-23
	C655.3,1814.5,686,1858.6,695.8,1892.1"/>
<path class="st219" d="M891.1,193.4l-98.7,60.8l-75.6-14L654.5,46.1L891.1,193.4z"/>
<path class="st220" d="M116.9,1664.1l350.7-359.4l-568.9,328.1L116.9,1664.1z"/>
<path class="st221" d="M485.9,2048.8c-51.5,35.6-113,17.6-137.3-40.2c-24.3-57.8-2.2-133.5,49.3-169.1
	c51.5-35.6,113-17.6,137.3,40.2C559.5,1937.6,537.4,2013.3,485.9,2048.8"/>
<path class="st222" d="M171.7,1267l6.8-175.1L-8.3,1217.3l66,184L171.7,1267z"/>
<path class="st223" d="M1235.3,242.2l107.1,89.3l-252.2-5.8l172.5,52.1L1235.3,242.2z"/>
<path class="st224" d="M800.7,1242.6l4.4-6.5l77.5,52.4l-4.4,6.5L800.7,1242.6z"/>
<path class="st225" d="M-124.7,546.9l257.2-109.4l-257.2-148.4V546.9z"/>
<path class="st226" d="M687.8,1346.5c-20.3-53.5-4.1-63.9,36.1-23.3c40.2,40.7,89.2,117,109.5,170.5c20.3,53.5,4.1,63.9-36.1,23.3
	C757.1,1476.4,708.1,1400.1,687.8,1346.5"/>
<path class="st227" d="M-121.3,1868.4l137.1-46.5l-140.5-305.4l266.3,265L-121.3,1868.4z"/>
<path class="st228" d="M916.3,1096.7c-25.9,35.9-34.1,31.4-18.4-10c15.7-41.4,49.5-104.1,75.4-140c25.9-35.9,34.1-31.4,18.4,10
	C975.9,998.2,942.2,1060.8,916.3,1096.7"/>
<path class="st229" d="M1722.2,390.6l-226,31.2l-7.8,140.6L1722.2,390.6z"/>
<path class="st230" d="M522.7,1909.5c-29.2,42.2-36.9,37.9-17.3-9.5c19.7-47.4,59.3-120,88.5-162.2c29.2-42.2,36.9-37.9,17.3,9.5
	C591.5,1794.7,551.9,1867.4,522.7,1909.5"/>
<path class="st231" d="M1433.9,703.1h31.2v93.8h-31.2V703.1z"/>
<path class="st232" d="M681.6,1292.6l19.6-68.6l185.2-157.3l-161.1,53.9L681.6,1292.6z"/>
<path class="st233" d="M1560.2,1082.4L1512.1,933l599.8,307.7l-512.4-157.1L1560.2,1082.4z"/>
<path class="st234" d="M1343.7,1313.5l-81.9,69.6l-61.8-238.4l47.3,25.6L1343.7,1313.5z"/>
<path class="st235" d="M771.5,1906.2L662.4,1875l39-382.8L771.5,1906.2z"/>
<path class="st236" d="M857.7,1653.7l125.4,250.5l13-206.4L736.3,1524L857.7,1653.7z"/>
<path class="st237" d="M1332.6,828.1h15.6v70.3h-15.6V828.1z"/>
<path class="st238" d="M101.3,1070.3l-171.4,171.9l85.7-234.4L101.3,1070.3z"/>
<path class="st239" d="M818.3,976.6l-163.7,156.2l31.2-218.8L818.3,976.6z"/>
<path class="st240" d="M1781.3,1745.6l125.6,10.5l-79.5,111.3l-55.7-19.2L1781.3,1745.6z"/>
<path class="st241" d="M704.6,445.2l2.1,84.3l444,11.9l-133.6-82.6L704.6,445.2z"/>
<path class="st242" d="M1436.5,652.9l-38.7,142.6l-54-400l116.7,331.3L1436.5,652.9z"/>
<path class="st243" d="M1438.1,411.6c15.2,48.8,15.2,128,0,176.8c-15.2,48.8-39.9,48.8-55.1,0c-15.2-48.8-15.2-128,0-176.8
	C1398.2,362.8,1422.9,362.8,1438.1,411.6"/>
<path class="st244" d="M1693.3,1273.6c44,44.3,30.1,70-31,57.4c-61.1-12.6-146.2-58.8-190.2-103.1c-44-44.3-30.1-70,31-57.4
	C1564.2,1183.1,1649.4,1229.3,1693.3,1273.6"/>
<path class="st245" d="M1358.8,604.6c27.4,45.8,27.4,120,0,165.7c-27.4,45.8-71.8,45.8-99.2,0c-27.4-45.8-27.4-120,0-165.7
	C1287,558.9,1331.4,558.9,1358.8,604.6"/>
<path class="st246" d="M891.3,1475.1l211.3,38.5L1221,1452l-29-46.6L891.3,1475.1z"/>
</svg>
