<svg version="1.1" id="Layer_1" xmlns="http://www.w3.org/2000/svg" x="0" y="0" viewBox="0 0 1995 2000" xml:space="preserve"><style>.st0,.st1{fill-opacity:.502}.st1{fill:#fff8fd}.st2,.st3,.st4,.st5{fill:#ffffa1;fill-opacity:.502}.st3,.st4,.st5{fill:#741a0b}.st4,.st5{fill:#641310}.st5{fill:#fef}.st6,.st7,.st8,.st9{fill:#90130b;fill-opacity:.502}.st7,.st8,.st9{fill:#5c2120}.st8,.st9{fill:#4f2219}.st9{fill:#ffd66b}.st10,.st11,.st12{fill:#fffca2;fill-opacity:.502}.st11,.st12{fill:#120015}.st12{fill:#a16246}.st13,.st14,.st15{fill:#924d2b;fill-opacity:.502}.st14,.st15{fill:#873c23}.st15{fill:#fff4ff}.st16,.st17,.st18{fill:#1f0926;fill-opacity:.502}.st17,.st18{fill:#d5d57d}.st18{fill:#6e0e00}.st19,.st20,.st21{fill:#ffae64;fill-opacity:.502}.st20,.st21{fill:#ffd7b2}.st21{fill:#f7a5ae}.st22,.st23,.st24{fill:#a2604c;fill-opacity:.502}.st23,.st24{fill:#582817}.st24{fill:#eff9ff}.st25,.st26,.st27{fill:#ffc4ca;fill-opacity:.502}.st26,.st27{fill:#f19a37}.st27{fill:#710c05}.st28,.st29,.st30{fill:#ffd1c3;fill-opacity:.502}.st29,.st30{fill:#ffe7a9}.st30{fill:#f88054}.st31,.st32,.st33{fill:#2f0000;fill-opacity:.502}.st32,.st33{fill:#c1bc51}.st33{fill:#fff4bb}.st34,.st35,.st36{fill:#e8b297;fill-opacity:.502}.st35,.st36{fill:#f8deb9}.st36{fill:#f19ea1}.st37,.st38,.st39{fill:#ffc6ab;fill-opacity:.502}.st38,.st39{fill:#fede84}.st39{fill:#ffc773}.st40,.st41,.st42{fill:#fbd1d1;fill-opacity:.502}.st41,.st42{fill:#3c242d}.st42{fill:#ba817e}.st43,.st44,.st45{fill:#db9f79;fill-opacity:.502}.st44,.st45{fill:#983f01}.st45{fill:#d36939}.st46,.st47,.st48{fill:#ffd579;fill-opacity:.502}.st47,.st48{fill:#0a0000}.st48{fill:#837544}.st49,.st50,.st51{fill:#9c4f4e;fill-opacity:.502}.st50,.st51{fill:#ffd0cd}.st51{fill:#f1ddd0}.st52,.st53,.st54{fill:#ffdfdc;fill-opacity:.502}.st53,.st54{fill:#e38076}.st54{fill:#d4aaae}.st55,.st56,.st57{fill:#842506;fill-opacity:.502}.st56,.st57{fill:#ffeca7}.st57{fill:#8c3c22}.st58,.st59,.st60{fill:#f8d287;fill-opacity:.502}.st59,.st60{fill:#936e4f}.st60{fill:#e4c4a5}.st61,.st62,.st63{fill:#ffe38e;fill-opacity:.502}.st62,.st63{fill:#aaae3c}.st63{fill:#edc59d}.st64,.st65,.st66{fill:#d9926f;fill-opacity:.502}.st65,.st66{fill:#090000}.st66{fill:#e5dfa5}.st67,.st68,.st69{fill:#541e00;fill-opacity:.502}.st68,.st69{fill:#f82500}.st69{fill:#220810}.st70,.st71,.st72{fill:#b39f5b;fill-opacity:.502}.st71,.st72{fill:#be6652}.st72{fill:#4a0000}.st73,.st74,.st75{fill:#722300;fill-opacity:.502}.st74,.st75{fill:#936754}.st75{fill:#86392c}.st76,.st77,.st78{fill:#b5b741;fill-opacity:.502}.st77,.st78{fill:#713d1e}.st78{fill:#d38a6f}.st79,.st80,.st81{fill:#61382b;fill-opacity:.502}.st80,.st81{fill:#fac095}.st81{fill:#fabaaf}.st82,.st83,.st84{fill:#ea844f;fill-opacity:.502}.st83,.st84{fill:#5a4547}.st84{fill:#ebcd5c}.st85,.st86,.st87{fill:#513d37;fill-opacity:.502}.st86,.st87{fill:#e2a9af}.st87{fill:#fff8e7}.st88,.st89,.st90{fill:#dd8365;fill-opacity:.502}.st89,.st90{fill:#bb5d0e}.st90{fill:#b6916b}.st91,.st92,.st93{fill:#fffad1;fill-opacity:.502}.st92,.st93{fill:#881d01}.st93{fill:#ca7f5f}.st94,.st95,.st96{fill:#ffcd99;fill-opacity:.502}.st95,.st96{fill:#ffd2cb}.st96{fill:#f7cfd5}.st97,.st98,.st99{fill:#eab3a7;fill-opacity:.502}.st98,.st99{fill:#c47663}.st99{fill:#fcbc84}.st100,.st101,.st102{fill:#5b1d07;fill-opacity:.502}.st101,.st102{fill:#c09c75}.st102{fill:#ffd66d}.st103,.st104,.st105{fill:#db8933;fill-opacity:.502}.st104,.st105{fill:#ce9081}.st105{fill:#ccc474}.st106,.st107,.st108{fill:#1b0405;fill-opacity:.502}.st107,.st108{fill:#fdd594}.st108{fill:#c27564}.st109,.st110,.st111{fill:#cd9990;fill-opacity:.502}.st110,.st111{fill:#fff3cf}.st111{fill:#75310f}.st112,.st113,.st114{fill:#eeab95;fill-opacity:.502}.st113,.st114{fill:#9a2913}.st114{fill:#d6b799}.st115,.st116,.st117{fill:#fdcd72;fill-opacity:.502}.st116,.st117{fill:#c95c15}.st117{fill:#e8b1a9}.st118,.st119,.st120{fill:#efc670;fill-opacity:.502}.st119,.st120{fill:#fff0ca}.st120{fill:#7b2700}.st121,.st122,.st123{fill:#afa551;fill-opacity:.502}.st122,.st123{fill:#f59450}.st123{fill:#bd0100}.st124,.st125,.st126{fill:#483034;fill-opacity:.502}.st125,.st126{fill:#ead4bd}.st126{fill:#ce3400}.st127,.st128,.st129{fill:#f69f8f;fill-opacity:.502}.st128,.st129{fill:#d69369}.st129{fill:#4c1700}.st130,.st131,.st132{fill:#f2b05f;fill-opacity:.502}.st131,.st132{fill:#9f604c}.st132{fill:#ea9e86}.st133,.st134,.st135{fill:#b1602e;fill-opacity:.502}.st134,.st135{fill:#271b3a}.st135{fill:#b57b6a}.st136,.st137,.st138{fill:#f6c997;fill-opacity:.502}.st137,.st138{fill:#f0b158}.st138{fill:#ffe88f}.st139,.st140,.st141{fill:#d2ad55;fill-opacity:.502}.st140,.st141{fill:#ebcb90}.st141{fill:#e3cd6e}.st142,.st143,.st144{fill:#ffd6da;fill-opacity:.502}.st143,.st144{fill:#7d5d51}.st144{fill:#f0c48d}.st145,.st146,.st147{fill:#331e23;fill-opacity:.502}.st146,.st147{fill:#f2c493}.st147{fill:#977654}.st148,.st149,.st150{fill:#1d0000;fill-opacity:.502}.st149,.st150{fill:#ffc1aa}.st150{fill:#fbaa98}.st151,.st152,.st153{fill:#a67763;fill-opacity:.502}.st152,.st153{fill:#ffcbb6}.st153{fill:#ecd199}.st154,.st155,.st156{fill:#dcb385;fill-opacity:.502}.st155,.st156{fill:#cfda64}.st156{fill:#d36d93}.st157,.st158,.st159{fill:#dc9d8f;fill-opacity:.502}.st158,.st159{fill:#ebe2dd}.st159{fill:#eecaa0}.st160,.st161,.st162{fill:#e2b6ae;fill-opacity:.502}.st161,.st162{fill:#ad7153}.st162{fill:#d79893}.st163,.st164,.st165{fill:#fde07f;fill-opacity:.502}.st164,.st165{fill:#a78b56}.st165{fill:#ab2d09}.st166,.st167,.st168{fill:#ffdf9b;fill-opacity:.502}.st167,.st168{fill:#4e2c2b}.st168{fill:#714a38}.st169,.st170,.st171{fill:#d9a690;fill-opacity:.502}.st170,.st171{fill:#1c0000}.st171{fill:#efbd6d}.st172,.st173,.st174{fill:#ba745d;fill-opacity:.502}.st173,.st174{fill:#d0aaa6}.st174{fill:#ecceae}.st175,.st176,.st177{fill:#ffd49a;fill-opacity:.502}.st176,.st177{fill:#81421b}.st177{fill:#f7c784}.st178,.st179,.st180{fill:#c3a960;fill-opacity:.502}.st179,.st180{fill:#f4a364}.st180{fill:#dca695}.st181,.st182,.st183{fill:#d6c76b;fill-opacity:.502}.st182,.st183{fill:#bda58f}.st183{fill:#f4ada8}.st184,.st185,.st186{fill:#fbc6af;fill-opacity:.502}.st185,.st186{fill:#e0ae70}.st186{fill:#d9b7a7}.st187,.st188,.st189{fill:#785041;fill-opacity:.502}.st188,.st189{fill:#ffdb82}.st189{fill:#6c1800}.st190,.st191,.st192{fill:#f7a27d;fill-opacity:.502}.st191,.st192{fill:#dcd9ae}.st192{fill:#f4f8fa}.st193,.st194,.st195{fill:#e6e2b8;fill-opacity:.502}.st194,.st195{fill:#dd968d}.st195{fill:#bb9870}.st196,.st197,.st198{fill:#d7825d;fill-opacity:.502}.st197,.st198{fill:#f54600}.st198{fill:#591c00}.st199,.st200,.st201{fill:#ffe5b2;fill-opacity:.502}.st200,.st201{fill:#f2d788}.st201{fill:#ffdebd}.st202,.st203,.st204{fill:#f6b17d;fill-opacity:.502}.st203,.st204{fill:#3f282e}.st204{fill:#a99649}.st205,.st206,.st207{fill:#806334;fill-opacity:.502}.st206,.st207{fill:#d6816b}.st207{fill:#b8ad5b}.st208,.st209,.st210{fill:#dc9f8a;fill-opacity:.502}.st209,.st210{fill:#ea998c}.st210{fill:#dab488}.st211,.st212,.st213{fill:#3d1100;fill-opacity:.502}.st212,.st213{fill:#b17d63}.st213{fill:#c56240}.st214,.st215,.st216{fill:#280000;fill-opacity:.502}.st215,.st216{fill:#f0d393}.st216{fill:#ffd554}.st217,.st218,.st219{fill:#3f0700;fill-opacity:.502}.st218,.st219{fill:#dfb2a1}.st219{fill:#e6c3a7}.st220,.st221,.st222{fill:#e4b057;fill-opacity:.502}.st221,.st222{fill:#382429}.st222{fill:#f4c66d}.st223,.st224,.st225{fill:#865137;fill-opacity:.502}.st224,.st225{fill:#1e0000}.st225{fill:#b86b4b}.st226,.st227,.st228{fill:#a56a53;fill-opacity:.502}.st227,.st228{fill:#e2ca8e}.st228{fill:#fab6b0}.st229,.st230,.st231{fill:#cbcc63;fill-opacity:.502}.st230,.st231{fill:#462921}.st231{fill:#8e3807}.st232,.st233,.st234{fill:#a14228;fill-opacity:.502}.st233,.st234{fill:#fdd185}.st234{fill:#d98668}.st235,.st236,.st237{fill:#d29c8b;fill-opacity:.502}.st236,.st237{fill:#8e5535}.st237{fill:#ffd7be}.st238,.st239,.st240{fill:#ac9c63;fill-opacity:.502}.st239,.st240{fill:#e9b1a5}.st240{fill:#e9d3b1}.st241,.st242,.st243{fill:#ffdbd6;fill-opacity:.502}.st242,.st243{fill:#c28271}.st243{fill:#9c6957}.st244,.st245,.st246{fill:#ffeec1;fill-opacity:.502}.st245,.st246{fill:#ffcfb7}.st246{fill:#f2b9b4}</style><path class="st0" d="M301.6 1893L-112 2117.2h895.4l-208.2-330.9L301.6 1893zM1457.3 1781.2l-272.8 335.9 927.4-39.1-654.6-296.8z"/><path class="st1" d="M249.4 492.2L-15.6-125 1192.3 15.6 249.4 492.2z"/><path class="st2" d="M2040.9 1133.7c167.4 167.8 167.4 439.9 0 607.7s-438.8 167.8-606.2 0-167.4-439.9 0-607.7 438.8-167.8 606.2 0"/><path class="st3" d="M999.4 2117.2l76.4-353.3 125.7-201.6-498-118.2 295.9 673.1z"/><path class="st4" d="M627.9 886.4c-192.1-22.9-192.3-61.6-.5-86.6 191.8-24.9 503-26.6 695-3.7 192.1 22.9 192.3 61.6.5 86.6s-502.9 26.6-695 3.7"/><path class="st5" d="M1270.6 545.8c113 96.8 85 190.6-62.4 209.5S849.6 711 736.6 614.1s-85-190.6 62.4-209.5c147.5-18.9 358.6 44.4 471.6 141.2"/><path class="st6" d="M1216.6 1123.5c133.9 39.7 133.9 104 0 143.6-133.9 39.7-351 39.7-484.9 0-133.9-39.7-133.9-104 0-143.6 133.9-39.7 351-39.7 484.9 0"/><path class="st7" d="M904 171.9l537.7 179.7-857.2 31.2L904 171.9z"/><path class="st8" d="M592.3 1007.8l77.9-695.3-187 351.6 109.1 343.7z"/><path class="st9" d="M-124.7 2007.8l865-328.1L413 750l-537.7 1257.8z"/><path class="st10" d="M1695.8 565.5c45.6 222.7 45.6 583.8 0 806.5-45.7 222.7-119.7 222.7-165.3 0-45.6-222.7-45.6-583.8 0-806.5 45.6-222.7 119.7-222.7 165.3 0"/><path class="st11" d="M672.7 2110.5l-90.8-390.6-86.6 81.1-620 316.1 797.4-6.6z"/><path class="st12" d="M-31.2 1117.2l327.3-78.1L-124.7-125l93.5 1242.2z"/><path class="st13" d="M1324.8 312.5l140.3 710.9 46.8-546.9-187.1-164z"/><path class="st14" d="M799.2 1710.6l-218.7-492.5 85.4-38.1 218.7 492.5-85.4 38.1z"/><path class="st15" d="M1043.9 891.4c21.3 42.7 21.3 112 0 154.7-21.3 42.7-55.8 42.7-77.2 0-21.3-42.7-21.3-112 0-154.7 21.3-42.7 55.9-42.7 77.2 0"/><path class="st16" d="M1278 2046.9l132.5-234.4 685.8 242.2-818.3-7.8z"/><path class="st17" d="M1324.9 182.3c-86-360 140.7-610.5 506.5-559.4 365.8 51.1 732 384.4 818.1 744.4 86 360-140.7 610.5-506.5 559.4-365.8-51.1-732.1-384.4-818.1-744.4"/><path class="st18" d="M989.7 1703.1l-155.9-117.2 420.8-78.1-264.9 195.3z"/><path class="st19" d="M1052.1 1789.1l678-156.2-374.1-547-303.9 703.2z"/><path class="st20" d="M1946.6 1764.5l-750.2-740.4 122.5-216.8 477.1 625.2 150.6 332z"/><path class="st21" d="M748.1 1281.2L865 1570.3l545.5-242.2-662.4-46.9z"/><path class="st22" d="M1444 529.5L926.2 386.1l176.4-215.8 299 166.9 42.4 192.3z"/><path class="st23" d="M951.9 250.1l-214.6 11.1-165 185.1 33.6 36.1 346-232.3z"/><path class="st24" d="M626.2 33.3c9.1 94.4-48.9 211.1-129.6 260.7-80.7 49.5-153.5 13.1-162.7-81.3C324.8 118.2 382.8 1.5 463.5-48c80.8-49.5 153.6-13.1 162.7 81.3"/><path class="st25" d="M701.6 531c67.3-6.5 134.9 41.6 151 107.5 16.1 65.9-25.5 124.5-92.8 131s-134.9-41.6-151-107.5c-16.1-65.8 25.5-124.5 92.8-131"/><path class="st26" d="M304 1509.9c-106.4 69.1-293.9 107.8-418.8 86.3-124.9-21.5-140-94.9-33.6-164s293.9-107.8 418.8-86.3c124.9 21.5 140 94.9 33.6 164"/><path class="st27" d="M691.3 805.1l-163.6 234.6-23.6-78 129.6-145.1 57.6-11.5z"/><path class="st28" d="M1387.1 812.5l-23.4-359.4-280.5 250 303.9 109.4z"/><path class="st29" d="M1379.4 281.2L896.2 93.8l623.4 46.9-140.2 140.5z"/><path class="st30" d="M1182.2 771.2l285.9 370 81-178.9-48.4-22.9-318.5-168.2z"/><path class="st31" d="M1059.6 835c73 9.1 73 24 0 33.1-73 9.2-191.5 9.2-264.5 0-73-9.1-73-24 0-33.1 73.1-9.2 191.5-9.2 264.5 0"/><path class="st32" d="M1574.2 54.7l475.4 921.9-249.4 140.6-226-1062.5z"/><path class="st33" d="M1565.3 1180.6l46.7 337.8 393.3-23.5L2070 1186l-504.7-5.4z"/><path class="st34" d="M529.9 718.8L226-125l-350.7 289.1 654.6 554.7z"/><path class="st35" d="M740.3 242.2l428.6-109.4V-125L740.3 242.2z"/><path class="st36" d="M1117.5 1124.9l-18.4 166.4 305-382.7-930.7 172.3 644.1 44z"/><path class="st37" d="M1036.5 2117.2l319.5-710.9v500l-319.5 210.9z"/><path class="st38" d="M1772.6 1895.2c-114.7-118.2-130.5-323.1-35.4-457.6 95.2-134.5 265.3-147.7 380-29.5 114.7 118.2 130.5 323.1 35.4 457.6-95.2 134.5-265.3 147.8-380 29.5"/><path class="st39" d="M561.1 1015.6l148.1 710.9-833.8-515.6 685.7-195.3z"/><path class="st40" d="M1749.8-53.6c23.4-60 84.5-77.9 136.4-39.8 51.9 38 75 117.5 51.6 177.6-23.4 60-84.5 77.9-136.4 39.8-51.9-38.1-75-117.6-51.6-177.6"/><path class="st41" d="M1363.8 1710.9l155.9 335.9-39-250-116.9-85.9z"/><path class="st42" d="M709.2 1898.4l-23.4-421.9 475.4 593.8-452-171.9z"/><path class="st43" d="M-124.7 445.3l685.8 23.4L436.4 1125l-561.1-679.7z"/><path class="st44" d="M1448.2 731c12.2 58 12.2 152 0 209.9-12.2 58-31.9 58-44.1 0-12.2-58-12.2-152 0-209.9 12.1-58 31.9-58 44.1 0"/><path class="st45" d="M1058.1 1702.2l301.4-438.4-390.8-463 406.5 614.4-317.1 287z"/><path class="st46" d="M1433.9 851.6l413 531.2-101.3-601.6-311.7 70.4z"/><path class="st47" d="M784.2 1265.5l8.1-38.2L899 1250l-8.1 38.2-106.7-22.7z"/><path class="st48" d="M1196.5-127.6c46.3 55.4 96.7 157.5 112.7 227.9 16 70.5-8.6 82.7-54.8 27.2-46.3-55.4-96.7-157.5-112.7-227.9s8.5-82.6 54.8-27.2"/><path class="st49" d="M818.4 1155.3l-32.7-21.3 157-242.4 32.7 21.3-157 242.4z"/><path class="st50" d="M1268.3 654.7c80.6 109.7 41 164.7-88.3 122.8-129.3-41.9-299.4-164.9-380-274.6s-41-164.7 88.3-122.8c129.3 41.9 299.4 164.8 380 274.6"/><path class="st51" d="M639 390.6L62.3 304.7l70.1-210.9L639 390.6z"/><path class="st52" d="M1028.7 867.2l101.3 242.2-194.8-39.1 93.5-203.1z"/><path class="st53" d="M865.7 831.2l440.2-47.9L959 699.6l-8.3 120.9-85 10.7z"/><path class="st54" d="M680 1682.2l-87.5 81.6 24.6 133.5 226.8 219.9-163.9-435z"/><path class="st55" d="M1032.1 1162.6c11.3 34.4-8.4 67.1-44 73-35.6 6-73.6-17.1-84.9-51.5-11.3-34.4 8.4-67.1 44-73 35.6-6 73.6 17.1 84.9 51.5"/><path class="st56" d="M1652.2 1043l-59.2-56.2-107.6-465L1720.1 677l-67.9 366z"/><path class="st57" d="M1059.8 765.6h148.1v132.8h-148.1V765.6z"/><path class="st58" d="M513.7 1633.6c94.3 42.7 94.3 112 0 154.7-94.3 42.7-247.3 42.7-341.6 0-94.3-42.7-94.3-112 0-154.7 94.3-42.7 247.3-42.7 341.6 0"/><path class="st59" d="M-7 767.5c89.3-.8 190.6 65.1 226.2 147.2 35.6 82.1-7.9 149.3-97.2 150.1-89.3.8-190.6-65.1-226.2-147.2-35.7-82.1 7.9-149.3 97.2-150.1"/><path class="st60" d="M576.7 851.6L366.3 1000V812.5l210.4 39.1z"/><path class="st61" d="M1457.3 1171.9l-163.7 343.8 374.1-7.8-210.4-336z"/><path class="st62" d="M-81.2 1876.7c-40.9-38.8-28.6-75.3 27.3-81.6 55.9-6.3 134.3 20 175.2 58.8s28.6 75.3-27.3 81.6c-55.9 6.3-134.3-20-175.2-58.8"/><path class="st63" d="M649.4 194.9c129.6-86.8 159.4-55.4 66.7 70.1s-273 297.7-402.5 384.5c-129.6 86.8-159.4 55.4-66.7-70.1s272.9-297.7 402.5-384.5"/><path class="st64" d="M226.9 125C184 105.3 151.7 51 154.7 3.8S195-65.7 237.9-46c42.9 19.7 75.2 74 72.2 121.2-3 47.3-40.3 69.6-83.2 49.8"/><path class="st65" d="M1356 812.5h31.2V875H1356v-62.5z"/><path class="st66" d="M2180.9 546.3l-347 302.4-71.6-82.5 347-302.4 71.6 82.5z"/><path class="st67" d="M588.6 708.1c15.2 27.5 15.2 72 0 99.4-15.2 27.5-39.9 27.5-55.1 0-15.2-27.5-15.2-72 0-99.4 15.3-27.5 39.9-27.5 55.1 0"/><path class="st68" d="M1491.1 1023.4l-18.2-59.8 59.6-18.3 18.2 59.8-59.6 18.3z"/><path class="st69" d="M812.1 2161.1L418 1894.6l47.9-71.2L860 2089.8l-47.9 71.3z"/><path class="st70" d="M1520.5 237l116.1 190.7 475.3-127.4-316.6.7-274.8-64z"/><path class="st71" d="M1040.2 1363c36.5 15.3 36.5 40 0 55.2-36.5 15.2-95.7 15.2-132.2 0-36.5-15.3-36.5-40 0-55.2 36.5-15.2 95.7-15.2 132.2 0"/><path class="st72" d="M1179.9 1249.9c24.5 1 25.4 8 2.1 15.5-23.3 7.5-62 12.8-86.5 11.8s-25.4-8-2.1-15.5c23.3-7.6 62.1-12.9 86.5-11.8"/><path class="st73" d="M981.9 1710.9L826 1593.7l366.3-23.4-210.4 140.6z"/><path class="st74" d="M748.4 278.7l267.2-92.3 209.9 40.4 115.7 87.5-592.8-35.6z"/><path class="st75" d="M965.7 940.1l3.2-47.9-39.1-138.6-142.2 11.1 178.1 175.4z"/><path class="st76" d="M1942.2 549.3c-23 62.2-90.2 135.2-150.1 163.1-60 27.9-89.9.2-67-61.9 23-62.2 90.2-135.2 150.1-163.1 60-28 90-.3 67 61.9"/><path class="st77" d="M681.3 1416l-48-120.9 288.5 334.5-117.5-45.6-123-168z"/><path class="st78" d="M352.1 1386.1l253-203.9 156.3-377.7-92.8 36.6-316.5 545z"/><path class="st79" d="M606.9 504.2c-35.8 15-52.9-2-38.3-38 14.6-36 55.4-77.3 91.2-92.3s52.9 2 38.3 38c-14.6 36-55.4 77.3-91.2 92.3"/><path class="st80" d="M1294.6 882.5l211.6 654-141.7-693.1-153.9-52.3 84 91.4z"/><path class="st81" d="M1207.9 1453.1L826 1531.2l452-296.9-70.1 218.8z"/><path class="st82" d="M1063.4 1953.2l-55.1-177.4 195.1-237.2 247.5-355.6-387.5 770.2z"/><path class="st83" d="M2003.7 2033.4L1350 1829.6l365.7 58.9 54.9 25.4 233.1 119.5z"/><path class="st84" d="M1909.1 1551.9c44.7-55.8 99-45.9 121.3 22.1 22.3 68 4.1 168.2-40.6 224-44.7 55.8-99 45.9-121.3-22.1-22.3-68-4.1-168.3 40.6-224"/><path class="st85" d="M85.9 2014.2l416.5-223.9 163.2-89.7-204.7 197.2-375 116.4z"/><path class="st86" d="M883 917.7c65.4-5.6 75 20.6 21.4 58.7-53.6 38-150.1 73.5-215.5 79.1-65.4 5.6-75-20.6-21.4-58.7s150.1-73.5 215.5-79.1"/><path class="st87" d="M1600.4 1354.2c-6.4-48 27-79.6 74.4-70.5 47.5 9.1 91.1 55.4 97.5 103.4 6.4 48-27 79.6-74.4 70.5-47.5-9.1-91.1-55.4-97.5-103.4"/><path class="st88" d="M1441.7 570.3l-678-218.8 467.6 7.8 210.4 211z"/><path class="st89" d="M1500.4 686c15.2 39.7 15.2 104 0 143.6-15.2 39.7-39.9 39.7-55.1 0-15.2-39.7-15.2-104 0-143.6 15.2-39.7 39.9-39.7 55.1 0"/><path class="st90" d="M1578.7-112.4L1838 190l-194.9-46.2-61.8-268.8-2.6 12.6z"/><path class="st91" d="M1701.1 1654l59.8 37.7 136.6-32.5-99.2-65.2-97.2 60z"/><path class="st92" d="M746.9 1174.8c-29.9 15.9-35.9 8.2-13.3-17.1 22.6-25.3 65.1-58.7 95-74.6 29.9-15.9 35.9-8.3 13.3 17.1-22.5 25.2-65.1 58.7-95 74.6"/><path class="st93" d="M-31.2 789.1l-93.5-515.6L265 468.8-31.2 789.1z"/><path class="st94" d="M337.3 1128c59.4 13 79.2 63.9 44.3 113.8-34.9 49.9-111.3 79.8-170.7 66.8-59.4-13-79.2-63.9-44.3-113.8C201.5 1145 278 1115 337.3 1128"/><path class="st95" d="M1417 622.8L802.6 407.5l-82.2 297L974.6 750 1417 622.8z"/><path class="st96" d="M1246.9 2031.2l93.5-296.9 62.3 62.5-155.8 234.4z"/><path class="st97" d="M623.4 531.2l54.6 375 62.3-523.4-116.9 148.4z"/><path class="st98" d="M506.5 984.4l265 273.4 15.6 250-280.6-523.4z"/><path class="st99" d="M300.6 495.2c-59.2 2.8-126.6-38.9-150.7-93.1-24.1-54.2 4.3-100.4 63.5-103.2 59.2-2.8 126.6 38.9 150.7 93.1 24.1 54.2-4.3 100.4-63.5 103.2"/><path class="st100" d="M925.6 303.7c33.5 9.2 33.5 24 0 33.1-33.5 9.2-87.7 9.2-121.2 0s-33.5-24 0-33.1c33.5-9.1 87.8-9.1 121.2 0"/><path class="st101" d="M592.3 960.9L397.4 468.8l-31.2 312.5 226.1 179.6z"/><path class="st102" d="M658 1395c57.8 58 57.8 152 0 209.9-57.8 58-151.6 58-209.4 0-57.8-58-57.8-152 0-209.9 57.8-57.9 151.6-57.9 209.4 0"/><path class="st103" d="M-70.1 1179.7l226 343.8-226 46.9v-390.7z"/><path class="st104" d="M911.8 1031.2L865 1218.8l-77.9-39.1 124.7-148.5z"/><path class="st105" d="M1789.6 1921.3l-280.1-104.1 511.3-83.8-284.7-35.7 53.5 223.6z"/><path class="st106" d="M607.9 828.1h39v62.5h-39v-62.5z"/><path class="st107" d="M338.8 1810.6l-151.9-35.1 66.6-289.3 151.9 35.1-66.6 289.3z"/><path class="st108" d="M1166.2 1493.6c55.7 3 59.4 23.5 8.2 45.8-51.2 22.2-137.9 37.8-193.7 34.8-55.7-3-59.4-23.5-8.2-45.8 51.3-22.3 138-37.8 193.7-34.8"/><path class="st109" d="M13.4-116.2l101.1 7.1-34.2 491-101.1-7.1 34.2-491z"/><path class="st110" d="M1823.6 1406.2l77.9 101.6 179.2-109.4-257.1 7.8z"/><path class="st111" d="M1044.3 875l272.8 23.4-116.9-62.5-155.9 39.1z"/><path class="st112" d="M1176.7 1203.1l70.1-39.1-155.9-85.9 85.8 125z"/><path class="st113" d="M1108.1 1028.1l173.7 156.8-5.2 5.8-173.7-156.8 5.2-5.8z"/><path class="st114" d="M2111.9 710.9l-405.2-539.1L2111.9-47v757.9z"/><path class="st115" d="M1731.6 1185.7c-54.7 32.3-119.7 11.1-145.2-47.1-25.4-58.3-1.7-131.7 53-164 54.7-32.3 119.7-11.1 145.1 47.2 25.6 58.2 1.8 131.6-52.9 163.9"/><path class="st116" d="M1212.8 1598.7l8.8-162.8-95.6 149.5-171.3 159.2 258.1-145.9z"/><path class="st117" d="M1080 973.7l487.2 177.7-476.3-273-22-93.2 11.1 188.5z"/><path class="st118" d="M1893.7 1546.9l-592.3 195.3V1461l592.3 85.9z"/><path class="st119" d="M1965.4 1311.1c-55.5-12.4-130.1-57.8-166.6-101.5s-21.1-69.1 34.4-56.7 130.1 57.8 166.6 101.5c36.4 43.7 21.1 69.1-34.4 56.7"/><path class="st120" d="M1488.5 906.2l-93.5-62.5 31.2 78.1 62.3-15.6z"/><path class="st121" d="M1963.8 789.1l-101.3 320.3-77.9-250 179.2-70.3z"/><path class="st122" d="M1369.4 1117.5l-123.2 238.7-73.1 275.5 209.8-265.3-13.5-248.9z"/><path class="st123" d="M519.8 1016.8l-28.3-55.7 48.6-24.8 28.3 55.7-48.6 24.8z"/><path class="st124" d="M1310.4 1706.9l112.2 50.9-81.8 183.8 588.8 175.5-619.2-410.2z"/><path class="st125" d="M942.9 204.8l-215.6-30.1-233 421.6L664.2-125l278.7 329.8z"/><path class="st126" d="M997.5 1125l31.2 54.7 101.3-78.1-132.5 23.4z"/><path class="st127" d="M1057.2 734.8c24.3 21.4 24.3 56 0 77.3-24.3 21.4-63.8 21.4-88.2 0-24.3-21.4-24.3-56 0-77.3 24.3-21.4 63.8-21.4 88.2 0"/><path class="st128" d="M287.1 795.1c33.2 100.1-13.3 137.7-103.9 84-90.5-53.6-190.8-178.2-224-278.2-33.2-100.1 13.3-137.7 103.9-84 90.5 53.6 190.8 178.2 224 278.2"/><path class="st129" d="M732.5 859.4h124.7v23.4H732.5v-23.4z"/><path class="st130" d="M249.4 1507.8l265-585.9-23.4 546.9-241.6 39z"/><path class="st131" d="M607.2 865.1l68.8 25.6L573 1091l-2.9-97.8 37.1-128.1z"/><path class="st132" d="M1151.4 1687.2c48.3-59.9 101.7-47.6 119.1 27.4 17.4 75-7.6 184.4-56 244.3s-101.7 47.6-119.1-27.4 7.6-184.5 56-244.3"/><path class="st133" d="M1272 288.6c18.7 47.2 26.1 126 16.4 175.9-9.7 49.9-32.7 52.1-51.4 4.8-18.7-47.2-26.1-126-16.4-175.9 9.7-49.9 32.7-52.1 51.4-4.8"/><path class="st134" d="M1031.5 829.2l63.9 151-7.2 3.1-63.9-151 7.2-3.1z"/><path class="st135" d="M1098.8 1937.5v-210.9l-280.5 390.6 280.5-179.7z"/><path class="st136" d="M1490.9 907.4L1328 759.6l242.3 169.5-144.6 33.9 65.2-55.6z"/><path class="st137" d="M1728.6 809.1c46.5 65.2 101.9 180.4 123.9 257.4 22 77 2.1 86.6-44.3 21.4-46.5-65.2-101.9-180.4-123.9-257.4-22-77-2.1-86.6 44.3-21.4"/><path class="st138" d="M669.8 1579.9c21.3 33.6 21.3 88 0 121.5-21.3 33.6-55.8 33.6-77.1 0-21.3-33.6-21.3-88 0-121.5 21.3-33.6 55.8-33.6 77.1 0"/><path class="st139" d="M-124.7 1289.1l475.4-281.2L-77.9 1125l-46.8 164.1z"/><path class="st140" d="M1486.7-65.1c33.5 100.7 33.5 263.9 0 364.6s-87.7 100.7-121.2 0-33.5-263.9 0-364.6c33.5-100.7 87.7-100.7 121.2 0"/><path class="st141" d="M292 1822.7l365.2-126-774.5 420.5 123.2-138L292 1822.7z"/><path class="st142" d="M1025.1 893.7c15.2 45.8 15.2 120 0 165.7-15.2 45.8-39.9 45.8-55.1 0-15.2-45.8-15.2-120 0-165.7 15.2-45.8 39.8-45.8 55.1 0"/><path class="st143" d="M1402.7 359.4l54.6 171.9-226-257.8 171.4 85.9z"/><path class="st144" d="M2111.9 844.9l-183.1 11.4 183.1 320-318.5-18.5 318.5-312.9z"/><path class="st145" d="M649.6 1717.7L563 1783l191.2 334.2H-10.2l659.8-399.5z"/><path class="st146" d="M1773.4 378.9c34-10.6 67.6 9.1 75 44.1 7.4 34.9-14.2 71.9-48.2 82.5-34 10.6-67.6-9.1-75-44.1-7.5-34.9 14.1-71.9 48.2-82.5"/><path class="st0" d="M1407 819.4l11.2 29.2-50.9 19.6-11.2-29.2 50.9-19.6z"/><path class="st147" d="M-2.6 1013.4l316.9-140.2L274 991.9l-98 73.5-178.6-52z"/><path class="st148" d="M1059.2 828.5c31.5-5.1 32.7-.4 2.8 10.7-29.9 11-79.7 24.2-111.2 29.3-31.5 5.1-32.7.4-2.8-10.7 29.9-11 79.7-24.1 111.2-29.3"/><path class="st149" d="M859 357.3l479.2 179.2 55.3 287.8-264-280.6L859 357.3z"/><path class="st150" d="M557.2 1200.4l52-45.4-83.9-135.3-54.5 61.8 86.4 118.9z"/><path class="st151" d="M1220.4 365.1l-141.6 53.1-248.6-214.1 193 37.4 197.2 123.6z"/><path class="st152" d="M1371.6 1140.6l-148.1-62.5 163.7-125-15.6 187.5z"/><path class="st153" d="M2018.4 2054.7l-397.4-375 381.9 117.2 15.5 257.8z"/><path class="st154" d="M333.6 401.6c32.8-70.7 104.3-83.7 159.7-28.8 55.4 54.8 73.7 156.6 40.8 227.4-32.8 70.7-104.3 83.7-159.7 28.8-55.4-54.8-73.7-156.6-40.8-227.4"/><path class="st155" d="M1830.2 671.3l55.1-55.2 165.3 165.7-55.1 55.2-165.3-165.7z"/><path class="st156" d="M1099.9 1285.8c60.9 6.1 60.9 16 0 22.1-60.9 6.1-159.6 6.1-220.4 0-60.9-6.1-60.9-16 0-22.1 60.9-6.1 159.6-6.1 220.4 0"/><path class="st157" d="M615.6 679.7H678v125h-62.3v-125z"/><path class="st158" d="M227.4 343.4l482.8-64.1L332.1-125 346 155.9 227.4 343.4z"/><path class="st159" d="M519.5 838.6c24.3 24.4 24.3 64 0 88.4-24.3 24.4-63.8 24.4-88.2 0-24.3-24.4-24.3-64 0-88.4 24.3-24.4 63.8-24.4 88.2 0"/><path class="st160" d="M962 1559.6l81.9-98.8-240.6-23.3 12.9 51.5 145.8 70.6z"/><path class="st161" d="M879.9 1625.3l.9-28.1-22.8 310.4-169.9-423.1 191.8 140.8z"/><path class="st162" d="M1051 958c2.5-51.4 44.1-80.3 93-64.6 48.9 15.7 86.5 70 84 121.4-2.5 51.4-44.1 80.3-92.9 64.6-49-15.7-86.5-70.1-84.1-121.4"/><path class="st163" d="M1745.6 718.8l-257.2-187.5 171.4-62.5 85.8 250z"/><path class="st164" d="M1885.9 546.9l-7.8-78.1 233.8 93.8-226-15.7z"/><path class="st165" d="M1101.3 1246.8c48.7 6.1 48.7 16 0 22.1-48.7 6.1-127.6 6.1-176.3 0-48.7-6.1-48.7-16 0-22.1 48.6-6.1 127.6-6.1 176.3 0"/><path class="st166" d="M1604.3 847.4l-136.4 628.5 163.5 83.7-287-134.1 259.9-578.1z"/><path class="st167" d="M946.1 872.6L922 1005.4l69.5-175.6-123.2 65.9 77.8-23.1z"/><path class="st168" d="M727.5 273.5c47.5-32.3 64.1-17.4 36.9 33.3-27.2 50.8-87.8 118.1-135.3 150.5S565 474.7 592.2 424c27.1-50.8 87.7-118.2 135.3-150.5"/><path class="st169" d="M755.9 804.7h85.7v15.6h-85.7v-15.6z"/><path class="st170" d="M619.9 853.6l-4-6.7 73.5-44.3 4 6.7-73.5 44.3z"/><path class="st171" d="M352 1704c-12.4-56.6 24.3-103.9 82.1-105.6 57.7-1.8 114.6 42.7 127 99.2 12.4 56.6-24.3 103.9-82.1 105.6s-114.6-42.7-127-99.2"/><path class="st172" d="M1279.2 865.9l-147.6-46.8 141.4-47.5-83.5 158.7 89.7-64.4z"/><path class="st173" d="M1044.4 2043.5c85.5 61 72.9 87.5-28.2 59.1-101.1-28.3-252.3-100.7-337.8-161.7s-72.9-87.5 28.2-59.1c101.1 28.3 252.3 100.7 337.8 161.7"/><path class="st174" d="M1052.1 187.5l-420.8-15.6 615.6-234.4-194.8 250z"/><path class="st175" d="M1410.5 1039.1l-70.1 85.9 46.8-257.8 23.3 171.9z"/><path class="st176" d="M690.5 1342.2l165.6 296.9-186-229.1-45.1-73.6 65.5 5.8z"/><path class="st177" d="M1605.4 179.7h179.2v85.9h-179.2v-85.9z"/><path class="st178" d="M1387.1 265.6h397.4v54.7h-397.4v-54.7z"/><path class="st0" d="M950.7 835.9H1052v15.6H950.7v-15.6z"/><path class="st179" d="M529.9 1023.4L140.3 1125l187-171.9 202.6 70.3z"/><path class="st180" d="M852.8 1516.8l-165.6-293.2 103.7 50.2 72.8 18.5-10.9 224.5z"/><path class="st181" d="M1803.7 1692.5l92.1 1.6-27.4 179.7 243.5-49.7-308.2-131.6z"/><path class="st182" d="M1347.4 178.6l41.5-97.2L1214.7-125l108 289.7 24.7 13.9z"/><path class="st183" d="M1207.9 1275.4l-22.4 98.7-193.7-27.9 244.2-93.9-28.1 23.1z"/><path class="st184" d="M1291.1 1683.6l5.6 178.8L1193 2047l209-265-110.9-98.4z"/><path class="st185" d="M1574.2 1695.3l-116.9-164.1-116.9 195.3 233.8-31.2z"/><path class="st186" d="M363.3 74.5c39.4-7 53.5 14.4 31.5 47.9s-71.7 66.4-111.1 73.4-53.5-14.4-31.5-47.9c22-33.4 71.7-66.3 111.1-73.4"/><path class="st187" d="M572.6 456.7l-28.3 78.5 89.9 19.4 14.2-103.9-75.8 6z"/><path class="st188" d="M1815.8 1375l296.1 46.9-537.7-296.9 241.6 250z"/><path class="st189" d="M1084.2 1643.5c-28.8 26.3-82.7 39.4-120.3 29.3s-44.8-39.7-16-66c28.8-26.3 82.7-39.4 120.3-29.3 37.7 10.2 44.8 39.7 16 66"/><path class="st190" d="M1137.3 1542.6l222.4-287.5 98.2-359.3 17.4 311.2-338 335.6z"/><path class="st191" d="M1917.3 452.9c-25-32.3-13.9-69 24.7-82 38.6-13.1 90.1 2.5 115.1 34.8s13.9 69-24.7 82-90.1-2.6-115.1-34.8"/><path class="st192" d="M561.6-105c30.4 58 30.4 152 0 209.9-30.4 58-79.8 58-110.2 0C421 47 421-47 451.4-105c30.5-57.9 79.8-57.9 110.2 0"/><path class="st193" d="M1928.1 604.2l18.6 102.6 165.2-7.3V480l-183.8 124.2z"/><path class="st194" d="M832.5 972c50.7-20 70.3 2.4 43.7 50.1-26.5 47.7-89.1 102.6-139.8 122.6-50.7 20-70.3-2.4-43.7-50.1 26.5-47.7 89.1-102.6 139.8-122.6"/><path class="st195" d="M381.9 617.2h132.5v203.1H381.9V617.2z"/><path class="st196" d="M1073 1188.8c25-23.4 71.9-34.5 104.8-24.9 32.8 9.6 39.2 36.3 14.1 59.6-25 23.4-71.9 34.5-104.8 24.9-32.8-9.6-39.1-36.3-14.1-59.6"/><path class="st197" d="M1518.3 954.5c12.2 12.2 12.2 32 0 44.2-12.2 12.2-31.9 12.2-44.1 0-12.2-12.2-12.2-32 0-44.2 12.2-12.2 31.9-12.2 44.1 0"/><path class="st198" d="M1228.5 870l-13.2 28.3-105.9-49.5 13.2-28.3 105.9 49.5z"/><path class="st199" d="M1597.6 640.6h70.1v335.9h-70.1V640.6z"/><path class="st200" d="M1447.6 1004.1l178.1-485.2-118.7 90 1.4 329.5-60.8 65.7z"/><path class="st201" d="M1524.7 1727.9c24.3 12.2 24.3 32 0 44.2-24.3 12.2-63.8 12.2-88.2 0-24.3-12.2-24.3-32 0-44.2 24.4-12.2 63.9-12.2 88.2 0"/><path class="st202" d="M255.1 699.8c-46.4-12.7-80.2-61.9-75.6-109.9 4.7-48 46-76.6 92.4-63.9s80.2 61.9 75.6 109.9c-4.6 48-46 76.6-92.4 63.9"/><path class="st203" d="M1396.9 1795.2l429.8 312.2-663-33.9 245.8-175.5-12.6-102.8z"/><path class="st204" d="M1759.5 300.5c33.5 15.3 33.5 40 0 55.2-33.5 15.3-87.7 15.3-121.2 0s-33.5-40 0-55.2c33.4-15.3 87.7-15.3 121.2 0"/><path class="st205" d="M1248.7 90.9c-9.8-21.8-16.4-58.7-14.7-82.6 1.7-23.8 11.1-25.5 21-3.7 9.8 21.8 16.4 58.7 14.7 82.6-1.8 23.8-11.2 25.5-21 3.7"/><path class="st206" d="M1075 1416.6l-102 23.2 74.5-88.5 61.2 39.4-33.7 25.9z"/><path class="st207" d="M1917.1 234.4l-7.8 85.9 202.6 70.3-194.8-156.2z"/><path class="st208" d="M634.5 894.6c6.1 36.6 6.1 96 0 132.6-6.1 36.6-16 36.6-22 0-6.1-36.6-6.1-96 0-132.6 6-36.6 15.9-36.6 22 0"/><path class="st209" d="M561.1 1132c-9 43.2-17.8 42.4-19.6-1.6-1.8-44.1 4-114.8 13.1-157.9 9-43.2 17.8-42.4 19.6 1.6 1.8 44-4.1 114.7-13.1 157.9"/><path class="st210" d="M499.7 947.5l97.7-116.8-244.3 122.4 149.7 68.9-3.1-74.5z"/><path class="st211" d="M600.1 875h-46.8v31.2h46.8V875z"/><path class="st212" d="M1519.9 703.8c9 38.7-11.3 53.6-45.4 33.3-34.1-20.4-69-68.3-78.1-107-9-38.7 11.3-53.6 45.4-33.3 34.2 20.3 69.1 68.2 78.1 107"/><path class="st213" d="M1038.3 815.7l103.4 11.2-86.2 85.7 49.9-187-67.1 90.1z"/><path class="st214" d="M1397 816.5l-27.9 72.9-7.3-2.8 27.9-72.9 7.3 2.8z"/><path class="st215" d="M1475.3 412.2l-159.4-233.5-161.9-31 171.3 149.9 150 114.6z"/><path class="st216" d="M1885.9 1570.3l163.7-101.6 62.3 367.2-226-265.6z"/><path class="st217" d="M1228.4 1224.2l3.4 7-91.1 44.5-3.4-7 91.1-44.5z"/><path class="st218" d="M695.8 1892.1c9.8 33.5-4.9 43.8-32.9 23-28-20.8-58.7-64.9-68.5-98.4s4.9-43.9 32.9-23c28 20.8 58.7 64.9 68.5 98.4"/><path class="st219" d="M891.1 193.4l-98.7 60.8-75.6-14-62.3-194.1 236.6 147.3z"/><path class="st220" d="M116.9 1664.1l350.7-359.4-568.9 328.1 218.2 31.3z"/><path class="st221" d="M485.9 2048.8c-51.5 35.6-113 17.6-137.3-40.2-24.3-57.8-2.2-133.5 49.3-169.1 51.5-35.6 113-17.6 137.3 40.2 24.3 57.9 2.2 133.6-49.3 169.1"/><path class="st222" d="M171.7 1267l6.8-175.1-186.8 125.4 66 184 114-134.3z"/><path class="st223" d="M1235.3 242.2l107.1 89.3-252.2-5.8 172.5 52.1-27.4-135.6z"/><path class="st224" d="M800.7 1242.6l4.4-6.5 77.5 52.4-4.4 6.5-77.5-52.4z"/><path class="st225" d="M-124.7 546.9l257.2-109.4-257.2-148.4v257.8z"/><path class="st226" d="M687.8 1346.5c-20.3-53.5-4.1-63.9 36.1-23.3 40.2 40.7 89.2 117 109.5 170.5 20.3 53.5 4.1 63.9-36.1 23.3-40.2-40.6-89.2-116.9-109.5-170.5"/><path class="st227" d="M-121.3 1868.4l137.1-46.5-140.5-305.4 266.3 265-262.9 86.9z"/><path class="st228" d="M916.3 1096.7c-25.9 35.9-34.1 31.4-18.4-10 15.7-41.4 49.5-104.1 75.4-140 25.9-35.9 34.1-31.4 18.4 10-15.8 41.5-49.5 104.1-75.4 140"/><path class="st229" d="M1722.2 390.6l-226 31.2-7.8 140.6 233.8-171.8z"/><path class="st230" d="M522.7 1909.5c-29.2 42.2-36.9 37.9-17.3-9.5 19.7-47.4 59.3-120 88.5-162.2 29.2-42.2 36.9-37.9 17.3 9.5-19.7 47.4-59.3 120.1-88.5 162.2"/><path class="st231" d="M1433.9 703.1h31.2v93.8h-31.2v-93.8z"/><path class="st232" d="M681.6 1292.6l19.6-68.6 185.2-157.3-161.1 53.9-43.7 172z"/><path class="st233" d="M1560.2 1082.4L1512.1 933l599.8 307.7-512.4-157.1-39.3-1.2z"/><path class="st234" d="M1343.7 1313.5l-81.9 69.6-61.8-238.4 47.3 25.6 96.4 143.2z"/><path class="st235" d="M771.5 1906.2L662.4 1875l39-382.8 70.1 414z"/><path class="st236" d="M857.7 1653.7l125.4 250.5 13-206.4L736.3 1524l121.4 129.7z"/><path class="st237" d="M1332.6 828.1h15.6v70.3h-15.6v-70.3z"/><path class="st238" d="M101.3 1070.3l-171.4 171.9 85.7-234.4 85.7 62.5z"/><path class="st239" d="M818.3 976.6l-163.7 156.2L685.8 914l132.5 62.6z"/><path class="st240" d="M1781.3 1745.6l125.6 10.5-79.5 111.3-55.7-19.2 9.6-102.6z"/><path class="st241" d="M704.6 445.2l2.1 84.3 444 11.9-133.6-82.6-312.5-13.6z"/><path class="st242" d="M1436.5 652.9l-38.7 142.6-54-400 116.7 331.3-24-73.9z"/><path class="st243" d="M1438.1 411.6c15.2 48.8 15.2 128 0 176.8-15.2 48.8-39.9 48.8-55.1 0-15.2-48.8-15.2-128 0-176.8 15.2-48.8 39.9-48.8 55.1 0"/><path class="st244" d="M1693.3 1273.6c44 44.3 30.1 70-31 57.4-61.1-12.6-146.2-58.8-190.2-103.1s-30.1-70 31-57.4c61.1 12.6 146.3 58.8 190.2 103.1"/><path class="st245" d="M1358.8 604.6c27.4 45.8 27.4 120 0 165.7-27.4 45.8-71.8 45.8-99.2 0-27.4-45.8-27.4-120 0-165.7 27.4-45.7 71.8-45.7 99.2 0"/><path class="st246" d="M891.3 1475.1l211.3 38.5L1221 1452l-29-46.6-300.7 69.7z"/></svg>
