<svg version="1.1" width="255" height="256" xmlns="http://www.w3.org/2000/svg">
<rect x="0" y="0" width="255" height="256" fill="#d5a87c" />
<path d="M 96 264 L 72 226 L 10 256 Z" fill="#000000" fill-opacity="0.501961" />
<path d="M 249 254 L 180 230 L 161 268 Z" fill="#000000" fill-opacity="0.501961" />
<path d="M 37 61 L 1 1 L 179 -11 Z" fill="#fff8fd" fill-opacity="0.501961" />
<path d="M 161.998 195.385 L 92.3757 195.672 L 127.363 262.122 L 140.042 216.975 Z" fill="#731400" fill-opacity="0.501961" />
<path d="M 271 248 L 206 41 L 165 220 Z" fill="#ffff9b" fill-opacity="0.501961" />
<path d="M 184.071 111.47 C 107.683 100.629, 68.9072 105.932, 67.7428 127.378" fill="none" stroke="#7a2319" stroke-opacity="0.501961" stroke-width="15.1668" stroke-linecap="round" />
<path d="M 161.263 68.6771 C 175.505 80.8932, 172.066 93.4161, 153.584 96.6477 C 135.101 99.8793, 108.572 92.5958, 94.3307 80.3797 C 80.0891 68.1636, 83.5272 55.6407, 102.01 52.4092 C 120.493 49.1776, 147.021 56.461, 161.263 68.6771" fill="#ffecff" fill-opacity="0.501961" />
<path d="M 155.82 143.808 C 173.393 148.884, 173.393 157.116, 155.82 162.192 C 138.246 167.269, 109.754 167.269, 92.1802 162.192 C 74.6066 157.116, 74.6066 148.884, 92.1802 143.808 C 109.754 138.731, 138.246 138.731, 155.82 143.808" fill="#90140c" fill-opacity="0.501961" />
<path d="M 168.922 32.0605 L 195.763 69.9132 L 80.5093 42.0828 L 116.675 24.3119 Z" fill="#793930" fill-opacity="0.501961" />
<path d="M 61 87 L 74 122 L 89 33 Z" fill="#50261d" fill-opacity="0.501961" />
<path d="M -16 244 L 89 220 L 64 83 Z" fill="#ffd36c" fill-opacity="0.501961" />
<path d="M -16 151 L 39 130 L 0 31 Z" fill="#a26345" fill-opacity="0.501961" />
<path d="M 67 229 L 20 254 L 106 271 Z" fill="#05000f" fill-opacity="0.501961" />
<path d="M 200.173 180.611 C 178.402 168.278, 180.205 152.532, 204.201 145.441 C 228.196 138.35, 265.298 142.599, 287.069 154.931 C 308.84 167.264, 307.036 183.01, 283.041 190.101 C 259.045 197.193, 221.944 192.944, 200.173 180.611" fill="#fffabc" fill-opacity="0.501961" />
<path d="M 87.8829 156.681 L 109.801 201.62 L 98.1171 207.319 L 76.1986 162.38 Z" fill="#7b2d16" fill-opacity="0.501961" />
<path d="M 177 222 L 182 261 L 268 266 Z" fill="#26112c" fill-opacity="0.501961" />
<path d="M 179 68 L 193 68 L 193 131 L 179 131 Z" fill="#b55826" fill-opacity="0.501961" />
<path d="M 104 141 L 169 106 L 209 144 Z" fill="#ffb3aa" fill-opacity="0.501961" />
<path d="M 92 33 L 116 37 L 72 62 Z" fill="#421205" fill-opacity="0.501961" />
<path d="M 116.475 215.214 L 106.178 202.981 L 147.347 200.622 L 131.718 217.011 Z" fill="#550300" fill-opacity="0.501961" />
<path d="M 312.276 -38.2756 C 343.908 -6.64318, 343.908 44.6432, 312.276 76.2756 C 280.643 107.908, 229.357 107.908, 197.724 76.2756 C 166.092 44.6432, 166.092 -6.64318, 197.724 -38.2756 C 229.357 -69.9081, 280.643 -69.9081, 312.276 -38.2756" fill="#d5d57c" fill-opacity="0.501961" />
<path d="M 99 106 L 162 106 L 162 114 L 99 114 Z" fill="#5a1b09" fill-opacity="0.501961" />
<path d="M 134.644 141.568 L 136.926 123.105 L 128.103 107.578 L 119.947 131.982 Z" fill="#ffe5fc" fill-opacity="0.501961" />
<path d="M 43 -16 L 87 6 L 51 45 Z" fill="#eff9ff" fill-opacity="0.501961" />
<path d="M 179 102 L 173 62 L 81 86 Z" fill="#ffcdc6" fill-opacity="0.501961" />
<path d="M 138 231 L 214 212 L 181 125 Z" fill="#ffb06a" fill-opacity="0.501961" />
<path d="M 55 179 L -7 213 L -13 165 Z" fill="#ee9832" fill-opacity="0.501961" />
<path d="M 164.754 250.142 C 155.976 251.869, 148.175 246.049, 147.329 237.142 C 146.484 228.236, 152.916 219.616, 161.694 217.889 C 170.472 216.162, 178.273 221.982, 179.118 230.888 C 179.963 239.795, 173.532 248.415, 164.754 250.142" fill="#ffbfb4" fill-opacity="0.501961" />
<path d="M 36.5563 -3.89949 C 45.1479 1.56785, 45.1479 10.4322, 36.5563 15.8995 C 27.9648 21.3668, 14.0352 21.3668, 5.44365 15.8995 C -3.14788 10.4322, -3.14788 1.56785, 5.44365 -3.89949 C 14.0352 -9.36684, 27.9648 -9.36684, 36.5563 -3.89949" fill="#d39380" fill-opacity="0.501961" />
<path d="M 264 119 L 204 9 L 230 147 Z" fill="#c3be52" fill-opacity="0.501961" />
<path d="M 191 24 L 115 -1 L 174 40 Z" fill="#ffe8ab" fill-opacity="0.501961" />
<path d="M 74.1804 118.623 L 64.0376 96.8713 L 75.8196 91.3773 L 85.9624 113.129 Z" fill="#4f1e04" fill-opacity="0.501961" />
<path d="M 8.25289 85.8026 C 1.24538 69.2672, 8.93396 50.0993, 25.4258 42.99 C 41.9177 35.8806, 60.9677 43.5219, 67.9752 60.0573 C 74.9827 76.5927, 67.2941 95.7606, 50.8023 102.87 C 34.3104 109.979, 15.2604 102.338, 8.25289 85.8026" fill="#e4a67e" fill-opacity="0.501961" />
<path d="M 102 165 L 157 165 L 157 191 L 102 191 Z" fill="#f6a0b0" fill-opacity="0.501961" />
<path d="M 64 123 L -16 159 L 96 219 Z" fill="#ffc671" fill-opacity="0.501961" />
<path d="M 131 271 L 88 210 L 147 224 Z" fill="#b47468" fill-opacity="0.501961" />
<path d="M 107.155 89.5181 C 103.165 97.5202, 93.8082 100.126, 86.2565 95.3378 C 78.7047 90.5499, 75.8173 80.1816, 79.8073 72.1795 C 83.7973 64.1775, 93.1537 61.5719, 100.705 66.3598 C 108.257 71.1477, 111.145 81.516, 107.155 89.5181" fill="#fec0c0" fill-opacity="0.501961" />
<path d="M 142 128 L 158 128 L 158 158 L 142 158 Z" fill="#da8776" fill-opacity="0.501961" />
<path d="M 80.8063 261.308 L 45.2518 250.518 L 81.2892 216.627 L 76.5685 229.331 Z" fill="#36171f" fill-opacity="0.501961" />
<path d="M 168.042 13.0212 C 168.488 19.7631, 164.825 21.5125, 159.861 16.9286 C 154.897 12.3447, 150.512 3.16329, 150.066 -3.57861 C 149.621 -10.3205, 153.283 -12.0699, 158.247 -7.486 C 163.211 -2.90209, 167.596 6.2793, 168.042 13.0212" fill="#877744" fill-opacity="0.501961" />
<path d="M 245.192 -5.19239 C 250.269 -0.115572, 250.269 8.11557, 245.192 13.1924 C 240.116 18.2692, 231.884 18.2692, 226.808 13.1924 C 221.731 8.11557, 221.731 -0.115572, 226.808 -5.19239 C 231.884 -10.2692, 240.116 -10.2692, 245.192 -5.19239" fill="#fdd4d4" fill-opacity="0.501961" />
<path d="M 137.355 228.479 C 125.916 240.445, 123.131 238.399, 131.136 223.908 C 139.141 209.418, 154.904 187.971, 166.343 176.005 C 177.782 164.039, 180.566 166.085, 172.561 180.575 C 164.557 195.065, 148.794 216.512, 137.355 228.479" fill="#e7722b" fill-opacity="0.501961" />
<path d="M 199 220 L 256 261 L 256 121 Z" fill="#ffdc8d" fill-opacity="0.501961" />
<path d="M 166 47 L 180 71 L 100 47 Z" fill="#ef9271" fill-opacity="0.501961" />
<path d="M 65 120 L 70 120 L 70 128 L 65 128 Z" fill="#8f0000" fill-opacity="0.501961" />
<path d="M 236 184 L 185 107 L 226 110 Z" fill="#ffd57d" fill-opacity="0.501961" />
<path d="M 150 21 L 96 27 L 150 -10 Z" fill="#f4d8b3" fill-opacity="0.501961" />
<path d="M 222 197 L 226 165 L 154 123 Z" fill="#ffe8c9" fill-opacity="0.501961" />
<path d="M 95.6035 158.82 C 88.4955 152.671, 89.6239 144.435, 98.1238 140.425 C 106.624 136.414, 119.276 138.148, 126.384 144.297 C 133.492 150.445, 132.364 158.681, 123.864 162.692 C 115.364 166.703, 102.711 164.969, 95.6035 158.82" fill="#934531" fill-opacity="0.501961" />
<path d="M 7.97424 34.6081 C 3.053 24.1927, 8.40156 15.8298, 19.9206 15.929 C 31.4396 16.0282, 44.7671 24.5519, 49.6883 34.9672 C 54.6096 45.3825, 49.261 53.7454, 37.742 53.6463 C 26.2229 53.5471, 12.8955 45.0234, 7.97424 34.6081" fill="#f6d4c3" fill-opacity="0.501961" />
<path d="M 219.95 81.6623 L 210.584 135.514 L 191.607 71.6407 L 195.385 65.5675 Z" fill="#ffeca7" fill-opacity="0.501961" />
<path d="M 180 121 L 195 121 L 195 136 L 180 136 Z" fill="#ff6e32" fill-opacity="0.501961" />
<path d="M 93 209 L 32 189 L 18 253 Z" fill="#fad784" fill-opacity="0.501961" />
<path d="M 185 86 L 174 113 L 192 99 Z" fill="#742a00" fill-opacity="0.501961" />
<path d="M 56 134 L 41 109 L 73 108 Z" fill="#dfb5a0" fill-opacity="0.501961" />
<path d="M 153 93 L 104 96 L 173 111 Z" fill="#d97967" fill-opacity="0.501961" />
<path d="M 179 236 L 154 271 L 204 262 Z" fill="#2c1425" fill-opacity="0.501961" />
<path d="M 85 -3 L 122 8 L 57 65 Z" fill="#ecd3b7" fill-opacity="0.501961" />
<path d="M 131.096 106.741 L 114.309 132.789 L 125.457 104.498 L 138.272 115.399 Z" fill="#4c2235" fill-opacity="0.501961" />
<path d="M 79 111 L 69 159 L 126 125 Z" fill="#db9193" fill-opacity="0.501961" />
<path d="M 124.021 50.9792 C 130.66 57.6181, 130.66 68.3819, 124.021 75.0208 C 117.382 81.6597, 106.618 81.6597, 99.9792 75.0208 C 93.3403 68.3819, 93.3403 57.6181, 99.9792 50.9792 C 106.618 44.3403, 117.382 44.3403, 124.021 50.9792" fill="#ffd8d4" fill-opacity="0.501961" />
<path d="M 109 186 L 128 186 L 128 198 L 109 198 Z" fill="#e9b7ba" fill-opacity="0.501961" />
<path d="M 267.539 61.3474 L 276.724 71.9133 L 234.461 108.653 L 225.276 98.0867 Z" fill="#e5e0a5" fill-opacity="0.501961" />
<path d="M 28.7279 113.808 C 35.7574 118.884, 35.7574 127.116, 28.7279 132.192 C 21.6985 137.269, 10.3015 137.269, 3.27208 132.192 C -3.75736 127.116, -3.75736 118.884, 3.27208 113.808 C 10.3015 108.731, 21.6985 108.731, 28.7279 113.808" fill="#8c7052" fill-opacity="0.501961" />
<path d="M 103 149 L 122 125 L 109 158 Z" fill="#df9b8e" fill-opacity="0.501961" />
<path d="M 12.8083 248.886 C 5.14767 249.414, -5.65058 245.634, -11.3103 240.445 C -16.97 235.256, -15.348 230.621, -7.68741 230.094 C -0.0268109 229.566, 10.7714 233.346, 16.4312 238.535 C 22.0909 243.725, 20.4689 248.359, 12.8083 248.886" fill="#b6be38" fill-opacity="0.501961" />
<path d="M 55.2585 73.3046 L 44.181 104.302 L 68.0598 108.94 L 64.8993 79.268 Z" fill="#b19072" fill-opacity="0.501961" />
<path d="M 156 220 L 201 176 L 211 97 Z" fill="#ffe499" fill-opacity="0.501961" />
<path d="M 116.056 207.338 L 80.149 136.112 L 93.392 95.0763 L 67.9884 143.276 Z" fill="#c27d6a" fill-opacity="0.501961" />
<path d="M 82.3961 247.214 L 79.0668 234.774 L 90.0888 202.41 L 119.148 271 Z" fill="#cf9fa5" fill-opacity="0.501961" />
<path d="M 207 53 L 257 42 L 204 33 Z" fill="#ae9a58" fill-opacity="0.501961" />
<path d="M 254.587 236.188 C 246.9 246.928, 240.855 244.929, 241.083 231.724 C 241.311 218.52, 247.727 199.109, 255.413 188.369 C 263.1 177.629, 269.145 179.627, 268.917 192.832 C 268.689 206.037, 262.273 225.448, 254.587 236.188" fill="#e5c95a" fill-opacity="0.501961" />
<path d="M 97.9953 257.635 C 148.822 266.545, 174.799 255.853, 175.926 225.56" fill="none" stroke="#e2c1c4" stroke-opacity="0.501961" stroke-width="6.18147" stroke-linecap="round" />
<path d="M 189.841 151.586 L 181.92 151.324 L 157.748 103.899 L 171.321 104.573 Z" fill="#fdb78c" fill-opacity="0.501961" />
<path d="M 167.656 161.938 C 159.606 154.314, 148.025 140.699, 141.791 131.53 C 135.557 122.36, 137.029 121.108, 145.08 128.733 C 153.13 136.357, 164.71 149.972, 170.945 159.141 C 177.179 168.311, 175.707 169.563, 167.656 161.938" fill="#c25d46" fill-opacity="0.501961" />
<path d="M 101.502 159.843 L 103.536 155.276 L 114.498 160.157 L 112.464 164.724 Z" fill="#2b0000" fill-opacity="0.501961" />
<path d="M 243.123 60.6506 C 250.857 59.0083, 254.14 63.3478, 250.455 70.3432 C 246.771 77.3385, 237.515 84.3407, 229.781 85.983 C 222.047 87.6253, 218.765 83.2858, 222.449 76.2904 C 226.133 69.2951, 235.389 62.2929, 243.123 60.6506" fill="#b5b342" fill-opacity="0.501961" />
<path d="M 271 186 L 231 153 L 266 151 Z" fill="#fffad4" fill-opacity="0.501961" />
<path d="M 133.243 112.343 C 135.586 115.467, 135.586 120.533, 133.243 123.657 C 130.899 126.781, 127.101 126.781, 124.757 123.657 C 122.414 120.533, 122.414 115.467, 124.757 112.343 C 127.101 109.219, 130.899 109.219, 133.243 112.343" fill="#ffdae0" fill-opacity="0.501961" />
<path d="M 85.0109 41.1156 L 71.8361 59.9036 L 70.5391 75.7016 L 91.1819 52.794 Z" fill="#70483b" fill-opacity="0.501961" />
<path d="M 16.4612 52.6333 C 22.9835 86.5856, 39.205 121.815, 65.1256 158.32" fill="none" stroke="#df976a" stroke-opacity="0.501961" stroke-width="15.9995" stroke-linecap="round" />
<path d="M 89 184 L 94 236 L 137 265 Z" fill="#bc8471" fill-opacity="0.501961" />
<path d="M 135.738 180.83 C 131.945 182.926, 125.468 183.75, 121.272 182.671 C 117.075 181.592, 116.747 179.018, 120.54 176.922 C 124.333 174.826, 130.81 174.002, 135.007 175.081 C 139.203 176.16, 139.531 178.734, 135.738 180.83" fill="#be684f" fill-opacity="0.501961" />
<path d="M 193.501 232.83 L 167.683 215.152 L 207.907 257.122 L 238.551 249.01 Z" fill="#57423e" fill-opacity="0.501961" />
<path d="M 78.1464 166.531 L 94.7753 191.553 L 128.214 237.198 L 127.311 216.839 Z" fill="#7a421e" fill-opacity="0.501961" />
<path d="M 135.587 104.45 L 123.633 105.496 L 122.413 91.5496 L 134.367 90.5037 Z" fill="#fea89d" fill-opacity="0.501961" />
<path d="M 72 132 L 1 160 L 39 167 Z" fill="#ffcb92" fill-opacity="0.501961" />
<path d="M 132.95 106.586 C 135.683 107.367, 135.683 108.633, 132.95 109.414 C 130.216 110.195, 125.784 110.195, 123.05 109.414 C 120.317 108.633, 120.317 107.367, 123.05 106.586 C 125.784 105.805, 130.216 105.805, 132.95 106.586" fill="#000000" fill-opacity="0.501961" />
<path d="M 129.883 168.24 L 142.419 144.23 L 115.371 143.962 L 116.771 146.505 Z" fill="#9d2d0d" fill-opacity="0.501961" />
<path d="M 179.774 109.741 L 175.531 111.86 L 175.13 103.75 L 181.614 110.252 Z" fill="#000000" fill-opacity="0.501961" />
<path d="M 271 261 L 184 226 L 249 215 Z" fill="#e3ce89" fill-opacity="0.501961" />
<path d="M 142.342 112.351 C 137.892 112.327, 135.741 109.008, 137.536 104.936 C 139.331 100.865, 144.394 97.5836, 148.844 97.6075 C 153.293 97.6313, 155.445 100.951, 153.65 105.022 C 151.854 109.094, 146.791 112.375, 142.342 112.351" fill="#8d3e24" fill-opacity="0.501961" />
<path d="M 161.158 153.009 L 144.358 137.333 L 130.882 124.544 L 147.311 152.52 Z" fill="#f8b5a7" fill-opacity="0.501961" />
<path d="M 223.552 13.405 C 223.953 20.404, 219.733 22.6673, 214.125 18.4602 C 208.517 14.2531, 203.646 5.16877, 203.244 -1.83026 C 202.842 -8.82928, 207.063 -11.0926, 212.671 -6.88549 C 218.278 -2.67839, 223.15 6.40597, 223.552 13.405" fill="#b39364" fill-opacity="0.501961" />
<path d="M 144 24 L 119 25 L 162 49 Z" fill="#855446" fill-opacity="0.501961" />
<path d="M 74.7388 132.761 C 79.0011 126.996, 77.738 113.137, 70.9497 91.1863" fill="none" stroke="#773d17" stroke-opacity="0.501961" stroke-width="2.97108" stroke-linecap="round" />
<path d="M 27.4722 91.4316 L 69.354 75.9993 L 73.5289 33.6262 L 29.6308 67.015 Z" fill="#e7bc8e" fill-opacity="0.501961" />
<path d="M 121.182 201.717 L 150.399 200.371 L 151.069 204.266 L 122.552 220.581 Z" fill="#832400" fill-opacity="0.501961" />
<path d="M 225 13 L 255 13 L 255 63 L 225 63 Z" fill="#d6b594" fill-opacity="0.501961" />
<path d="M 114.752 39.0523 L 113.263 26.7054 L 89.091 43.8048 L 132.052 43.7153 Z" fill="#703b23" fill-opacity="0.501961" />
<path d="M 184.536 54.6152 C 186.488 64.7689, 186.488 81.2311, 184.536 91.3848 C 182.583 101.538, 179.417 101.538, 177.464 91.3848 C 175.512 81.2311, 175.512 64.7689, 177.464 54.6152 C 179.417 44.4616, 182.583 44.4616, 184.536 54.6152" fill="#9b6760" fill-opacity="0.501961" />
<path d="M 81.3799 177.384 C 89.2349 181.203, 92.8035 190.804, 89.3506 198.827 C 85.8977 206.85, 76.7309 210.258, 68.8759 206.438 C 61.021 202.618, 57.4524 193.017, 60.9053 184.994 C 64.3581 176.971, 73.525 173.564, 81.3799 177.384" fill="#ffd769" fill-opacity="0.501961" />
<path d="M 234.657 207.464 C 237.781 209.417, 237.781 212.583, 234.657 214.536 C 231.533 216.488, 226.467 216.488, 223.343 214.536 C 220.219 212.583, 220.219 209.417, 223.343 207.464 C 226.467 205.512, 231.533 205.512, 234.657 207.464" fill="#ffffe8" fill-opacity="0.501961" />
<path d="M 149.828 159.586 C 151.391 160.367, 151.391 161.633, 149.828 162.414 C 148.266 163.195, 145.734 163.195, 144.172 162.414 C 142.609 161.633, 142.609 160.367, 144.172 159.586 C 145.734 158.805, 148.266 158.805, 149.828 159.586" fill="#060000" fill-opacity="0.501961" />
<path d="M 173.607 74.3934 C 179.464 80.2513, 179.464 89.7487, 173.607 95.6066 C 167.749 101.464, 158.251 101.464, 152.393 95.6066 C 146.536 89.7487, 146.536 80.2513, 152.393 74.3934 C 158.251 68.5355, 167.749 68.5355, 173.607 74.3934" fill="#ffd2bf" fill-opacity="0.501961" />
<path d="M 80 103 L 84 103 L 83 116 Z" fill="#140000" fill-opacity="0.501961" />
<path d="M 174.675 -8.56889 C 178.94 -18.6367, 186.857 -19.138, 192.358 -9.68857 C 197.859 -0.239166, 198.861 15.5826, 194.596 25.6504 C 190.331 35.7182, 182.414 36.2195, 176.913 26.7701 C 171.412 17.3207, 170.41 1.49891, 174.675 -8.56889" fill="#efd397" fill-opacity="0.501961" />
<path d="M 245.111 125.996 C 244.536 133.748, 238.261 137.589, 231.097 134.575 C 223.932 131.561, 218.59 122.834, 219.165 115.083 C 219.74 107.331, 226.014 103.491, 233.179 106.504 C 240.344 109.518, 245.686 118.245, 245.111 125.996" fill="#cca44c" fill-opacity="0.501961" />
<path d="M 200.587 169.152 L 210.657 159.426 L 229.413 178.848 L 219.343 188.574 Z" fill="#fff9e4" fill-opacity="0.501961" />
<path d="M 96.4715 153.731 C 102.164 144.448, 112.512 130.21, 119.584 121.931 C 126.657 113.651, 127.776 114.464, 122.084 123.747 C 116.391 133.03, 106.044 147.268, 98.971 155.547 C 91.8985 163.827, 90.7794 163.014, 96.4715 153.731" fill="#b16355" fill-opacity="0.501961" />
<path d="M 5.18586 -14.9762 L -16 32.7551 L 31.1167 61.4533 L 0.342339 103.445 Z" fill="#c88469" fill-opacity="0.501961" />
<path d="M 213 128 L 218 114 L 181 108 Z" fill="#ffe9a7" fill-opacity="0.501961" />
<path d="M 88.5112 119.563 L 81.3401 141.216 L 90.7664 146.606 L 117.483 121.14 Z" fill="#e9b0a3" fill-opacity="0.501961" />
<path d="M 94 108 L 116 108 L 116 112 L 94 112 Z" fill="#521800" fill-opacity="0.501961" />
<path d="M 195.121 122.879 C 196.293 124.05, 196.293 125.95, 195.121 127.121 C 193.95 128.293, 192.05 128.293, 190.879 127.121 C 189.707 125.95, 189.707 124.05, 190.879 122.879 C 192.05 121.707, 193.95 121.707, 195.121 122.879" fill="#f20500" fill-opacity="0.501961" />
<path d="M 152 188 L 166 156 L 126 190 Z" fill="#febfad" fill-opacity="0.501961" />
<path d="M 97 85 L 119 91 L 78 104 Z" fill="#f3b5b7" fill-opacity="0.501961" />
<path d="M 178 44 L 155 27 L 153 43 Z" fill="#825138" fill-opacity="0.501961" />
<path d="M 27.2326 3.40159 C 28.028 -2.74535, 31.4129 -3.51669, 34.793 1.67874 C 38.1731 6.87417, 40.2684 16.069, 39.473 22.2159 C 38.6776 28.3629, 35.2926 29.1342, 31.9125 23.9388 C 28.5324 18.7433, 26.4372 9.54853, 27.2326 3.40159" fill="#dea07b" fill-opacity="0.501961" />
<path d="M 237 197 L 157 193 L 174 221 Z" fill="#edbc6b" fill-opacity="0.501961" />
<path d="M 141.918 243.488 C 137.907 235.561, 139.206 223.552, 144.82 216.666 C 150.433 209.78, 158.235 210.624, 162.246 218.551 C 166.257 226.479, 164.958 238.487, 159.344 245.374 C 153.731 252.26, 145.929 251.416, 141.918 243.488" fill="#ef9e7e" fill-opacity="0.501961" />
<path d="M 51.3614 66.9744 L 31.0974 36.7687 L -14.7063 40.5068 L 6.15753 47.2725 Z" fill="#f4b68f" fill-opacity="0.501961" />
<path d="M 145.263 64.3934 C 154.246 70.2513, 154.246 79.7487, 145.263 85.6066 C 136.281 91.4645, 121.719 91.4645, 112.737 85.6066 C 103.754 79.7487, 103.754 70.2513, 112.737 64.3934 C 121.719 58.5355, 136.281 58.5355, 145.263 64.3934" fill="#ffd7d5" fill-opacity="0.501961" />
<path d="M 76 159 L 173 159 L 173 155 L 76 155 Z" fill="#be6944" fill-opacity="0.501961" />
<path d="M -16 210.663 C 26.3589 200.687, 51.2297 182.465, 58.6123 155.996" fill="none" stroke="#e7ad55" stroke-opacity="0.501961" stroke-width="12.3809" stroke-linecap="round" />
<path d="M 241.4 193.797 C 236.919 192.762, 235.391 188.845, 237.988 185.05 C 240.584 181.254, 246.321 179.016, 250.802 180.051 C 255.283 181.086, 256.811 185.002, 254.214 188.798 C 251.618 192.594, 245.881 194.832, 241.4 193.797" fill="#fff3c8" fill-opacity="0.501961" />
<path d="M 4 112 L -13 84 L 19 109 Z" fill="#9b5e43" fill-opacity="0.501961" />
<path d="M 177 113 L 191 162 L 148 129 Z" fill="#f8bca3" fill-opacity="0.501961" />
<path d="M 213 160 L 236 143 L 217 98 Z" fill="#ffcb73" fill-opacity="0.501961" />
<path d="M 166.395 154.696 C 165.577 153.332, 160.862 148.888, 152.251 141.363" fill="none" stroke="#982805" stroke-opacity="0.501961" stroke-width="2.58317" stroke-linecap="round" />
<path d="M 18.1965 194.865 L -16 208.921 L 6.75366 143.969 L -16 148.728 Z" fill="#d58c37" fill-opacity="0.501961" />
<path d="M 27.8062 -16 L 88.9874 31.4643 L 35.6994 48.5098 L 45.0872 15.0013 Z" fill="#ebe2dd" fill-opacity="0.501961" />
<path d="M 83.3197 246.817 L 87.9851 232.859 L 80.7046 213.288 L 76.7553 235.482 Z" fill="#e1b6a3" fill-opacity="0.501961" />
<path d="M 85 7 L 149 16 L 87 34 Z" fill="#ebcbad" fill-opacity="0.501961" />
<path d="M 134 114 L 168 114 L 168 116 L 134 116 Z" fill="#a8645c" fill-opacity="0.501961" />
<path d="M 223.493 90.5329 L 185.004 123.155 L 212.612 116.73 L 200.606 83.2913 Z" fill="#ffe1ac" fill-opacity="0.501961" />
<path d="M 188 114 L 181 116 L 182 125 Z" fill="#a74500" fill-opacity="0.501961" />
<path d="M 90.2426 64.1005 C 92.5858 69.5678, 92.5858 78.4322, 90.2426 83.8995 C 87.8995 89.3668, 84.1005 89.3668, 81.7574 83.8995 C 79.4142 78.4322, 79.4142 69.5678, 81.7574 64.1005 C 84.1005 58.6332, 87.8995 58.6332, 90.2426 64.1005" fill="#eab5a6" fill-opacity="0.501961" />
<path d="M 169.524 173.253 C 165.186 177.584, 160.988 176.173, 160.146 170.101 C 159.305 164.029, 162.139 155.597, 166.477 151.266 C 170.815 146.935, 175.014 148.346, 175.855 154.418 C 176.696 160.489, 173.862 168.922, 169.524 173.253" fill="#ee825a" fill-opacity="0.501961" />
<path d="M 111.646 167.607 C 115.737 171.48, 114.528 174.009, 108.944 173.255 C 103.361 172.501, 95.5178 168.75, 91.4261 164.877 C 87.3345 161.003, 88.5438 158.475, 94.1273 159.229 C 99.7107 159.983, 107.554 163.734, 111.646 167.607" fill="#da9c8e" fill-opacity="0.501961" />
<path d="M 104 96 L 121 96 L 120 110 Z" fill="#8a3f2e" fill-opacity="0.501961" />
<path d="M 166 62 L 162 37 L 157 63 Z" fill="#c56424" fill-opacity="0.501961" />
<path d="M 49.0229 230.298 L 42.1933 211.924 L 50.9367 188.905 L 9.64779 226.093 Z" fill="#f9d395" fill-opacity="0.501961" />
<path d="M 239.465 85.6928 C 236.54 70.1275, 240.612 68.6145, 248.56 82.3135 C 256.508 96.0124, 265.322 119.736, 268.247 135.301 C 271.172 150.867, 267.1 152.38, 259.152 138.681 C 251.204 124.982, 242.39 101.258, 239.465 85.6928" fill="#cad171" fill-opacity="0.501961" />
<path d="M 93.3208 152.273 C 87.9877 155.152, 87.1245 153.998, 91.3928 149.695 C 95.6611 145.392, 103.445 139.57, 108.778 136.69 C 114.111 133.811, 114.974 134.965, 110.706 139.268 C 106.437 143.571, 98.6539 149.393, 93.3208 152.273" fill="#9f361c" fill-opacity="0.501961" />
<path d="M 142.105 98.0628 C 135.793 115.102, 135.516 124.356, 141.274 125.824" fill="none" stroke="#a55c57" stroke-opacity="0.501961" stroke-width="3.15824" stroke-linecap="round" />
<path d="M 141 138 L 133 118 L 111 139 Z" fill="#ffd3d2" fill-opacity="0.501961" />
<path d="M 75.1436 227.663 L 12.4631 255.739 L 23.386 271 L 51.7392 233.842 Z" fill="#513c3e" fill-opacity="0.501961" />
<path d="M 243.641 196.202 C 249.803 192.506, 259.883 192.349, 266.156 195.853 C 272.429 199.356, 272.52 205.192, 266.359 208.888 C 260.197 212.585, 250.117 212.741, 243.844 209.238 C 237.571 205.734, 237.48 199.898, 243.641 196.202" fill="#ffd95a" fill-opacity="0.501961" />
<path d="M 82.1142 177.024 L 72.4476 140.934 L 75.185 115.963 L 66.434 138.915 Z" fill="#f19f8a" fill-opacity="0.501961" />
<path d="M 231 115 L 242 136 L 251 100 Z" fill="#a8ad54" fill-opacity="0.501961" />
<path d="M 9.19077 174.273 L 16.5807 172.348 L 20.7089 132.943 L -16 160.923 Z" fill="#e3c061" fill-opacity="0.501961" />
<path d="M -4.90138 248.328 C 2.43948 240.278, 17.1043 232.317, 27.8534 230.546 C 38.6025 228.774, 41.3654 233.864, 34.0246 241.913 C 26.6837 249.963, 12.0189 257.924, 1.26979 259.695 C -9.47932 261.467, -12.2422 256.377, -4.90138 248.328" fill="#d5c367" fill-opacity="0.501961" />
<path d="M 85 106 L 89 106 L 89 119 L 85 119 Z" fill="#dcb498" fill-opacity="0.501961" />
<path d="M 75.0017 226.478 C 69.7993 239.972, 83.2257 254.813, 115.281 271" fill="none" stroke="#3b1e21" stroke-opacity="0.501961" stroke-width="3.98401" stroke-linecap="round" />
<path d="M 64 106 L -16 77 L 31 112 Z" fill="#de9a72" fill-opacity="0.501961" />
<path d="M 203.778 170.272 C 208.074 177.302, 208.074 188.698, 203.778 195.728 C 199.482 202.757, 192.518 202.757, 188.222 195.728 C 183.926 188.698, 183.926 177.302, 188.222 170.272 C 192.518 163.243, 199.482 163.243, 203.778 170.272" fill="#fddd82" fill-opacity="0.501961" />
<path d="M 155.264 108.687 L 157.028 106.26 L 166.736 113.313 L 164.972 115.74 Z" fill="#ba470d" fill-opacity="0.501961" />
<path d="M 218.305 249.408 L 181.95 241.344 L 143.387 271 L 261.071 262.294 Z" fill="#3d272e" fill-opacity="0.501961" />
<path d="M 226.548 229.311 L 191.556 229.937 L 203.145 237.112 L 227.337 239.273 Z" fill="#cec56c" fill-opacity="0.501961" />
<path d="M 164.703 69.7554 C 121.152 43.6074, 94.6852 41.4759, 85.3012 63.3609" fill="none" stroke="#e69e8d" stroke-opacity="0.501961" stroke-width="3.95651" stroke-linecap="round" />
<path d="M 67.1934 121.937 C 68.0437 120.009, 69.1767 120.096, 69.7241 122.13 C 70.2714 124.164, 70.0259 127.375, 69.1756 129.303 C 68.3253 131.23, 67.1923 131.143, 66.645 129.109 C 66.0976 127.075, 66.3432 123.864, 67.1934 121.937" fill="#a40000" fill-opacity="0.501961" />
<path d="M 249.279 72.6669 C 245.691 71.6143, 241.718 67.9231, 240.405 64.4224 C 239.092 60.9216, 240.936 58.937, 244.524 59.9896 C 248.112 61.0422, 252.084 64.7334, 253.398 68.2341 C 254.711 71.7349, 252.867 73.7195, 249.279 72.6669" fill="#a78e59" fill-opacity="0.501961" />
<path d="M 218.677 64.3684 L 221.114 84.2193 L 193.323 87.6316 L 190.886 67.7807 Z" fill="#f4de80" fill-opacity="0.501961" />
<path d="M 227.738 25.5008 C 232.712 28.0632, 232.46 31.6303, 227.175 33.468 C 221.891 35.3058, 213.575 34.7183, 208.602 32.1559 C 203.628 29.5934, 203.88 26.0263, 209.165 24.1886 C 214.449 22.3508, 222.765 22.9383, 227.738 25.5008" fill="#f9c888" fill-opacity="0.501961" />
<path d="M 189.806 149.312 L 188.313 124.231 L 187.575 119.284 L 170.872 168.343 Z" fill="#fdad86" fill-opacity="0.501961" />
<path d="M 257.657 49.3431 C 260.781 52.4673, 260.781 57.5327, 257.657 60.6569 C 254.533 63.781, 249.467 63.781, 246.343 60.6569 C 243.219 57.5327, 243.219 52.4673, 246.343 49.3431 C 249.467 46.219, 254.533 46.219, 257.657 49.3431" fill="#dedab3" fill-opacity="0.501961" />
<path d="M 85.0711 203.929 C 88.9763 207.834, 88.9763 214.166, 85.0711 218.071 C 81.1658 221.976, 74.8342 221.976, 70.9289 218.071 C 67.0237 214.166, 67.0237 207.834, 70.9289 203.929 C 74.8342 200.024, 81.1658 200.024, 85.0711 203.929" fill="#ffe280" fill-opacity="0.501961" />
<path d="M 145.88 163.685 C 142.576 164.822, 142.304 164.25, 145.274 162.407 C 148.243 160.564, 153.329 158.148, 156.633 157.01 C 159.938 155.872, 160.21 156.444, 157.24 158.287 C 154.271 160.131, 149.185 162.547, 145.88 163.685" fill="#5a0e00" fill-opacity="0.501961" />
<path d="M 167.609 101.688 L 177.748 104.457 L 181.908 105.048 L 149.401 57.2921 Z" fill="#ffc6ac" fill-opacity="0.501961" />
<path d="M 181.271 106.108 L 180.147 108.889 L 172.729 105.892 L 173.853 103.111 Z" fill="#110002" fill-opacity="0.501961" />
<path d="M 90 186 L 82 168 L 91 172 Z" fill="#783511" fill-opacity="0.501961" />
<path d="M 234.035 49.8103 C 238.387 52.2359, 240.428 57.9573, 238.593 62.5894 C 236.758 67.2216, 231.742 69.0104, 227.39 66.5848 C 223.038 64.1593, 220.997 58.4379, 222.833 53.8057 C 224.668 49.1736, 229.683 47.3848, 234.035 49.8103" fill="#f1c986" fill-opacity="0.501961" />
<path d="M 41.8089 137.399 L 91.6185 193.776 L 60.2589 127.371 L 86.322 96.1189 Z" fill="#f0b36b" fill-opacity="0.501961" />
<path d="M 82 107 L 84 114 L 75 103 Z" fill="#1a0000" fill-opacity="0.501961" />
<path d="M 60.9902 104.055 L 53.7839 97.201 L 74.7654 119.977 L 37.6048 120.144 Z" fill="#ddb79c" fill-opacity="0.501961" />
<path d="M 174 106 L 174 112 L 170 112 L 170 106 Z" fill="#ffe4c7" fill-opacity="0.501961" />
<path d="M 176.365 235.894 C 171.763 238.677, 164.51 238.364, 160.165 235.196 C 155.82 232.027, 156.028 227.203, 160.629 224.42 C 165.231 221.637, 172.484 221.95, 176.829 225.118 C 181.174 228.286, 180.966 233.111, 176.365 235.894" fill="#ffc7a5" fill-opacity="0.501961" />
<path d="M 68.8995 207.101 C 74.3668 212.568, 74.3668 221.432, 68.8995 226.899 C 63.4322 232.367, 54.5678 232.367, 49.1005 226.899 C 43.6332 221.432, 43.6332 212.568, 49.1005 207.101 C 54.5678 201.633, 63.4322 201.633, 68.8995 207.101" fill="#edbc6c" fill-opacity="0.501961" />
<path d="M 149.374 202.44 L 144.969 197 L 156.626 187.56 L 161.031 193 Z" fill="#d66924" fill-opacity="0.501961" />
<path d="M 178 112 L 179 112 L 179 146 L 178 146 Z" fill="#ffce86" fill-opacity="0.501961" />
<path d="M 214.4 48.041 L 179.563 34.3802 L 221.841 36.8548 L 244.772 44.7925 Z" fill="#b8a357" fill-opacity="0.501961" />
<path d="M 134.515 230.833 L 134.561 252.163 L 87.4949 199.587 L 121.904 212.865 Z" fill="#a5684c" fill-opacity="0.501961" />
<path d="M 179.815 17.7392 L 194.733 19.6323 L 170.774 40.4288 L 161.487 28.3073 Z" fill="#fad797" fill-opacity="0.501961" />
<path d="M 128.667 206.566 C 132.191 208.261, 131.963 210.364, 128.158 211.264 C 124.353 212.164, 118.412 211.52, 114.888 209.825 C 111.364 208.131, 111.592 206.027, 115.397 205.127 C 119.202 204.227, 125.144 204.872, 128.667 206.566" fill="#551500" fill-opacity="0.501961" />
<path d="M 107.661 102.648 L 91.7945 111.861 L 76.764 123.687 L 89.9839 104.384 Z" fill="#bb8770" fill-opacity="0.501961" />
<path d="M 183.107 97.1797 C 183.672 93.6564, 186.093 92.924, 188.516 95.5437 C 190.939 98.1635, 192.445 103.143, 191.88 106.667 C 191.316 110.19, 188.894 110.922, 186.471 108.303 C 184.049 105.683, 182.542 100.703, 183.107 97.1797" fill="#be5a07" fill-opacity="0.501961" />
<path d="M 226 226 L 239 226 L 239 236 L 226 236 Z" fill="#f0d3bd" fill-opacity="0.501961" />
<path d="M 53.9717 2.04877 C 55.7331 -3.95856, 61.7443 -6.64949, 67.3981 -3.96159 C 73.0519 -1.2737, 76.2074 5.77517, 74.446 11.7825 C 72.6846 17.7898, 66.6734 20.4807, 61.0196 17.7929 C 55.3658 15.105, 52.2104 8.05609, 53.9717 2.04877" fill="#f2f5f8" fill-opacity="0.501961" />
<path d="M 163 12 L 144 -16 L 160 -16 Z" fill="#826737" fill-opacity="0.501961" />
<path d="M 170.377 134.578 L 137.205 111.18 L 137.187 117.074 L 142.682 130.012 Z" fill="#d3a1a3" fill-opacity="0.501961" />
<path d="M 80.7292 220.712 C 74.9192 226.67, 54.831 237.659, 20.4646 253.677" fill="none" stroke="#543d39" stroke-opacity="0.501961" stroke-width="2.26877" stroke-linecap="round" />
<path d="M 197.95 220.464 C 200.683 222.417, 200.683 225.583, 197.95 227.536 C 195.216 229.488, 190.784 229.488, 188.05 227.536 C 185.317 225.583, 185.317 222.417, 188.05 220.464 C 190.784 218.512, 195.216 218.512, 197.95 220.464" fill="#ffdcbc" fill-opacity="0.501961" />
<path d="M 68 81 L 38 96 L 62 50 Z" fill="#cea77b" fill-opacity="0.501961" />
<path d="M 123 109 L 135 109 L 135 110 L 123 110 Z" fill="#1e0000" fill-opacity="0.501961" />
<path d="M 131 149 L 145 141 L 126 143 Z" fill="#de470c" fill-opacity="0.501961" />
<path d="M 91 31 L 68 60 L 72 34 Z" fill="#ead3b7" fill-opacity="0.501961" />
<path d="M 155.902 30.3489 L 138.549 22.8524 L 181.548 47.8798 L 190.566 75.2623 Z" fill="#88604e" fill-opacity="0.501961" />
<path d="M 173.723 221.966 C 181.383 225.01, 198.81 240.311, 226.003 267.869" fill="none" stroke="#503536" stroke-opacity="0.501961" stroke-width="2.26439" stroke-linecap="round" />
<path d="M 104.408 158.384 C 107.111 159.319, 111.091 161.554, 113.296 163.375 C 115.502 165.196, 115.099 165.915, 112.395 164.98 C 109.692 164.045, 105.712 161.811, 103.507 159.99 C 101.301 158.168, 101.704 157.45, 104.408 158.384" fill="#2b0000" fill-opacity="0.501961" />
<path d="M 187.72 93.2475 L 202.839 110.965 L 242.938 179.529 L 205.083 150.049 Z" fill="#fcd77f" fill-opacity="0.501961" />
<path d="M 23.2426 16.1005 C 25.5858 21.5678, 25.5858 30.4322, 23.2426 35.8995 C 20.8995 41.3668, 17.1005 41.3668, 14.7574 35.8995 C 12.4142 30.4322, 12.4142 21.5678, 14.7574 16.1005 C 17.1005 10.6332, 20.8995 10.6332, 23.2426 16.1005" fill="#e9d4d3" fill-opacity="0.501961" />
<path d="M -10.64 59.8957 L -16 43.9958 L 16.9365 53.3293 L 16.3963 61.6866 Z" fill="#bb6c4d" fill-opacity="0.501961" />
<path d="M 13 50 L -13 33 L 7 -10 Z" fill="#d09c92" fill-opacity="0.501961" />
<path d="M 210.31 -16 L 225.172 5.36846 L 271 58.3249 L 221.839 18.7614 Z" fill="#c7a980" fill-opacity="0.501961" />
<path d="M 235 79 L 225 102 L 222 65 Z" fill="#b1bd42" fill-opacity="0.501961" />
<path d="M 181 11 L 170 23 L 160 -16 Z" fill="#c1b291" fill-opacity="0.501961" />
<path d="M 168 249 L 142 247 L 140 271 Z" fill="#eab6b1" fill-opacity="0.501961" />
<path d="M 160.61 19.8795 L 145.087 -16 L 136.156 -16 L 153.976 19.862 Z" fill="#d0b583" fill-opacity="0.501961" />
<path d="M 192 122 L 196 122 L 196 129 L 192 129 Z" fill="#f44200" fill-opacity="0.501961" />
<path d="M 130.202 156.51 L 126.966 158.861 L 115.798 143.49 L 119.034 141.139 Z" fill="#77240f" fill-opacity="0.501961" />
<path d="M 249 74 L 255 74 L 255 88 L 249 88 Z" fill="#ede4c3" fill-opacity="0.501961" />
<path d="M 102.332 38.5372 L 83.6704 61.9729 L 74.7651 55.9103 L 100.174 31.1726 Z" fill="#764832" fill-opacity="0.501961" />
<path d="M 189.938 115.296 L 186.622 117.533 L 186.062 116.704 L 189.378 114.467 Z" fill="#470000" fill-opacity="0.501961" />
<path d="M 150.248 191.399 C 155.414 191.915, 155.634 193.738, 150.741 195.47 C 145.847 197.203, 137.693 198.189, 132.527 197.673 C 127.361 197.157, 127.141 195.334, 132.035 193.601 C 136.928 191.869, 145.083 190.882, 150.248 191.399" fill="#c57b76" fill-opacity="0.501961" />
<path d="M 88.4252 94.8962 L 78.0926 83.1275 L 81.5937 104.7 L 104.096 98.7048 Z" fill="#d3978d" fill-opacity="0.501961" />
<path d="M 171.618 213.325 C 165.311 219.344, 160.205 217.156, 160.212 208.438 C 160.22 199.719, 165.339 187.772, 171.646 181.752 C 177.953 175.733, 183.059 177.921, 183.052 186.639 C 183.044 195.358, 177.925 207.305, 171.618 213.325" fill="#fec682" fill-opacity="0.501961" />
<path d="M 68.3403 96.7376 C 69.7134 93.6811, 71.5386 93.8246, 72.417 97.0582 C 73.2955 100.292, 72.8946 105.391, 71.5215 108.447 C 70.1485 111.504, 68.3233 111.36, 67.4448 108.127 C 66.5663 104.893, 66.9673 99.7941, 68.3403 96.7376" fill="#6b3613" fill-opacity="0.501961" />
<path d="M 256.142 215.879 C 263.953 217.05, 263.953 218.95, 256.142 220.121 C 248.332 221.293, 235.668 221.293, 227.858 220.121 C 220.047 218.95, 220.047 217.05, 227.858 215.879 C 235.668 214.707, 248.332 214.707, 256.142 215.879" fill="#f2d05c" fill-opacity="0.501961" />
<path d="M 191.084 59.9038 C 193.578 54.3064, 200.454 48.7128, 206.441 47.4103 C 212.429 46.1077, 215.262 49.5894, 212.768 55.1868 C 210.274 60.7842, 203.398 66.3777, 197.41 67.6803 C 191.422 68.9829, 188.59 65.5012, 191.084 59.9038" fill="#cdcd66" fill-opacity="0.501961" />
<path d="M 136.076 152.066 L 152.949 149.994 L 153.924 157.934 L 137.051 160.006 Z" fill="#dc8b68" fill-opacity="0.501961" />
<path d="M 99.698 48.92 L 157.748 74.3373 L 172.052 103.911 L 84.9137 57.6446 Z" fill="#fdd2cb" fill-opacity="0.501961" />
<path d="M 81.4615 122.657 L 120.348 135.293 L 111.95 108.799 L 102.594 138.507 Z" fill="#c8928d" fill-opacity="0.501961" />
<path d="M 145.151 221.391 L 140.92 213.907 L 132.479 222.11 L 126.042 271 Z" fill="#c47b5f" fill-opacity="0.501961" />
<path d="M 111.287 167.704 L 138.327 142.959 L 136.169 158.629 L 141.992 163.783 Z" fill="#a7452f" fill-opacity="0.501961" />
<path d="M 192 79 L 180 93 L 186 60 Z" fill="#a67a65" fill-opacity="0.501961" />
<path d="M 119.485 113.586 C 124.172 114.367, 124.172 115.633, 119.485 116.414 C 114.799 117.195, 107.201 117.195, 102.515 116.414 C 97.8284 115.633, 97.8284 114.367, 102.515 113.586 C 107.201 112.805, 114.799 112.805, 119.485 113.586" fill="#996269" fill-opacity="0.501961" />
<path d="M 180 191 L 207 220 L 171 221 Z" fill="#e2b777" fill-opacity="0.501961" />
<path d="M 145.687 105.77 L 156.023 109.532 L 154.313 114.23 L 143.977 110.468 Z" fill="#5b1c00" fill-opacity="0.501961" />
<path d="M 105 265 L 53 271 L 72 241 Z" fill="#260c12" fill-opacity="0.501961" />
<path d="M 167 46 L 178 61 L 166 66 Z" fill="#d4936d" fill-opacity="0.501961" />
<path d="M 224.425 144.645 L 246.048 148.837 L 264.181 50.5044 L 271 119.55 Z" fill="#e4c187" fill-opacity="0.501961" />
<path d="M 41 121 L 65 128 L 18 146 Z" fill="#eda667" fill-opacity="0.501961" />
<path d="M 127.897 51.1725 L 116.193 49.8196 L 101.683 45.2155 L 163.733 48.6884 Z" fill="#b57864" fill-opacity="0.501961" />
<path d="M 77.404 113.229 C 77.5498 108.311, 81.8706 105.255, 90.3665 104.06" fill="none" stroke="#481411" stroke-opacity="0.501961" stroke-width="1.94898" stroke-linecap="round" />
<path d="M 245 23 L 248 -16 L 261 3 Z" fill="#e6b59e" fill-opacity="0.501961" />
<path d="M 176.748 94.0598 L 184.172 111.549 L 183.252 111.94 L 175.828 94.4506 Z" fill="#db8e53" fill-opacity="0.501961" />
<path d="M 80.3482 105.239 L 66.6576 87.4513 L 70.5052 66.9507 L 79.8679 68.1029 Z" fill="#8f6253" fill-opacity="0.501961" />
<path d="M 206.815 166.683 L 230.536 147.418 L 271 155.186 L 271 154.807 Z" fill="#ffe6ab" fill-opacity="0.501961" />
<path d="M 99.4783 203.937 L 101.809 184.755 L 110.351 200.21 L 90.1699 185.581 Z" fill="#88543a" fill-opacity="0.501961" />
<path d="M 6.34571 131.967 C 10.9173 135.569, 12.3743 142.637, 9.60012 147.754 C 6.82593 152.87, 0.871018 154.098, -3.70054 150.496 C -8.2721 146.893, -9.72915 139.825, -6.95495 134.709 C -4.18076 129.592, 1.77415 128.364, 6.34571 131.967" fill="#b3a461" fill-opacity="0.501961" />
<path d="M 76.5554 51.1102 L 93.3316 33.8801 L 90.9052 49.686 L 75.8697 72.9781 Z" fill="#704839" fill-opacity="0.501961" />
<path d="M 198 188 L 251 216 L 240 191 Z" fill="#ffe088" fill-opacity="0.501961" />
<path d="M 135.607 174.464 C 141.464 176.417, 141.464 179.583, 135.607 181.536 C 129.749 183.488, 120.251 183.488, 114.393 181.536 C 108.536 179.583, 108.536 176.417, 114.393 174.464 C 120.251 172.512, 129.749 172.512, 135.607 174.464" fill="#d0826d" fill-opacity="0.501961" />
<path d="M 125 112 L 132 112 L 132 136 L 125 136 Z" fill="#ffd9d9" fill-opacity="0.501961" />
<path d="M 6.16712 231.54 C -0.488945 230.443, -8.64586 224.833, -12.0519 219.01 C -15.4579 213.187, -12.8232 209.356, -6.16712 210.453 C 0.488945 211.551, 8.64586 217.161, 12.0519 222.984 C 15.4579 228.807, 12.8232 232.638, 6.16712 231.54" fill="#dfcb91" fill-opacity="0.501961" />
<path d="M 75.1269 227.849 L 82.7489 242.565 L 86.1126 216.803 L 84.1011 219.403 Z" fill="#e7b8a9" fill-opacity="0.501961" />
<path d="M 152 184 L 138 170 L 154 161 Z" fill="#fabaaa" fill-opacity="0.501961" />
<path d="M 134.186 218.884 L 145.295 206.473 L 120.867 212.523 L 118.731 223.048 Z" fill="#903d09" fill-opacity="0.501961" />
<path d="M 99 225 L 87 234 L 88 184 Z" fill="#d59b86" fill-opacity="0.501961" />
<path d="M 15.272 240.379 C 16.9353 243.16, 15.6705 245.147, 12.447 244.816 C 9.22352 244.485, 5.26201 241.962, 3.59872 239.181 C 1.93543 236.4, 3.20022 234.414, 6.42371 234.745 C 9.64719 235.076, 13.6087 237.598, 15.272 240.379" fill="#b5a441" fill-opacity="0.501961" />
<path d="M 162.071 101.293 C 165.976 101.683, 165.976 102.317, 162.071 102.707 C 158.166 103.098, 151.834 103.098, 147.929 102.707 C 144.024 102.317, 144.024 101.683, 147.929 101.293 C 151.834 100.902, 158.166 100.902, 162.071 101.293" fill="#4f4d6a" fill-opacity="0.501961" />
<path d="M 29.7067 36.0923 L 54.6388 14.5434 L 34.8547 -9.66091 L 41 14.2658 Z" fill="#dfc8c3" fill-opacity="0.501961" />
<path d="M 140.647 56.062 L 117.252 52.6952 L 163.074 74.2819 L 152.394 57.2497 Z" fill="#f5b19e" fill-opacity="0.501961" />
<path d="M 112 245 L 121 271 L 85 248 Z" fill="#cfada9" fill-opacity="0.501961" />
<path d="M 157 162 L 164 162 L 164 209 L 157 209 Z" fill="#fc9d6b" fill-opacity="0.501961" />
<path d="M 271 228.708 L 235.379 217.92 L 247.228 237.712 L 254.537 234.348 Z" fill="#cec771" fill-opacity="0.501961" />
<path d="M 99 177 L 120 196 L 113 201 Z" fill="#cca097" fill-opacity="0.501961" />
<path d="M 225 107 L 246 98 L 242 110 Z" fill="#c6aa88" fill-opacity="0.501961" />
<path d="M 244 45 L 247 33 L 271 43 Z" fill="#b9b35e" fill-opacity="0.501961" />
<path d="M 152 98 L 163 98 L 163 101 L 152 101 Z" fill="#bc8782" fill-opacity="0.501961" />
<path d="M 16.5355 -13.7487 C 18.4882 -0.0803871, 18.4882 22.0804, 16.5355 35.7487 C 14.5829 49.4171, 11.4171 49.4171, 9.46447 35.7487 C 7.51184 22.0804, 7.51184 -0.0803871, 9.46447 -13.7487 C 11.4171 -27.4171, 14.5829 -27.4171, 16.5355 -13.7487" fill="#e2bcb3" fill-opacity="0.501961" />
<path d="M 105 92 L 153 92 L 153 94 L 105 94 Z" fill="#f8a99e" fill-opacity="0.501961" />
<path d="M 178.318 174.047 L 202.316 117.17 L 182.909 197.013 L 184.545 199.827 Z" fill="#fde29f" fill-opacity="0.501961" />
<path d="M 49.934 132.453 L 9.50288 172.405 L 0.604493 157.169 L 40.8111 171.818 Z" fill="#ffcc87" fill-opacity="0.501961" />
<path d="M 176.604 113.57 L 174.612 113.396 L 175.396 104.43 L 177.388 104.604 Z" fill="#1a0000" fill-opacity="0.501961" />
<path d="M 6.56092 125.288 L -16 103.661 L 38.0794 120.546 L 35.2589 103.723 Z" fill="#bf845d" fill-opacity="0.501961" />
<path d="M 134 111 L 136 111 L 136 116 L 134 116 Z" fill="#411313" fill-opacity="0.501961" />
<path d="M 45.8995 45.7574 C 51.3668 48.1005, 51.3668 51.8995, 45.8995 54.2426 C 40.4322 56.5858, 31.5678 56.5858, 26.1005 54.2426 C 20.6332 51.8995, 20.6332 48.1005, 26.1005 45.7574 C 31.5678 43.4142, 40.4322 43.4142, 45.8995 45.7574" fill="#fcc790" fill-opacity="0.501961" />
<path d="M 119.692 214.787 L 119.652 214.112 L 132.679 199.376 L 145.557 207.191 Z" fill="#701900" fill-opacity="0.501961" />
<path d="M 102.361 171.375 C 105.978 173.494, 110.181 178.364, 111.749 182.252 C 113.316 186.14, 111.655 187.574, 108.038 185.454 C 104.421 183.335, 100.218 178.465, 98.6507 174.577 C 97.0831 170.689, 98.7444 169.255, 102.361 171.375" fill="#ebb7aa" fill-opacity="0.501961" />
<path d="M 140 6 L 107 -16 L 74 2 Z" fill="#f1ded2" fill-opacity="0.501961" />
<path d="M 126 44 L 101 40 L 119 38 Z" fill="#692f1c" fill-opacity="0.501961" />
<path d="M 74 70 L 75 70 L 75 120 L 74 120 Z" fill="#683a1f" fill-opacity="0.501961" />
<path d="M 85.215 178.907 C 80.3732 172.364, 80.8636 171.963, 86.3101 178.012 C 91.7567 184.061, 100.097 194.269, 104.939 200.813 C 109.781 207.356, 109.29 207.756, 103.844 201.707 C 98.3971 195.658, 90.0567 185.45, 85.215 178.907" fill="#783b12" fill-opacity="0.501961" />
<path d="M 63.7782 84.5147 C 68.0739 89.201, 68.0739 96.799, 63.7782 101.485 C 59.4824 106.172, 52.5176 106.172, 48.2218 101.485 C 43.9261 96.799, 43.9261 89.201, 48.2218 84.5147 C 52.5176 79.8284, 59.4824 79.8284, 63.7782 84.5147" fill="#be9672" fill-opacity="0.501961" />
<path d="M 141.121 99.3431 C 142.293 102.467, 142.293 107.533, 141.121 110.657 C 139.95 113.781, 138.05 113.781, 136.879 110.657 C 135.707 107.533, 135.707 102.467, 136.879 99.3431 C 138.05 96.219, 139.95 96.219, 141.121 99.3431" fill="#b24b27" fill-opacity="0.501961" />
<path d="M 110.778 101.293 C 115.074 101.683, 115.074 102.317, 110.778 102.707 C 106.482 103.098, 99.5176 103.098, 95.2218 102.707 C 90.9261 102.317, 90.9261 101.683, 95.2218 101.293 C 99.5176 100.902, 106.482 100.902, 110.778 101.293" fill="#48364b" fill-opacity="0.501961" />
<path d="M 188.094 117.584 L 187.362 118.266 L 181.906 112.416 L 182.638 111.734 Z" fill="#7d2000" fill-opacity="0.501961" />
<path d="M 35 244 L 123 271 L -8 271 Z" fill="#352430" fill-opacity="0.501961" />
<path d="M 262 236 L 271 271 L 239 247 Z" fill="#ffd395" fill-opacity="0.501961" />
<path d="M 185.221 151.389 L 194.862 139.898 L 214.779 156.611 L 205.138 168.102 Z" fill="#ffeab7" fill-opacity="0.501961" />
<path d="M 169.421 200.771 C 170.274 210.433, 168.628 225.773, 165.744 235.033 C 162.861 244.294, 159.832 243.969, 158.979 234.307 C 158.125 224.646, 159.772 209.306, 162.655 200.045 C 165.539 190.785, 168.568 191.11, 169.421 200.771" fill="#fdb88a" fill-opacity="0.501961" />
<path d="M 98.8214 152.057 L 103.185 144.186 L 117.179 151.943 L 112.815 159.814 Z" fill="#b87b64" fill-opacity="0.501961" />
<path d="M 192.121 87.2218 C 193.293 91.5176, 193.293 98.4824, 192.121 102.778 C 190.95 107.074, 189.05 107.074, 187.879 102.778 C 186.707 98.4824, 186.707 91.5176, 187.879 87.2218 C 189.05 82.9261, 190.95 82.9261, 192.121 87.2218" fill="#c36e28" fill-opacity="0.501961" />
<path d="M 117 192 L 131 182 L 153 182 Z" fill="#f7c6c2" fill-opacity="0.501961" />
<path d="M 104.312 141.882 L 90.3452 152.575 L 89.4128 157.544 L 104.945 143.648 Z" fill="#872b10" fill-opacity="0.501961" />
<path d="M 171.094 177.678 C 178.962 169.305, 180.081 170.205, 173.593 179.687 C 167.105 189.17, 155.468 203.644, 147.6 212.017 C 139.732 220.39, 138.613 219.49, 145.101 210.008 C 151.588 200.525, 163.226 186.051, 171.094 177.678" fill="#f48f36" fill-opacity="0.501961" />
<path d="M 122.695 113.307 L 121.952 112.638 L 127.305 106.693 L 128.048 107.362 Z" fill="#030000" fill-opacity="0.501961" />
<path d="M 70.7273 137.854 C 73.5794 142.017, 76.2901 149.464, 76.7819 154.487 C 77.2736 159.51, 75.3602 160.206, 72.5081 156.043 C 69.656 151.879, 66.9453 144.432, 66.4535 139.409 C 65.9617 134.387, 67.8752 133.69, 70.7273 137.854" fill="#f5ad9d" fill-opacity="0.501961" />
<path d="M 168.224 107.535 L 150.383 103.848 L 179.076 117.501 L 165.451 120.203 Z" fill="#eda477" fill-opacity="0.501961" />
<path d="M 123.885 39.1111 C 140.585 40.214, 151.848 39.1929, 157.675 36.0479" fill="none" stroke="#b37e69" stroke-opacity="0.501961" stroke-width="2.92555" stroke-linecap="round" />
<path d="M 176.684 101.463 C 176.423 96.0535, 176.88 87.3284, 177.704 81.9753 C 178.528 76.6223, 179.408 76.6683, 179.668 82.0782 C 179.928 87.4881, 179.471 96.2132, 178.647 101.566 C 177.823 106.919, 176.944 106.873, 176.684 101.463" fill="#ed9c81" fill-opacity="0.501961" />
<path d="M 128.408 123.925 L 117.399 141.348 L 116.601 138.85 L 125.577 111.618 Z" fill="#f2ada4" fill-opacity="0.501961" />
<path d="M 163.096 174.274 L 176.112 147.845 L 156.02 142.259 L 170.503 152.91 Z" fill="#f58d5c" fill-opacity="0.501961" />
<path d="M 84.1263 163.936 L 96.0904 143.881 L 83.2548 145.196 L 74.5883 158.856 Z" fill="#c17552" fill-opacity="0.501961" />
<path d="M 141.48 21.6352 L 110.666 24.9178 L 131.598 3.0399 L 152.341 7.62743 Z" fill="#f3d6af" fill-opacity="0.501961" />
<path d="M 168.936 46.674 C 148.626 25.3218, 129.175 19.527, 110.585 29.2897" fill="none" stroke="#ad7d67" stroke-opacity="0.501961" stroke-width="1.67571" stroke-linecap="round" />
<path d="M 213.499 86.8535 C 214.425 90.6961, 213.031 96.1924, 210.386 99.1296 C 207.741 102.067, 204.847 101.333, 203.92 97.4903 C 202.994 93.6476, 204.388 88.1514, 207.033 85.2141 C 209.678 82.2769, 212.573 83.0108, 213.499 86.8535" fill="#feebc2" fill-opacity="0.501961" />
<path d="M 159.185 163.206 C 138.572 167.965, 118.912 168.819, 100.206 165.768" fill="none" stroke="#ce7f89" stroke-opacity="0.501961" stroke-width="3.09571" stroke-linecap="round" />
<path d="M 39.5595 86.9075 C 35.1756 89.5808, 29.4087 88.2224, 26.6789 83.8733 C 23.9492 79.5243, 25.2901 73.8315, 29.6741 71.1581 C 34.0581 68.4848, 39.825 69.8432, 42.5547 74.1923 C 45.2845 78.5414, 43.9435 84.2341, 39.5595 86.9075" fill="#f9b682" fill-opacity="0.501961" />
<path d="M 20.4856 116.635 L 7.54305 136.778 L 23.456 134.68 L 36.8759 118.27 Z" fill="#917553" fill-opacity="0.501961" />
<path d="M 180 131 L 160 120 L 166 141 Z" fill="#f9c6b7" fill-opacity="0.501961" />
<path d="M 138.684 104.607 L 145.41 102.541 L 131.312 109.697 L 135.139 109.622 Z" fill="#2f1015" fill-opacity="0.501961" />
<path d="M 216 36 L 212 10 L 177 43 Z" fill="#d2b86b" fill-opacity="0.501961" />
<path d="M 156.414 18.1228 C 152.099 15.6118, 152.648 13.6703, 157.638 13.7864 C 162.629 13.9024, 170.172 16.0321, 174.486 18.5431 C 178.801 21.0541, 178.253 22.9956, 173.262 22.8795 C 168.271 22.7634, 160.728 20.6338, 156.414 18.1228" fill="#d5b56b" fill-opacity="0.501961" />
<path d="M 229 172 L 271 181 L 198 142 Z" fill="#ffdf86" fill-opacity="0.501961" />
<path d="M 229.102 -9.22015 C 230.278 -15.5446, 234.418 -16.5437, 238.349 -11.4515 C 242.28 -6.35936, 244.513 2.89565, 243.337 9.22015 C 242.161 15.5446, 238.021 16.5437, 234.09 11.4515 C 230.159 6.35936, 227.925 -2.89565, 229.102 -9.22015" fill="#f7dabd" fill-opacity="0.501961" />
<path d="M 153.628 145.98 C 136.91 139.259, 123.911 137.936, 114.631 142.012" fill="none" stroke="#f4a083" stroke-opacity="0.501961" stroke-width="2.44308" stroke-linecap="round" />
<path d="M 57.9544 176.404 C 59.8218 181.719, 57.3623 188.281, 52.4609 191.059 C 47.5596 193.837, 42.0723 191.781, 40.2049 186.465 C 38.3375 181.149, 40.797 174.588, 45.6983 171.81 C 50.5997 169.031, 56.0869 171.088, 57.9544 176.404" fill="#fcbe56" fill-opacity="0.501961" />
<path d="M 222.408 225.505 L 210.828 231.157 L 209.675 214.324 L 218.303 207.036 Z" fill="#f8d4a3" fill-opacity="0.501961" />
<path d="M 75.808 190.716 L 67.2965 149.299 L 79.0132 162.283 L 88.3025 208.825 Z" fill="#fecb68" fill-opacity="0.501961" />
<path d="M 92 98 L 104 98 L 104 101 L 92 101 Z" fill="#c38a81" fill-opacity="0.501961" />
<path d="M 122.336 163.332 C 116.185 163.383, 116.139 162.752, 122.234 161.922 C 128.329 161.092, 138.256 160.378, 144.407 160.327 C 150.558 160.277, 150.603 160.908, 144.508 161.738 C 138.414 162.568, 128.486 163.282, 122.336 163.332" fill="#a7310d" fill-opacity="0.501961" />
<path d="M 78.5318 171.279 L 96.896 177.356 L 83.5057 150.282 L 86.2392 174.399 Z" fill="#a96142" fill-opacity="0.501961" />
<path d="M 66 119 L 69 119 L 69 131 L 66 131 Z" fill="#b31208" fill-opacity="0.501961" />
<path d="M 209.954 187.828 C 212.885 183.221, 219.448 178.051, 224.613 176.281 C 229.778 174.511, 231.59 176.81, 228.659 181.417 C 225.728 186.024, 219.164 191.194, 213.999 192.964 C 208.834 194.734, 207.023 192.435, 209.954 187.828" fill="#ffebbb" fill-opacity="0.501961" />
<path d="M 81.6496 219.188 C 79.6853 216.719, 65.9434 223.892, 40.4239 240.706" fill="none" stroke="#e3c165" stroke-opacity="0.501961" stroke-width="3.36674" stroke-linecap="round" />
<path d="M 130 13 L 179 25 L 155 28 Z" fill="#f3d797" fill-opacity="0.501961" />
<path d="M 159 129 L 166 127 L 153 127 Z" fill="#9e97b3" fill-opacity="0.501961" />
<path d="M 64.9497 111.05 C 67.6834 113.784, 67.6834 118.216, 64.9497 120.95 C 62.2161 123.683, 57.7839 123.683, 55.0503 120.95 C 52.3166 118.216, 52.3166 113.784, 55.0503 111.05 C 57.7839 108.317, 62.2161 108.317, 64.9497 111.05" fill="#e8ca9f" fill-opacity="0.501961" />
<path d="M 22.5547 152.917 C 55.5085 121.224, 73.5308 106.18, 76.6214 107.786" fill="none" stroke="#e8b67c" stroke-opacity="0.501961" stroke-width="1.56554" stroke-linecap="round" />
<path d="M 93.6788 51.3711 L 93.2842 96.7562 L 134.818 84.4197 L 129.275 102.553 Z" fill="#f9c5b9" fill-opacity="0.501961" />
<path d="M 126 167 L 160 167 L 160 171 L 126 171 Z" fill="#f2aeb0" fill-opacity="0.501961" />
<path d="M 205.942 241.703 L 175.855 224.642 L 225.48 244.814 L 271 266.388 Z" fill="#6a534c" fill-opacity="0.501961" />
<path d="M 88 104 L 108 104 L 108 105 L 88 105 Z" fill="#ca927a" fill-opacity="0.501961" />
<path d="M 168.5 249.346 C 164.119 253.707, 161.748 252.373, 163.204 246.365 C 164.66 240.357, 169.391 231.952, 173.772 227.59 C 178.152 223.229, 180.523 224.563, 179.067 230.571 C 177.611 236.578, 172.88 244.984, 168.5 249.346" fill="#eec5bb" fill-opacity="0.501961" />
<path d="M 132.341 57.28 L 135.711 69.4753 L 97.191 64.6877 L 100.912 60.1584 Z" fill="#fededa" fill-opacity="0.501961" />
<path d="M 161.828 41.1716 C 163.391 42.7337, 163.391 45.2663, 161.828 46.8284 C 160.266 48.3905, 157.734 48.3905, 156.172 46.8284 C 154.609 45.2663, 154.609 42.7337, 156.172 41.1716 C 157.734 39.6095, 160.266 39.6095, 161.828 41.1716" fill="#92471f" fill-opacity="0.501961" />
<path d="M 79.2427 69.8094 L 80.6828 97.5239 L 74.1763 79.6869 L 80.4723 69.1813 Z" fill="#b28171" fill-opacity="0.501961" />
<path d="M 167.362 35.3374 L 182.117 46.8283 L 187.263 55.0992 L 210.132 49.8714 Z" fill="#dfc78c" fill-opacity="0.501961" />
<path d="M 172.36 103.321 L 178.383 110.01 L 177.64 110.679 L 171.617 103.99 Z" fill="#290000" fill-opacity="0.501961" />
<path d="M 239.929 151.675 L 219.103 113.157 L 212.162 107.699 L 226.14 98.1755 Z" fill="#eab362" fill-opacity="0.501961" />
<path d="M 120.962 106.628 C 122.378 121.119, 119.818 128.38, 113.281 128.411" fill="none" stroke="#764e4c" stroke-opacity="0.501961" stroke-width="1.88259" stroke-linecap="round" />
<path d="M 187.024 158.322 L 167.925 178.5 L 189.49 129.622 L 177.528 153.423 Z" fill="#feae76" fill-opacity="0.501961" />
<path d="M 181.603 110.254 C 196.425 113.931, 206.121 118.694, 210.692 124.543" fill="none" stroke="#f9e49d" stroke-opacity="0.501961" stroke-width="1.23643" stroke-linecap="round" />
<path d="M 180 122 L 184 122 L 184 135 L 180 135 Z" fill="#e9914e" fill-opacity="0.501961" />
<path d="M 168 45 L 184 58 L 189 75 Z" fill="#8d5e49" fill-opacity="0.501961" />
<path d="M 222.066 66.7876 L 202.409 43.2823 L 224.082 97.1541 L 224.32 81.182 Z" fill="#d1d06d" fill-opacity="0.501961" />
<path d="M 116.071 116.757 C 119.976 119.101, 119.976 122.899, 116.071 125.243 C 112.166 127.586, 105.834 127.586, 101.929 125.243 C 98.0237 122.899, 98.0237 119.101, 101.929 116.757 C 105.834 114.414, 112.166 114.414, 116.071 116.757" fill="#dea598" fill-opacity="0.501961" />
<path d="M 104.497 233.668 L 133.471 271 L 134.334 264.298 L 86.1837 241.713 Z" fill="#c89a8d" fill-opacity="0.501961" />
<path d="M 75 111 L 76 111 L 76 128 L 75 128 Z" fill="#5b2810" fill-opacity="0.501961" />
<path d="M 155.095 193.909 C 145.751 205.749, 140.651 211.643, 139.794 211.59" fill="none" stroke="#c8550c" stroke-opacity="0.501961" stroke-width="3.63712" stroke-linecap="round" />
<path d="M 78 61 L 80 52 L 88 51 Z" fill="#582b13" fill-opacity="0.501961" />
<path d="M 100.187 162.26 C 101.254 155.544, 105.095 153.455, 111.71 155.995" fill="none" stroke="#9b5734" stroke-opacity="0.501961" stroke-width="3.19109" stroke-linecap="round" />
<path d="M 93 128 L 110 128 L 110 129 L 93 129 Z" fill="#9c8e9d" fill-opacity="0.501961" />
<path d="M 167.225 155.965 L 166.416 156.553 L 158.775 146.035 L 159.584 145.447 Z" fill="#902102" fill-opacity="0.501961" />
<path d="M 84.8764 36.4293 L 97.0088 19.3107 L 114.44 24.8657 L 75.6963 43.1307 Z" fill="#dfbda0" fill-opacity="0.501961" />
<path d="M 247.999 59.1088 C 252.373 61.916, 258.084 67.8069, 260.754 72.2665 C 263.424 76.726, 262.043 78.0654, 257.668 75.2582 C 253.294 72.451, 247.583 66.5601, 244.913 62.1005 C 242.243 57.641, 243.624 56.3016, 247.999 59.1088" fill="#b7a480" fill-opacity="0.501961" />
<path d="M 70.8399 108.319 C 69.4472 113.219, 68.8267 113.094, 69.454 108.038 C 70.0813 102.982, 71.7189 94.9109, 73.1116 90.0104 C 74.5044 85.1099, 75.1249 85.2358, 74.4976 90.2916 C 73.8703 95.3474, 72.2327 103.419, 70.8399 108.319" fill="#622e0d" fill-opacity="0.501961" />
<path d="M 32 137 L 36 128 L 11 138 Z" fill="#c18a52" fill-opacity="0.501961" />
<path d="M 118.073 130.683 L 110.801 143.802 L 109.927 143.317 L 117.199 130.198 Z" fill="#cd6d58" fill-opacity="0.501961" />
<path d="M 175.82 221.867 C 189.991 238.038, 209.054 254.416, 233.012 271" fill="none" stroke="#4b3132" stroke-opacity="0.501961" stroke-width="2.10578" stroke-linecap="round" />
<path d="M 13.6298 99.8106 L 6.98298 89.1462 L 22.0788 83.0845 L 54.7354 97.1575 Z" fill="#d69d7c" fill-opacity="0.501961" />
<path d="M 225.592 225.372 L 233.663 218.586 L 223.622 241.614 L 208.345 239.12 Z" fill="#d2cc7a" fill-opacity="0.501961" />
<path d="M 91 188 L 105 223 L 105 203 Z" fill="#a8694b" fill-opacity="0.501961" />
<path d="M 150.159 139.319 C 158.389 142.832, 163.662 146.459, 165.979 150.202" fill="none" stroke="#c75e46" stroke-opacity="0.501961" stroke-width="2.57679" stroke-linecap="round" />
<path d="M 200.146 174.537 L 207.216 182.963 L 201.854 187.463 L 194.784 179.037 Z" fill="#fbcd64" fill-opacity="0.501961" />
<path d="M 159.997 70.859 C 164.353 65.6818, 170.883 66.078, 174.581 71.7439 C 178.279 77.4099, 177.745 86.1999, 173.389 91.3771 C 169.033 96.5543, 162.504 96.1581, 158.806 90.4922 C 155.108 84.8263, 155.641 76.0362, 159.997 70.859" fill="#ffcbb3" fill-opacity="0.501961" />
<path d="M 178.488 66.3014 C 184.267 68.3949, 183.971 69.9492, 177.827 69.7729 C 171.683 69.5966, 162.017 67.7565, 156.237 65.6629 C 150.458 63.5693, 150.754 62.0151, 156.898 62.1914 C 163.042 62.3677, 172.708 64.2078, 178.488 66.3014" fill="#eb9466" fill-opacity="0.501961" />
<path d="M 226 205 L 240 213 L 238 204 Z" fill="#fff4bc" fill-opacity="0.501961" />
<path d="M 81.9364 115.636 C 81.2406 112.665, 81.8335 112.443, 83.2608 115.14 C 84.6881 117.837, 86.4093 122.433, 87.1052 125.404 C 87.8011 128.375, 87.2081 128.597, 85.7808 125.9 C 84.3535 123.203, 82.6323 118.607, 81.9364 115.636" fill="#94756d" fill-opacity="0.501961" />
<path d="M 248.106 169.653 C 242.499 170.297, 241.04 167.442, 244.847 163.276 C 248.655 159.109, 256.286 155.209, 261.894 154.564 C 267.501 153.92, 268.96 156.775, 265.153 160.941 C 261.345 165.108, 253.714 169.008, 248.106 169.653" fill="#fff2ca" fill-opacity="0.501961" />
<path d="M 103.459 119.685 L 101.167 110.383 L 127.823 86.9525 L 91.7379 119.574 Z" fill="#bb7c67" fill-opacity="0.501961" />
<path d="M 233.132 193.245 L 197.163 218.372 L 171.126 182.315 L 195.729 199.717 Z" fill="#f3c56c" fill-opacity="0.501961" />
<path d="M 136 143 L 140 143 L 140 146 L 136 146 Z" fill="#980000" fill-opacity="0.501961" />
<path d="M 142.068 130.69 C 145.272 139.43, 151.67 147.206, 161.265 154.016" fill="none" stroke="#d7846f" stroke-opacity="0.501961" stroke-width="3.88594" stroke-linecap="round" />
<path d="M 235.801 88.9921 L 271 115.909 L 269.365 101.244 L 235.135 77.143 Z" fill="#d5d66c" fill-opacity="0.501961" />
<path d="M 130.411 191.289 L 127.546 192.543 L 119.99 203.778 L 138.202 195.925 Z" fill="#b36e5e" fill-opacity="0.501961" />
<path d="M -3.21473 74.6976 C -12.4118 73.9254, -12.8366 70.741, -4.16352 67.585 C 4.50958 64.429, 18.9962 62.4966, 28.1933 63.2688 C 37.3904 64.041, 37.8152 67.2254, 29.1421 70.3813 C 20.469 73.5373, 5.98237 75.4698, -3.21473 74.6976" fill="#cd9674" fill-opacity="0.501961" />
<path d="M 116.119 157.373 C 128.079 161.94, 138.897 160.916, 148.573 154.301" fill="none" stroke="#d07658" stroke-opacity="0.501961" stroke-width="1.72772" stroke-linecap="round" />
<path d="M 133 107 L 135 107 L 135 112 L 133 112 Z" fill="#040000" fill-opacity="0.501961" />
<path d="M 104.177 110.438 C 106.19 108.732, 109.956 107.206, 112.589 107.029 C 115.222 106.853, 115.724 108.093, 113.711 109.799 C 111.698 111.505, 107.932 113.031, 105.3 113.207 C 102.667 113.384, 102.164 112.144, 104.177 110.438" fill="#491700" fill-opacity="0.501961" />
<path d="M 13 -9 L 34 20 L 45 13 Z" fill="#dfa482" fill-opacity="0.501961" />
<path d="M 253.299 106.423 L 259.12 107.874 L 256.701 117.577 L 250.88 116.126 Z" fill="#d5dda6" fill-opacity="0.501961" />
<path d="M 92 123 L 102 123 L 102 131 L 92 131 Z" fill="#ebbcad" fill-opacity="0.501961" />
<path d="M 196.906 218.639 L 220.299 218.284 L 190.36 229.643 L 241.294 250.18 Z" fill="#e8ca7e" fill-opacity="0.501961" />
<path d="M 211.196 111.277 L 184.57 125.651 L 194.415 115.179 L 209.712 131.945 Z" fill="#fedaa3" fill-opacity="0.501961" />
<path d="M -15 198 L 25 229 L 17 205 Z" fill="#e4bd6b" fill-opacity="0.501961" />
<path d="M 184.936 89.892 C 185.619 94.9249, 186.094 103.121, 185.997 108.2 C 185.9 113.278, 185.268 113.314, 184.585 108.281 C 183.902 103.248, 183.427 95.0519, 183.524 89.9738 C 183.621 84.8957, 184.253 84.8591, 184.936 89.892" fill="#9c5828" fill-opacity="0.501961" />
<path d="M 131.485 30.4645 C 136.172 32.4171, 136.172 35.5829, 131.485 37.5355 C 126.799 39.4882, 119.201 39.4882, 114.515 37.5355 C 109.828 35.5829, 109.828 32.4171, 114.515 30.4645 C 119.201 28.5118, 126.799 28.5118, 131.485 30.4645" fill="#956e5f" fill-opacity="0.501961" />
<path d="M 80.2077 51.3767 L 26.295 44.6644 L 86.8722 33.8261 L 66.2314 46.3652 Z" fill="#f1d2b2" fill-opacity="0.501961" />
<path d="M 15.94 163.952 L 5.19459 175.459 L 35.5282 192.466 L 43.5305 186.086 Z" fill="#f0ab60" fill-opacity="0.501961" />
<path d="M 211 40 L 221 40 L 221 45 L 211 45 Z" fill="#a19542" fill-opacity="0.501961" />
<path d="M 73 126 L 75 126 L 75 142 L 73 142 Z" fill="#d46f56" fill-opacity="0.501961" />
<path d="M 39.364 154.05 C 42.8787 156.784, 42.8787 161.216, 39.364 163.95 C 35.8492 166.683, 30.1508 166.683, 26.636 163.95 C 23.1213 161.216, 23.1213 156.784, 26.636 154.05 C 30.1508 151.317, 35.8492 151.317, 39.364 154.05" fill="#fad09c" fill-opacity="0.501961" />
<path d="M 192.924 137.703 L 188.422 131.447 L 184.416 128.984 L 184.094 158.222 Z" fill="#faa896" fill-opacity="0.501961" />
<path d="M 97.1632 212.017 C 94.2335 207.56, 90.8427 199.742, 89.5895 194.557 C 88.3363 189.372, 89.6954 188.783, 92.6251 193.241 C 95.5547 197.698, 98.9456 205.516, 100.199 210.701 C 101.452 215.886, 100.093 216.475, 97.1632 212.017" fill="#c17d64" fill-opacity="0.501961" />
<path d="M 146.472 129.036 L 132.393 116.412 L 135.681 116.628 L 143.038 129.564 Z" fill="#a28592" fill-opacity="0.501961" />
<path d="M 131.769 147.479 L 131.014 146.823 L 138.231 138.521 L 138.986 139.177 Z" fill="#ffa860" fill-opacity="0.501961" />
<path d="M 103.674 160.566 L 105.352 158.079 L 110.326 161.434 L 108.648 163.921 Z" fill="#150000" fill-opacity="0.501961" />
<path d="M 121.178 51.1088 L 147.461 43.3916 L 176.544 54.4079 L 129.157 52.3907 Z" fill="#b77960" fill-opacity="0.501961" />
<path d="M 122.285 106.755 C 119.265 102.321, 109.99 104.405, 94.4618 113.009" fill="none" stroke="#7d3b22" stroke-opacity="0.501961" stroke-width="2.52111" stroke-linecap="round" />
<path d="M 271 162.566 L 196.976 119.732 L 194.306 140.061 L 228.691 142.834 Z" fill="#fcd384" fill-opacity="0.501961" />
<path d="M 192.474 215.974 L 181.528 222.659 L 193.886 231.66 L 171.139 218.267 Z" fill="#cba876" fill-opacity="0.501961" />
<path d="M 107 135 L 82 143 L 84 133 Z" fill="#f4b0a0" fill-opacity="0.501961" />
<path d="M 217.59 184.196 L 230.35 174.931 L 225.775 167.661 L 201.626 173.021 Z" fill="#fff3d5" fill-opacity="0.501961" />
<path d="M 59.067 37.0947 L 62.4445 28.0825 L 84.4912 -5.20727 L 34.4033 33.7268 Z" fill="#efeae8" fill-opacity="0.501961" />
<path d="M 200.197 58.2425 L 192.391 72.1383 L 190.231 79.7594 L 191.757 55.0332 Z" fill="#beb55c" fill-opacity="0.501961" />
<path d="M 203.485 -5.31371 C 208.172 0.93468, 208.172 11.0653, 203.485 17.3137 C 198.799 23.5621, 191.201 23.5621, 186.515 17.3137 C 181.828 11.0653, 181.828 0.93468, 186.515 -5.31371 C 191.201 -11.5621, 198.799 -11.5621, 203.485 -5.31371" fill="#ddc97a" fill-opacity="0.501961" />
<path d="M 176.212 76.5043 L 189.22 58.3653 L 193.837 90.6402 L 186.169 91.3309 Z" fill="#b27f60" fill-opacity="0.501961" />
<path d="M -2.07099 176.907 L -5.57945 165.432 L 2.07099 163.093 L 5.57945 174.568 Z" fill="#c0a850" fill-opacity="0.501961" />
<path d="M 163.261 63.899 C 159.245 63.5878, 155.213 60.1641, 154.255 56.2519 C 153.298 52.3397, 155.777 49.4204, 159.793 49.7316 C 163.808 50.0427, 167.84 53.4664, 168.798 57.3786 C 169.755 61.2909, 167.276 64.2101, 163.261 63.899" fill="#d17742" fill-opacity="0.501961" />
<path d="M 104 35 L 92 48 L 97 33 Z" fill="#905a3b" fill-opacity="0.501961" />
<path d="M 154 269 L 153 216 L 130 271 Z" fill="#dda08b" fill-opacity="0.501961" />
<path d="M 58.0452 152.576 L 39.209 166.539 L 60.8909 134.167 L 73.0752 128.456 Z" fill="#f4ad7d" fill-opacity="0.501961" />
<path d="M 69.9333 115.687 L 72.9169 115.373 L 74.0667 126.313 L 71.0831 126.627 Z" fill="#d2755d" fill-opacity="0.501961" />
<path d="M 122.674 28.8367 C 119.744 27.8904, 119.861 27.268, 122.935 27.4466 C 126.009 27.6252, 130.876 28.5371, 133.807 29.4834 C 136.737 30.4297, 136.621 31.0521, 133.546 30.8735 C 130.472 30.6949, 125.605 29.783, 122.674 28.8367" fill="#6d4535" fill-opacity="0.501961" />
<path d="M 232.446 129.294 C 229.796 126.342, 227.834 120.738, 228.064 116.778 C 228.294 112.817, 230.629 112, 233.279 114.952 C 235.929 117.904, 237.891 123.508, 237.661 127.469 C 237.431 131.429, 235.096 132.246, 232.446 129.294" fill="#c9a247" fill-opacity="0.501961" />
<path d="M 187.095 117.109 C 186.793 118.978, 185.199 119.762, 183.535 118.858 C 181.87 117.955, 180.765 115.706, 181.067 113.837 C 181.369 111.967, 182.963 111.183, 184.628 112.087 C 186.292 112.99, 187.397 115.239, 187.095 117.109" fill="#9b4300" fill-opacity="0.501961" />
<path d="M 188 94 L 183 94 L 183 104 L 188 104 Z" fill="#963e07" fill-opacity="0.501961" />
<path d="M 180.528 111.059 L 170.347 129.426 L 169.472 128.941 L 179.653 110.574 Z" fill="#dfa385" fill-opacity="0.501961" />
<path d="M 136.564 118.233 L 140.319 125.297 L 139.436 125.767 L 135.681 118.703 Z" fill="#655879" fill-opacity="0.501961" />
<path d="M 209.894 75.9091 L 195.986 70.29 L 200.106 60.0909 L 214.014 65.71 Z" fill="#fcde83" fill-opacity="0.501961" />
<path d="M 222 15 L 212 -3 L 216 17 Z" fill="#b09461" fill-opacity="0.501961" />
<path d="M 70.8725 114.051 L 80.6735 109.058 L 81.1275 109.949 L 71.3265 114.942 Z" fill="#320000" fill-opacity="0.501961" />
<path d="M 241.243 238.757 C 243.586 241.101, 243.586 244.899, 241.243 247.243 C 238.899 249.586, 235.101 249.586, 232.757 247.243 C 230.414 244.899, 230.414 241.101, 232.757 238.757 C 235.101 236.414, 238.899 236.414, 241.243 238.757" fill="#fcc878" fill-opacity="0.501961" />
<path d="M 137.769 91.5216 L 135.649 104.507 L 117.999 92.8725 L 121.455 105.597 Z" fill="#e48c78" fill-opacity="0.501961" />
<path d="M 159.312 129.55 L 172.455 149.455 L 148.409 136.136 L 173.131 133.73 Z" fill="#f8aea1" fill-opacity="0.501961" />
<path d="M 158.434 40.0533 C 154.373 42.3909, 147.341 44.9533, 142.728 45.7767 C 138.115 46.6001, 137.667 45.3726, 141.729 43.035 C 145.79 40.6975, 152.822 38.1351, 157.435 37.3117 C 162.048 36.4883, 162.495 37.7158, 158.434 40.0533" fill="#99583a" fill-opacity="0.501961" />
<path d="M 219.33 84.683 L 223.188 92.5666 L 216.837 111.306 L 209.42 114.217 Z" fill="#fcd587" fill-opacity="0.501961" />
<path d="M 152 159 L 160 162 L 157 153 Z" fill="#984822" fill-opacity="0.501961" />
<path d="M 38.5875 210.548 C 31.5874 209.328, 29.8188 204.106, 34.6374 198.884 C 39.456 193.662, 49.037 190.417, 56.0372 191.637 C 63.0374 192.857, 64.8059 198.079, 59.9873 203.301 C 55.1687 208.523, 45.5877 211.768, 38.5875 210.548" fill="#ffcd84" fill-opacity="0.501961" />
<path d="M 176 113 L 178 113 L 178 162 L 176 162 Z" fill="#ffd293" fill-opacity="0.501961" />
<path d="M 180.95 -0.949747 C 183.683 1.78392, 183.683 6.21608, 180.95 8.94975 C 178.216 11.6834, 173.784 11.6834, 171.05 8.94975 C 168.317 6.21608, 168.317 1.78392, 171.05 -0.949747 C 173.784 -3.68342, 178.216 -3.68342, 180.95 -0.949747" fill="#dac4a0" fill-opacity="0.501961" />
<path d="M 205 130 L 214 130 L 214 145 L 205 145 Z" fill="#f8d26c" fill-opacity="0.501961" />
<path d="M 119 143 L 122 143 L 122 146 L 119 146 Z" fill="#640000" fill-opacity="0.501961" />
<path d="M 80.0052 150.209 L 121.097 131.692 L 88.7313 131.763 L 102.375 137.04 Z" fill="#e18d7a" fill-opacity="0.501961" />
<path d="M 170.44 40.0688 L 180.148 47.1222 L 179.56 47.9312 L 169.852 40.8778 Z" fill="#5f4137" fill-opacity="0.501961" />
<path d="M 122.962 115.61 L 121.013 115.16 L 123.038 106.39 L 124.987 106.84 Z" fill="#1e0000" fill-opacity="0.501961" />
<path d="M 17.1008 239.171 L 14.2289 237.35 L 2.59812 225.34 L -16 229.255 Z" fill="#cbb26c" fill-opacity="0.501961" />
<path d="M 175.239 114.449 C 176.301 121.586, 172.437 126.904, 163.645 130.402" fill="none" stroke="#ca968a" stroke-opacity="0.501961" stroke-width="1.25233" stroke-linecap="round" />
<path d="M 87.4715 103.706 L 95.0076 95.6401 L 101.676 76.2705 L 81.553 70.6095 Z" fill="#ebb7a8" fill-opacity="0.501961" />
<path d="M 271 134 L 246 113 L 242 127 Z" fill="#c6bc64" fill-opacity="0.501961" />
<path d="M 149.694 149.301 L 133.477 125.259 L 134.306 124.699 L 150.523 148.741 Z" fill="#fab2a4" fill-opacity="0.501961" />
<path d="M 143.667 226.215 L 164.114 202.095 L 141.823 213.572 L 137.138 237.907 Z" fill="#e89164" fill-opacity="0.501961" />
<path d="M 54.5602 270.022 L 45.6677 271 L 76.2443 221.704 L 74.3264 248.621 Z" fill="#341d1f" fill-opacity="0.501961" />
<path d="M 1.91994 260.028 L 7.43294 249.614 L -16 242.351 L 21.9762 250.488 Z" fill="#e1cb7d" fill-opacity="0.501961" />
<path d="M 25.9944 62.2878 L 10.4779 70.1472 L 12.8353 57.7562 L -16 26.7019 Z" fill="#c2866c" fill-opacity="0.501961" />
<path d="M 60.6072 125.689 C 56.4003 127.258, 49.8298 126.723, 45.9317 124.495 C 42.0336 122.267, 42.2839 119.188, 46.4909 117.62 C 50.6979 116.051, 57.2684 116.585, 61.1665 118.813 C 65.0646 121.041, 64.8142 124.12, 60.6072 125.689" fill="#d8b892" fill-opacity="0.501961" />
<path d="M 260.154 222.929 L 237.895 198.587 L 250.021 202.337 L 271 163.839 Z" fill="#ffd35c" fill-opacity="0.501961" />
<path d="M 8.3169 163.641 L -4.59028 159.098 L 51.6803 144.25 L 48.261 127.796 Z" fill="#fac171" fill-opacity="0.501961" />
<path d="M 175 33 L 213 33 L 213 38 L 175 38 Z" fill="#ceb06d" fill-opacity="0.501961" />
<path d="M 16.6705 22.9122 L 16.2319 38.6488 L 84.6597 15.0454 L 82.3699 29.4695 Z" fill="#eeddd2" fill-opacity="0.501961" />
<path d="M 176.789 103.841 C 157.381 98.537, 145.812 94.0094, 142.082 90.2579" fill="none" stroke="#eeb2a6" stroke-opacity="0.501961" stroke-width="1.74173" stroke-linecap="round" />
<path d="M 254.263 136.766 L 266.752 156.321 L 214.923 142.297 L 238.374 144.629 Z" fill="#fdce8f" fill-opacity="0.501961" />
<path d="M 169 106 L 173 106 L 173 117 L 169 117 Z" fill="#febf9c" fill-opacity="0.501961" />
<path d="M 92.8793 168.477 L 90.2911 158.817 L 95.1207 157.523 L 97.7089 167.183 Z" fill="#e09c84" fill-opacity="0.501961" />
<path d="M 137.01 133.722 L 164.903 131.282 L 164.99 132.278 L 137.097 134.718 Z" fill="#e28671" fill-opacity="0.501961" />
<path d="M 229.31 179.309 L 234.76 201.737 L 207.002 204.977 L 223.485 211.365 Z" fill="#ffd679" fill-opacity="0.501961" />
<path d="M 14 196 L -16 192 L -5 171 Z" fill="#da8137" fill-opacity="0.501961" />
<path d="M 243 92.5 L 243 103.5 L 231 103.5 L 231 92.5 Z" fill="#e2c49b" fill-opacity="0.501961" />
<path d="M 101.772 40.4829 C 103.85 38.9097, 107.646 37.7148, 110.25 37.814 C 112.854 37.9132, 113.281 39.2689, 111.203 40.842 C 109.125 42.4152, 105.33 43.6101, 102.726 43.5109 C 100.121 43.4117, 99.6946 42.0561, 101.772 40.4829" fill="#5e250f" fill-opacity="0.501961" />
<path d="M 34.5937 195.355 L 79.1337 172.922 L 82.364 175.727 L 89.355 187.532 Z" fill="#fbc968" fill-opacity="0.501961" />
<path d="M 179.991 97.762 L 176.021 55.5566 L 175.75 74.3401 L 183.954 76.6697 Z" fill="#bb806d" fill-opacity="0.501961" />
<path d="M 266.263 180.713 L 242.79 191.861 L 231.096 179.832 L 257.64 186.779 Z" fill="#ffedc4" fill-opacity="0.501961" />
<path d="M 144.409 174.626 C 147.348 175.551, 148.205 178.278, 146.322 180.718 C 144.44 183.158, 140.531 184.386, 137.591 183.461 C 134.651 182.536, 133.795 179.808, 135.677 177.368 C 137.56 174.929, 141.469 173.701, 144.409 174.626" fill="#f3a087" fill-opacity="0.501961" />
<path d="M 179.243 182.979 C 181.586 189.618, 181.586 200.382, 179.243 207.021 C 176.899 213.66, 173.101 213.66, 170.757 207.021 C 168.414 200.382, 168.414 189.618, 170.757 182.979 C 173.101 176.34, 176.899 176.34, 179.243 182.979" fill="#f7d37f" fill-opacity="0.501961" />
<path d="M 82.8284 200.515 C 84.3905 205.201, 84.3905 212.799, 82.8284 217.485 C 81.2663 222.172, 78.7337 222.172, 77.1716 217.485 C 75.6095 212.799, 75.6095 205.201, 77.1716 200.515 C 78.7337 195.828, 81.2663 195.828, 82.8284 200.515" fill="#ffe08b" fill-opacity="0.501961" />
<path d="M 87 137 L 79 152 L 81 114 Z" fill="#dfa484" fill-opacity="0.501961" />
<path d="M 29.2016 215.482 L 19.691 212.392 L 26.7984 190.518 L 36.309 193.608 Z" fill="#e2bd7f" fill-opacity="0.501961" />
<path d="M 18.185 3.81389 C 23.6226 7.43445, 30.4933 15.0579, 33.5311 20.8413 C 36.5689 26.6247, 34.6235 28.3781, 29.1858 24.7575 C 23.7482 21.1369, 16.8775 13.5135, 13.8397 7.7301 C 10.8019 1.94668, 12.7473 0.193335, 18.185 3.81389" fill="#dcb9ae" fill-opacity="0.501961" />
<path d="M 74.6569 168.343 C 77.781 171.467, 77.781 176.533, 74.6569 179.657 C 71.5327 182.781, 66.4673 182.781, 63.3431 179.657 C 60.219 176.533, 60.219 171.467, 63.3431 168.343 C 66.4673 165.219, 71.5327 165.219, 74.6569 168.343" fill="#fdd07f" fill-opacity="0.501961" />
<path d="M 121.112 51.8113 L 149.738 28.2012 L 147.01 21.3277 L 132.816 44.6108 Z" fill="#a6725c" fill-opacity="0.501961" />
<path d="M 65.9734 86.0394 L 55.0789 47.1614 L 75.4615 57.5052 L 71.6689 60.4926 Z" fill="#d7b58b" fill-opacity="0.501961" />
<path d="M 186 219 L 214 198 L 182 207 Z" fill="#e4b467" fill-opacity="0.501961" />
<path d="M 89.2425 183.69 C 102.484 197.492, 113.717 207.875, 122.942 214.839" fill="none" stroke="#6b3412" stroke-opacity="0.501961" stroke-width="2.03701" stroke-linecap="round" />
<path d="M 160 259 L 190 234 L 250 271 Z" fill="#412a2f" fill-opacity="0.501961" />
<path d="M 129.339 163.813 L 129.097 164.783 L 110.661 160.187 L 110.903 159.217 Z" fill="#82250f" fill-opacity="0.501961" />
<path d="M 13.5431 101.026 L 35.2994 99.6875 L 35.5414 114.653 L 19.4945 107.861 Z" fill="#d78f5d" fill-opacity="0.501961" />
<path d="M 67.1588 222.48 C 71.1268 226.593, 69.7106 229.96, 63.9955 229.999 C 58.2804 230.038, 50.4307 226.736, 46.4627 222.623 C 42.4947 218.51, 43.9109 215.143, 49.626 215.104 C 55.3411 215.064, 63.1908 218.367, 67.1588 222.48" fill="#e9be77" fill-opacity="0.501961" />
<path d="M 162.851 120.551 C 158.269 121.184, 156.45 118.38, 157.393 112.14" fill="none" stroke="#dc9670" stroke-opacity="0.501961" stroke-width="1.95437" stroke-linecap="round" />
<path d="M 21.9548 110.91 L -6.92387 90.1992 L 25.1922 80.8902 L -16 65.2541 Z" fill="#cc865d" fill-opacity="0.501961" />
<path d="M 118 203 L 117 199 L 130 201 Z" fill="#8c4a27" fill-opacity="0.501961" />
<path d="M 179 133 L 180 133 L 180 160 L 179 160 Z" fill="#f9a668" fill-opacity="0.501961" />
<path d="M 135.675 129.145 C 134.559 125.463, 133.371 119.372, 133.022 115.54 C 132.672 111.708, 133.294 111.587, 134.41 115.269 C 135.526 118.951, 136.714 125.043, 137.063 128.875 C 137.413 132.706, 136.791 132.827, 135.675 129.145" fill="#f9ae9d" fill-opacity="0.501961" />
<path d="M 233.536 158.382 L 228.239 155.565 L 232.464 147.618 L 237.761 150.435 Z" fill="#fff0cd" fill-opacity="0.501961" />
<path d="M 132 260 L 135 240 L 114 238 Z" fill="#a87763" fill-opacity="0.501961" />
<path d="M 83.9553 147.594 L 84.9479 147.473 L 86.0447 156.406 L 85.0521 156.527 Z" fill="#9d4929" fill-opacity="0.501961" />
<path d="M 99.7008 187.984 C 105.283 194.856, 111.505 200.743, 118.368 205.645" fill="none" stroke="#8e5f4b" stroke-opacity="0.501961" stroke-width="1.81703" stroke-linecap="round" />
<path d="M 137.347 148.757 L 136.417 167.822 L 149.347 134.238 L 133.224 161.52 Z" fill="#d16e54" fill-opacity="0.501961" />
<path d="M 121.427 31.6691 L 100.746 35.3157 L 100.573 34.3309 L 121.254 30.6843 Z" fill="#834c2f" fill-opacity="0.501961" />
<path d="M 127.828 229.172 C 129.391 230.734, 129.391 233.266, 127.828 234.828 C 126.266 236.391, 123.734 236.391, 122.172 234.828 C 120.609 233.266, 120.609 230.734, 122.172 229.172 C 123.734 227.609, 126.266 227.609, 127.828 229.172" fill="#944c2f" fill-opacity="0.501961" />
<path d="M 92.4057 35.7198 C 80.2559 47.0255, 72.3724 62.6762, 68.7551 82.6718" fill="none" stroke="#866350" stroke-opacity="0.501961" stroke-width="2.44543" stroke-linecap="round" />
<path d="M 254.412 8.51399 L 234.724 23.6198 L 213.629 -16 L 235.272 14.8934 Z" fill="#e1bea1" fill-opacity="0.501961" />
<path d="M 241 66 L 212 63 L 245 82 Z" fill="#d0c657" fill-opacity="0.501961" />
<path d="M 101 43 L 135 43 L 135 44 L 101 44 Z" fill="#975743" fill-opacity="0.501961" />
<path d="M 157.205 165.468 L 158.476 150.697 L 143.261 153.294 L 168.726 156.4 Z" fill="#c3775c" fill-opacity="0.501961" />
<path d="M 144.364 187.172 C 147.879 188.734, 147.879 191.266, 144.364 192.828 C 140.849 194.391, 135.151 194.391, 131.636 192.828 C 128.121 191.266, 128.121 188.734, 131.636 187.172 C 135.151 185.609, 140.849 185.609, 144.364 187.172" fill="#dda5a3" fill-opacity="0.501961" />
<path d="M 121.128 96.2368 L 90.0383 98.897 L 110.631 95.2129 L 134.968 107.71 Z" fill="#cc7c6d" fill-opacity="0.501961" />
<path d="M 49.5105 236.608 C 53.8978 233.656, 56.1275 235.339, 54.4906 240.367 C 52.8537 245.396, 47.9701 251.866, 43.5827 254.818 C 39.1954 257.77, 36.9657 256.087, 38.6026 251.059 C 40.2395 246.03, 45.1231 239.56, 49.5105 236.608" fill="#412c32" fill-opacity="0.501961" />
<path d="M 164.241 114.934 L 158.95 107.653 L 159.759 107.066 L 165.05 114.347 Z" fill="#b13a0a" fill-opacity="0.501961" />
<path d="M 230 163 L 237 163 L 237 172 L 230 172 Z" fill="#fcd26e" fill-opacity="0.501961" />
<path d="M 8 48 L 18 48 L 18 53 L 8 53 Z" fill="#de8a5a" fill-opacity="0.501961" />
<path d="M 139.562 107.765 L 141.361 115.56 L 138.438 116.235 L 136.639 108.44 Z" fill="#cc7048" fill-opacity="0.501961" />
<path d="M -8.19322 46.5083 L -16 35.4767 L -16 8.28843 L 10.435 13.4554 Z" fill="#dc9a71" fill-opacity="0.501961" />
<path d="M 91.92 176.247 L 72.0635 152.847 L 81.6576 160.384 L 77.1936 140.119 Z" fill="#bf7d61" fill-opacity="0.501961" />
<path d="M 129.091 202.085 L 138.997 208.742 L 122.754 211.95 L 115.97 209.663 Z" fill="#621401" fill-opacity="0.501961" />
<path d="M 100.476 22.6478 C 100.682 9.7472, 103.849 -10.7308, 107.55 -23.091 C 111.251 -35.4512, 114.083 -35.0131, 113.877 -22.1124 C 113.67 -9.2118, 110.503 11.2662, 106.803 23.6264 C 103.102 35.9866, 100.269 35.5485, 100.476 22.6478" fill="#e6cbbb" fill-opacity="0.501961" />
<path d="M 179.008 166.132 C 178.787 169.435, 177.153 174.369, 175.359 177.151 C 173.564 179.934, 172.288 179.511, 172.509 176.208 C 172.73 172.904, 174.364 167.971, 176.159 165.188 C 177.954 162.406, 179.229 162.828, 179.008 166.132" fill="#ffad53" fill-opacity="0.501961" />
</svg>
