<svg version="1.1" width="256" height="256" xmlns="http://www.w3.org/2000/svg">
<rect x="0" y="0" width="1995" height="2000" fill="#d5a87c" />
<path d="M 72 225 L 99 271 L 9 257 Z" fill="#000000" fill-opacity="0.501961" />
<path d="M 157 271 L 262 262 L 184 225 Z" fill="#000000" fill-opacity="0.501961" />
<path d="M 35.745 44.6019 C 8.32273 43.0418, 4.12817 28.7197, 26.3762 12.6125 C 48.6241 -3.49462, 88.8898 -15.2873, 116.312 -13.7272 C 143.734 -12.1671, 147.929 2.15502, 125.681 18.2622 C 103.433 34.3693, 63.1672 46.162, 35.745 44.6019" fill="#ffffff" fill-opacity="0.501961" />
<path d="M 168 101 L 126 271 L 51 91 Z" fill="#a34c4c" fill-opacity="0.501961" />
<path d="M 157.131 214.214 L 201.465 114.638 L 302.869 159.786 L 258.535 259.362 Z" fill="#ffffa0" fill-opacity="0.501961" />
<path d="M 153.619 95.6842 C 135.145 97.9816, 108.545 90.2181, 94.2074 78.344 C 79.8694 66.4699, 83.2224 54.9817, 101.697 52.6844 C 120.171 50.3871, 146.77 58.1505, 161.108 70.0246 C 175.446 81.8987, 172.093 93.3869, 153.619 95.6842" fill="#fff0ff" fill-opacity="0.501961" />
<path d="M 155.991 29.5147 C 172.003 34.201, 172.003 41.799, 155.991 46.4853 C 139.98 51.1716, 114.02 51.1716, 98.0086 46.4853 C 81.9971 41.799, 81.9971 34.201, 98.0086 29.5147 C 114.02 24.8284, 139.98 24.8284, 155.991 29.5147" fill="#612422" fill-opacity="0.501961" />
<path d="M 170.891 118.101 C 192.37 123.568, 192.37 132.432, 170.891 137.899 C 149.412 143.367, 114.588 143.367, 93.1091 137.899 C 71.6303 132.432, 71.6303 123.568, 93.1091 118.101 C 114.588 112.633, 149.412 112.633, 170.891 118.101" fill="#ffcdc4" fill-opacity="0.501961" />
<path d="M 157.565 192.524 L 120.786 202.543 L 85.7476 182.04 L 124.706 236.065 Z" fill="#6d1c00" fill-opacity="0.501961" />
<path d="M 72.941 120.287 L 92.4762 35.5224 L 72.1486 58.5578 L 67.5995 96.1368 Z" fill="#4b211b" fill-opacity="0.501961" />
<path d="M -15 269 L 46 100 L 99 210 Z" fill="#ffd56a" fill-opacity="0.501961" />
<path d="M 113 199 L 228 161 L 93 167 Z" fill="#ffc7af" fill-opacity="0.501961" />
<path d="M -3.65741 93.0137 C 10.35 93.5296, 26.9324 104.037, 33.3803 116.483 C 39.8282 128.929, 33.7 138.6, 19.6926 138.084 C 5.68514 137.568, -10.8972 127.061, -17.3451 114.615 C -23.793 102.169, -17.6648 92.4979, -3.65741 93.0137" fill="#875237" fill-opacity="0.501961" />
<path d="M 175 38 L 196 83 L 182 135 Z" fill="#90401b" fill-opacity="0.501961" />
<path d="M 148.113 103.05 C 165.296 105.784, 165.296 110.216, 148.113 112.95 C 130.93 115.683, 103.07 115.683, 85.8873 112.95 C 68.7042 110.216, 68.7042 105.784, 85.8873 103.05 C 103.07 100.317, 130.93 100.317, 148.113 103.05" fill="#5d210e" fill-opacity="0.501961" />
<path d="M 65 229 L 107 271 L -11 271 Z" fill="#070010" fill-opacity="0.501961" />
<path d="M 204 35 L 260 227 L 178 176 Z" fill="#ffea96" fill-opacity="0.501961" />
<path d="M 158.113 146.222 C 175.296 150.518, 175.296 157.482, 158.113 161.778 C 140.93 166.074, 113.07 166.074, 95.8873 161.778 C 78.7042 157.482, 78.7042 150.518, 95.8873 146.222 C 113.07 141.926, 140.93 141.926, 158.113 146.222" fill="#9f361a" fill-opacity="0.501961" />
<path d="M 80 63 L 80 102 L 186 78 Z" fill="#ffcccd" fill-opacity="0.501961" />
<path d="M 303.619 -22.6188 C 332.127 5.88948, 332.127 52.1105, 303.619 80.6188 C 275.111 109.127, 228.889 109.127, 200.381 80.6188 C 171.873 52.1105, 171.873 5.88948, 200.381 -22.6188 C 228.889 -51.1271, 275.111 -51.1271, 303.619 -22.6188" fill="#d5d67b" fill-opacity="0.501961" />
<path d="M 76.2843 -6.28427 C 91.9052 9.3367, 91.9052 34.6633, 76.2843 50.2843 C 60.6633 65.9052, 35.3367 65.9052, 19.7157 50.2843 C 4.09476 34.6633, 4.09476 9.3367, 19.7157 -6.28427 C 35.3367 -21.9052, 60.6633 -21.9052, 76.2843 -6.28427" fill="#f2d8ce" fill-opacity="0.501961" />
<path d="M 221 207 L 170 148 L 134 234 Z" fill="#fda55d" fill-opacity="0.501961" />
<path d="M 177.384 43.5888 C 185.557 49.6114, 184.47 57.3657, 174.956 60.9084 C 165.442 64.4512, 151.105 62.4409, 142.933 56.4183 C 134.76 50.3957, 135.847 42.6415, 145.361 39.0987 C 154.875 35.556, 169.212 37.5662, 177.384 43.5888" fill="#a25641" fill-opacity="0.501961" />
<path d="M 136 271 L 198 235 L 271 267 Z" fill="#210c2a" fill-opacity="0.501961" />
<path d="M 118 14 L 139 -9 L 177 35 Z" fill="#feebba" fill-opacity="0.501961" />
<path d="M 179.313 102.708 L 199.719 128.088 L 192.495 132.552 L 167.214 101.602 Z" fill="#b5401e" fill-opacity="0.501961" />
<path d="M 220.928 191.677 L 157.302 135.383 L 271 157.216 L 271 191.24 Z" fill="#ffe8bb" fill-opacity="0.501961" />
<path d="M 133.819 116.254 C 135.926 122.446, 135.263 132.21, 132.338 138.061 C 129.414 143.912, 125.336 143.635, 123.229 137.442 C 121.123 131.25, 121.786 121.486, 124.71 115.635 C 127.634 109.784, 131.712 110.061, 133.819 116.254" fill="#fff1f7" fill-opacity="0.501961" />
<path d="M -15 132 L 45 186 L -11 216 Z" fill="#f4a53c" fill-opacity="0.501961" />
<path d="M 100.955 45.1472 C 97.0554 50.279, 88.7891 55.5503, 82.4914 56.921 C 76.1937 58.2917, 74.2493 55.2426, 78.1486 50.1108 C 82.0479 44.979, 90.3142 39.7077, 96.6119 38.337 C 102.91 36.9663, 104.854 40.0154, 100.955 45.1472" fill="#522114" fill-opacity="0.501961" />
<path d="M 213 27 L 267 124 L 226 142 Z" fill="#c3be51" fill-opacity="0.501961" />
<path d="M 169.726 218.416 C 176.447 223.609, 179.164 234.139, 175.796 241.936 C 172.428 249.732, 164.25 251.843, 157.529 246.65 C 150.809 241.457, 148.091 230.927, 151.459 223.131 C 154.827 215.334, 163.006 213.224, 169.726 218.416" fill="#ffc5b9" fill-opacity="0.501961" />
<path d="M 174.607 71.2721 C 180.464 78.3015, 180.464 89.6985, 174.607 96.7279 C 168.749 103.757, 159.251 103.757, 153.393 96.7279 C 147.536 89.6985, 147.536 78.3015, 153.393 71.2721 C 159.251 64.2426, 168.749 64.2426, 174.607 71.2721" fill="#ffd4c7" fill-opacity="0.501961" />
<path d="M 17.6777 52.3223 C 27.4408 62.0854, 27.4408 77.9146, 17.6777 87.6777 C 7.91456 97.4408, -7.91456 97.4408, -17.6777 87.6777 C -27.4408 77.9146, -27.4408 62.0854, -17.6777 52.3223 C -7.91456 42.5592, 7.91456 42.5592, 17.6777 52.3223" fill="#c27054" fill-opacity="0.501961" />
<path d="M 138 159 L 145 140 L 161 150 Z" fill="#fdb39e" fill-opacity="0.501961" />
<path d="M 86.7823 148.269 C 65.9155 160.745, 29.3975 172.909, 5.21691 175.437 C -18.9636 177.966, -21.65 169.901, -0.783192 157.424 C 20.0836 144.947, 56.6017 132.783, 80.7822 130.255 C 104.963 127.727, 107.649 135.792, 86.7823 148.269" fill="#ffbe85" fill-opacity="0.501961" />
<path d="M 78.9366 166.296 L 129.01 108.165 L 96.7265 170.686 L 112.297 250.18 Z" fill="#a15b42" fill-opacity="0.501961" />
<path d="M 154.744 197.938 L 115.447 201.492 L 122.421 220.265 L 153.364 205.288 Z" fill="#811e00" fill-opacity="0.501961" />
<path d="M 5 24 L 67 69 L 63 170 Z" fill="#e5ab80" fill-opacity="0.501961" />
<path d="M 62.3842 35.3795 C 52.9028 42.3809, 45.1786 38.502, 45.1318 26.7158 C 45.085 14.9296, 52.7333 -0.300719, 62.2147 -7.30207 C 71.6961 -14.3034, 79.4203 -10.4245, 79.4671 1.36167 C 79.5139 13.1479, 71.8657 28.3782, 62.3842 35.3795" fill="#ecf7ff" fill-opacity="0.501961" />
<path d="M 29.8932 21.0829 C 24.0324 17.9371, 19.759 10.0158, 20.3483 3.39026 C 20.9377 -3.2353, 26.1665 -6.05619, 32.0274 -2.91036 C 37.8882 0.235472, 42.1616 8.15675, 41.5722 14.7823 C 40.9829 21.4079, 35.754 24.2288, 29.8932 21.0829" fill="#d89071" fill-opacity="0.501961" />
<path d="M 214.761 30.9866 L 271 6.44306 L 217.459 -12.5708 L 237.03 37.0293 Z" fill="#f2c4bb" fill-opacity="0.501961" />
<path d="M 62 83 L 77 129 L 81 100 Z" fill="#633913" fill-opacity="0.501961" />
<path d="M 164.489 28.1363 C 164.202 16.867, 171.437 2.46366, 180.649 -4.03433 C 189.861 -10.5323, 197.561 -6.66434, 197.848 4.60504 C 198.135 15.8744, 190.9 30.2777, 181.688 36.7757 C 172.477 43.2737, 164.776 39.4057, 164.489 28.1363" fill="#f1db99" fill-opacity="0.501961" />
<path d="M 172 17 L 153 -16 L 153 12 Z" fill="#807246" fill-opacity="0.501961" />
<path d="M 171.712 182.552 L 200.178 124.941 L 187.831 116.48 L 132.944 236.809 Z" fill="#f98953" fill-opacity="0.501961" />
<path d="M 222 81 L 190 70 L 210 129 Z" fill="#fff2aa" fill-opacity="0.501961" />
<path d="M 174.453 106.202 L 184.197 103.952 L 185.547 109.798 L 175.803 112.048 Z" fill="#200800" fill-opacity="0.501961" />
<path d="M 153 13 L 50 48 L 145 -16 Z" fill="#eed0b4" fill-opacity="0.501961" />
<path d="M 73 221 L 76 221 L 76 243 L 73 243 Z" fill="#260a11" fill-opacity="0.501961" />
<path d="M 73 164 L 5 230 L 93 219 Z" fill="#ffd580" fill-opacity="0.501961" />
<path d="M 176.433 222.861 C 208.009 254.954, 224.527 271, 225.986 271" fill="none" stroke="#442b36" stroke-opacity="0.501961" stroke-width="4.67486" stroke-linecap="round" />
<path d="M 251.228 41.1995 L 215.085 54.2208 L 188.751 34.9143 L 195.69 33.7488 Z" fill="#af9b56" fill-opacity="0.501961" />
<path d="M 155.414 73.8733 L 115.225 44.5973 L 90.6172 53.1475 L 130.253 104.98 Z" fill="#ffcfcb" fill-opacity="0.501961" />
<path d="M 131.766 110.619 C 123.011 112.177, 108.732 112.803, 99.8743 112.017 C 91.0162 111.231, 90.9329 109.331, 99.6882 107.772 C 108.444 106.214, 122.722 105.588, 131.58 106.374 C 140.438 107.16, 140.522 109.061, 131.766 110.619" fill="#481000" fill-opacity="0.501961" />
<path d="M 215 193 L 200 154 L 228 169 Z" fill="#fffae8" fill-opacity="0.501961" />
<path d="M 133 271 L 79 241 L 90 195 Z" fill="#c79397" fill-opacity="0.501961" />
<path d="M 240 182 L 219 87 L 203 145 Z" fill="#ffd072" fill-opacity="0.501961" />
<path d="M 116.05 136.508 L 109.252 158.894 L 90.3741 95.9557 L 71.6306 150.323 Z" fill="#d6998a" fill-opacity="0.501961" />
<path d="M 123 41 L 90 45 L 107 33 Z" fill="#5d240d" fill-opacity="0.501961" />
<path d="M 201 135.5 L 201 188.5 L 175 188.5 L 175 135.5 Z" fill="#ffdc9d" fill-opacity="0.501961" />
<path d="M 142 224 L 134 271 L 89 201 Z" fill="#aa6e53" fill-opacity="0.501961" />
<path d="M 53.8902 125.455 L 47.798 104.447 L 76.8875 109.742 L 63.2985 121.534 Z" fill="#e3c79e" fill-opacity="0.501961" />
<path d="M 114 159 L 115 165 L 101 159 Z" fill="#030000" fill-opacity="0.501961" />
<path d="M 269.793 63.2364 C 281.753 57.5412, 284.825 61.3766, 276.654 71.8031 C 268.484 82.2296, 252.166 95.2988, 240.207 100.994 C 228.247 106.689, 225.175 102.854, 233.346 92.4273 C 241.516 82.0008, 257.834 68.9316, 269.793 63.2364" fill="#e7e4a6" fill-opacity="0.501961" />
<path d="M 266.314 197.322 C 272.562 207.085, 272.562 222.915, 266.314 232.678 C 260.065 242.441, 249.935 242.441, 243.686 232.678 C 237.438 222.915, 237.438 207.085, 243.686 197.322 C 249.935 187.559, 260.065 187.559, 266.314 197.322" fill="#f0cb57" fill-opacity="0.501961" />
<path d="M 136 97 L 156 97 L 156 116 L 136 116 Z" fill="#98452d" fill-opacity="0.501961" />
<path d="M 66 119 L 70 119 L 70 129 L 66 129 Z" fill="#a90000" fill-opacity="0.501961" />
<path d="M 191.009 108.89 C 187.464 112.176, 182.731 111.391, 180.436 107.138 C 178.142 102.885, 179.155 96.774, 182.699 93.4889 C 186.243 90.2038, 190.977 90.9884, 193.271 95.2414 C 195.566 99.4945, 194.553 105.605, 191.009 108.89" fill="#bb6519" fill-opacity="0.501961" />
<path d="M 135 120 L 162 161 L 171 152 Z" fill="#c65941" fill-opacity="0.501961" />
<path d="M 109.975 198.695 C 114.818 207.275, 112.702 209.008, 105.247 202.566 C 97.7921 196.124, 87.8222 183.946, 82.9785 175.366 C 78.1347 166.786, 80.2514 165.054, 87.7062 171.496 C 95.161 177.938, 105.131 190.116, 109.975 198.695" fill="#7a4520" fill-opacity="0.501961" />
<path d="M 132.288 156.125 L 113.947 149.275 L 117.952 139.971 L 141.713 144.986 Z" fill="#9e2b08" fill-opacity="0.501961" />
<path d="M -6.12251 245.398 L -16 230.336 L 19.1849 233.434 L 18.3509 249.669 Z" fill="#afb043" fill-opacity="0.501961" />
<path d="M 88.3978 159.233 L 85.7041 151.157 L 150.627 194.867 L 110.55 193.15 Z" fill="#e4a69d" fill-opacity="0.501961" />
<path d="M 120 97 L 137 97 L 137 104 L 120 104 Z" fill="#f98f7a" fill-opacity="0.501961" />
<path d="M 72 81 L 8 94 L 39 130 Z" fill="#cd906d" fill-opacity="0.501961" />
<path d="M 191 81 L 191 59 L 160 31 Z" fill="#866455" fill-opacity="0.501961" />
<path d="M 241.292 62.0846 C 248.098 59.6637, 252.699 63.4851, 251.569 70.6199 C 250.44 77.7546, 244.007 85.501, 237.201 87.9218 C 230.395 90.3427, 225.793 86.5213, 226.923 79.3865 C 228.053 72.2517, 234.486 64.5054, 241.292 62.0846" fill="#b6b446" fill-opacity="0.501961" />
<path d="M 21.8672 116.191 C 37.9598 111.47, 41.2152 117.076, 29.1383 128.713 C 17.0614 140.35, -5.77453 153.61, -21.8672 158.332 C -37.9598 163.053, -41.2152 157.447, -29.1383 145.81 C -17.0614 134.174, 5.77453 120.913, 21.8672 116.191" fill="#957c55" fill-opacity="0.501961" />
<path d="M 79.3729 163.32 L 106.181 138.71 L 113.744 135.338 L 108.989 142.079 Z" fill="#972f13" fill-opacity="0.501961" />
<path d="M 213 126 L 214 108 L 183 109 Z" fill="#ffeba3" fill-opacity="0.501961" />
<path d="M -16 164.573 L -11.3703 144.114 L 24.5172 203.008 L -16 196.96 Z" fill="#d98b37" fill-opacity="0.501961" />
<path d="M 141.421 209.045 C 143.442 203.295, 148.815 195.399, 153.422 191.409 C 158.029 187.419, 160.125 188.846, 158.105 194.596 C 156.084 200.346, 150.711 208.242, 146.104 212.232 C 141.497 216.222, 139.4 214.795, 141.421 209.045" fill="#d86111" fill-opacity="0.501961" />
<path d="M 129 213 L 145 203 L 106 204 Z" fill="#550e00" fill-opacity="0.501961" />
<path d="M 201.513 223.788 L 271 259.107 L 196.844 235.04 L 191.669 230.483 Z" fill="#dcbb73" fill-opacity="0.501961" />
<path d="M 228 271 L 163 266 L 181 232 Z" fill="#351c27" fill-opacity="0.501961" />
<path d="M 150 45 L 159 67 L 105 46 Z" fill="#df8e7e" fill-opacity="0.501961" />
<path d="M 156.183 169.616 C 158.559 175.705, 156.777 184.426, 152.203 189.094 C 147.628 193.763, 141.993 192.611, 139.617 186.522 C 137.24 180.433, 139.022 171.713, 143.597 167.044 C 148.172 162.376, 153.807 163.527, 156.183 169.616" fill="#ffbab3" fill-opacity="0.501961" />
<path d="M 114 25 L 148 25 L 148 47 L 114 47 Z" fill="#996958" fill-opacity="0.501961" />
<path d="M 223.551 20.2268 L 206.303 19.2146 L 209.827 -16 L 227.39 20.2472 Z" fill="#b39264" fill-opacity="0.501961" />
<path d="M 83.979 113.519 L 75.0461 112.422 L 76.021 104.481 L 84.9539 105.578 Z" fill="#1f0000" fill-opacity="0.501961" />
<path d="M 178.304 224.786 L 136.279 266.777 L 156.569 263.182 L 173.03 246.641 Z" fill="#efc3c2" fill-opacity="0.501961" />
<path d="M 151.236 97.5293 L 154.354 82.8571 L 180.764 88.4707 L 177.646 103.143 Z" fill="#ffcdbc" fill-opacity="0.501961" />
<path d="M -13.275 212.391 C 51.7532 189.052, 73.2893 161.649, 51.3333 130.183" fill="none" stroke="#edae5a" stroke-opacity="0.501961" stroke-width="14.0291" stroke-linecap="round" />
<path d="M 115 174 L 136 174 L 136 182 L 115 182 Z" fill="#c76e5b" fill-opacity="0.501961" />
<path d="M 126.973 137.945 L 144.317 139.344 L 125.494 112.241 L 133.189 110.423 Z" fill="#ffdedd" fill-opacity="0.501961" />
<path d="M 194.495 177.57 L 173.387 105.793 L 151.777 104.783 L 164.669 112.068 Z" fill="#ffb48a" fill-opacity="0.501961" />
<path d="M 160.485 108.172 C 165.172 109.734, 165.172 112.266, 160.485 113.828 C 155.799 115.391, 148.201 115.391, 143.515 113.828 C 138.828 112.266, 138.828 109.734, 143.515 108.172 C 148.201 106.609, 155.799 106.609, 160.485 108.172" fill="#702b00" fill-opacity="0.501961" />
<path d="M 237.355 213.599 C 234.186 216.399, 228.378 217.541, 224.385 216.152 C 220.391 214.762, 219.722 211.365, 222.892 208.566 C 226.061 205.766, 231.869 204.624, 235.862 206.014 C 239.856 207.404, 240.525 210.8, 237.355 213.599" fill="#fffbcf" fill-opacity="0.501961" />
<path d="M 87.5248 104.358 C 94.3533 99.3858, 106.687 94.5304, 115.073 93.5137 C 123.458 92.497, 124.721 95.7038, 117.892 100.676 C 111.064 105.649, 98.7303 110.504, 90.3446 111.521 C 81.9588 112.538, 80.6964 109.331, 87.5248 104.358" fill="#b4715d" fill-opacity="0.501961" />
</svg>
